# Tiled2Unity generated file. Do not modify by hand.
# Wavefront file for 'Cuarto-2_mesh_0002.obj'

# Vertices (Count = 704)
v -1 -1 0
v -2 -1 0
v -2 0 0
v -1 0 0
v -2 -1 0
v -3 -1 0
v -3 0 0
v -2 0 0
v -3 -1 0
v -4 -1 0
v -4 0 0
v -3 0 0
v -4 -1 0
v -5 -1 0
v -5 0 0
v -4 0 0
v -5 -1 0
v -6 -1 0
v -6 0 0
v -5 0 0
v -6 -1 0
v -7 -1 0
v -7 0 0
v -6 0 0
v -7 -1 0
v -8 -1 0
v -8 0 0
v -7 0 0
v -8 -1 0
v -9 -1 0
v -9 0 0
v -8 0 0
v -9 -1 0
v -10 -1 0
v -10 0 0
v -9 0 0
v -10 -1 0
v -11 -1 0
v -11 0 0
v -10 0 0
v -11 -1 0
v -12 -1 0
v -12 0 0
v -11 0 0
v -12 -1 0
v -13 -1 0
v -13 0 0
v -12 0 0
v -13 -1 0
v -14 -1 0
v -14 0 0
v -13 0 0
v -14 -1 0
v -15 -1 0
v -15 0 0
v -14 0 0
v -15 -1 0
v -16 -1 0
v -16 0 0
v -15 0 0
v -16 -1 0
v -17 -1 0
v -17 0 0
v -16 0 0
v -17 -1 0
v -18 -1 0
v -18 0 0
v -17 0 0
v -18 -1 0
v -19 -1 0
v -19 0 0
v -18 0 0
v -19 -1 0
v -20 -1 0
v -20 0 0
v -19 0 0
v -20 -1 0
v -21 -1 0
v -21 0 0
v -20 0 0
v -21 -1 0
v -22 -1 0
v -22 0 0
v -21 0 0
v -22 -1 0
v -23 -1 0
v -23 0 0
v -22 0 0
v -23 -1 0
v -24 -1 0
v -24 0 0
v -23 0 0
v -1 -2 0
v -2 -2 0
v -2 -1 0
v -1 -1 0
v -2 -2 0
v -3 -2 0
v -3 -1 0
v -2 -1 0
v -3 -2 0
v -4 -2 0
v -4 -1 0
v -3 -1 0
v -4 -2 0
v -5 -2 0
v -5 -1 0
v -4 -1 0
v -5 -2 0
v -6 -2 0
v -6 -1 0
v -5 -1 0
v -6 -2 0
v -7 -2 0
v -7 -1 0
v -6 -1 0
v -7 -2 0
v -8 -2 0
v -8 -1 0
v -7 -1 0
v -8 -2 0
v -9 -2 0
v -9 -1 0
v -8 -1 0
v -9 -2 0
v -10 -2 0
v -10 -1 0
v -9 -1 0
v -10 -2 0
v -11 -2 0
v -11 -1 0
v -10 -1 0
v -11 -2 0
v -12 -2 0
v -12 -1 0
v -11 -1 0
v -12 -2 0
v -13 -2 0
v -13 -1 0
v -12 -1 0
v -13 -2 0
v -14 -2 0
v -14 -1 0
v -13 -1 0
v -14 -2 0
v -15 -2 0
v -15 -1 0
v -14 -1 0
v -15 -2 0
v -16 -2 0
v -16 -1 0
v -15 -1 0
v -16 -2 0
v -17 -2 0
v -17 -1 0
v -16 -1 0
v -17 -2 0
v -18 -2 0
v -18 -1 0
v -17 -1 0
v -18 -2 0
v -19 -2 0
v -19 -1 0
v -18 -1 0
v -19 -2 0
v -20 -2 0
v -20 -1 0
v -19 -1 0
v -20 -2 0
v -21 -2 0
v -21 -1 0
v -20 -1 0
v -21 -2 0
v -22 -2 0
v -22 -1 0
v -21 -1 0
v -22 -2 0
v -23 -2 0
v -23 -1 0
v -22 -1 0
v -23 -2 0
v -24 -2 0
v -24 -1 0
v -23 -1 0
v 0 -3 0
v -1 -3 0
v -1 -2 0
v 0 -2 0
v -1 -3 0
v -2 -3 0
v -2 -2 0
v -1 -2 0
v -23 -3 0
v -24 -3 0
v -24 -2 0
v -23 -2 0
v -24 -3 0
v -25 -3 0
v -25 -2 0
v -24 -2 0
v 0 -4 0
v -1 -4 0
v -1 -3 0
v 0 -3 0
v -1 -4 0
v -2 -4 0
v -2 -3 0
v -1 -3 0
v -23 -4 0
v -24 -4 0
v -24 -3 0
v -23 -3 0
v -24 -4 0
v -25 -4 0
v -25 -3 0
v -24 -3 0
v 0 -5 0
v -1 -5 0
v -1 -4 0
v 0 -4 0
v -1 -5 0
v -2 -5 0
v -2 -4 0
v -1 -4 0
v -23 -5 0
v -24 -5 0
v -24 -4 0
v -23 -4 0
v -24 -5 0
v -25 -5 0
v -25 -4 0
v -24 -4 0
v 0 -6 0
v -1 -6 0
v -1 -5 0
v 0 -5 0
v -1 -6 0
v -2 -6 0
v -2 -5 0
v -1 -5 0
v -23 -6 0
v -24 -6 0
v -24 -5 0
v -23 -5 0
v -24 -6 0
v -25 -6 0
v -25 -5 0
v -24 -5 0
v 0 -7 0
v -1 -7 0
v -1 -6 0
v 0 -6 0
v -1 -7 0
v -2 -7 0
v -2 -6 0
v -1 -6 0
v -23 -7 0
v -24 -7 0
v -24 -6 0
v -23 -6 0
v -24 -7 0
v -25 -7 0
v -25 -6 0
v -24 -6 0
v 0 -8 0
v -1 -8 0
v -1 -7 0
v 0 -7 0
v -1 -8 0
v -2 -8 0
v -2 -7 0
v -1 -7 0
v -23 -8 0
v -24 -8 0
v -24 -7 0
v -23 -7 0
v -24 -8 0
v -25 -8 0
v -25 -7 0
v -24 -7 0
v 0 -9 0
v -1 -9 0
v -1 -8 0
v 0 -8 0
v -1 -9 0
v -2 -9 0
v -2 -8 0
v -1 -8 0
v -23 -9 0
v -24 -9 0
v -24 -8 0
v -23 -8 0
v -24 -9 0
v -25 -9 0
v -25 -8 0
v -24 -8 0
v 0 -10 0
v -1 -10 0
v -1 -9 0
v 0 -9 0
v -1 -10 0
v -2 -10 0
v -2 -9 0
v -1 -9 0
v -23 -10 0
v -24 -10 0
v -24 -9 0
v -23 -9 0
v -24 -10 0
v -25 -10 0
v -25 -9 0
v -24 -9 0
v 0 -11 0
v -1 -11 0
v -1 -10 0
v 0 -10 0
v -1 -11 0
v -2 -11 0
v -2 -10 0
v -1 -10 0
v -23 -11 0
v -24 -11 0
v -24 -10 0
v -23 -10 0
v -24 -11 0
v -25 -11 0
v -25 -10 0
v -24 -10 0
v 0 -12 0
v -1 -12 0
v -1 -11 0
v 0 -11 0
v -1 -12 0
v -2 -12 0
v -2 -11 0
v -1 -11 0
v -23 -12 0
v -24 -12 0
v -24 -11 0
v -23 -11 0
v -24 -12 0
v -25 -12 0
v -25 -11 0
v -24 -11 0
v 0 -13 0
v -1 -13 0
v -1 -12 0
v 0 -12 0
v -1 -13 0
v -2 -13 0
v -2 -12 0
v -1 -12 0
v -23 -13 0
v -24 -13 0
v -24 -12 0
v -23 -12 0
v -24 -13 0
v -25 -13 0
v -25 -12 0
v -24 -12 0
v 0 -14 0
v -1 -14 0
v -1 -13 0
v 0 -13 0
v -1 -14 0
v -2 -14 0
v -2 -13 0
v -1 -13 0
v -23 -14 0
v -24 -14 0
v -24 -13 0
v -23 -13 0
v -24 -14 0
v -25 -14 0
v -25 -13 0
v -24 -13 0
v 0 -15 0
v -1 -15 0
v -1 -14 0
v 0 -14 0
v -1 -15 0
v -2 -15 0
v -2 -14 0
v -1 -14 0
v -23 -15 0
v -24 -15 0
v -24 -14 0
v -23 -14 0
v -24 -15 0
v -25 -15 0
v -25 -14 0
v -24 -14 0
v 0 -16 0
v -1 -16 0
v -1 -15 0
v 0 -15 0
v -1 -16 0
v -2 -16 0
v -2 -15 0
v -1 -15 0
v -23 -16 0
v -24 -16 0
v -24 -15 0
v -23 -15 0
v -24 -16 0
v -25 -16 0
v -25 -15 0
v -24 -15 0
v 0 -17 0
v -1 -17 0
v -1 -16 0
v 0 -16 0
v -1 -17 0
v -2 -17 0
v -2 -16 0
v -1 -16 0
v -23 -17 0
v -24 -17 0
v -24 -16 0
v -23 -16 0
v -24 -17 0
v -25 -17 0
v -25 -16 0
v -24 -16 0
v 0 -18 0
v -1 -18 0
v -1 -17 0
v 0 -17 0
v -1 -18 0
v -2 -18 0
v -2 -17 0
v -1 -17 0
v -23 -18 0
v -24 -18 0
v -24 -17 0
v -23 -17 0
v -24 -18 0
v -25 -18 0
v -25 -17 0
v -24 -17 0
v 0 -19 0
v -1 -19 0
v -1 -18 0
v 0 -18 0
v -1 -19 0
v -2 -19 0
v -2 -18 0
v -1 -18 0
v -23 -19 0
v -24 -19 0
v -24 -18 0
v -23 -18 0
v -24 -19 0
v -25 -19 0
v -25 -18 0
v -24 -18 0
v 0 -20 0
v -1 -20 0
v -1 -19 0
v 0 -19 0
v -1 -20 0
v -2 -20 0
v -2 -19 0
v -1 -19 0
v -23 -20 0
v -24 -20 0
v -24 -19 0
v -23 -19 0
v -24 -20 0
v -25 -20 0
v -25 -19 0
v -24 -19 0
v 0 -21 0
v -1 -21 0
v -1 -20 0
v 0 -20 0
v -1 -21 0
v -2 -21 0
v -2 -20 0
v -1 -20 0
v -23 -21 0
v -24 -21 0
v -24 -20 0
v -23 -20 0
v -24 -21 0
v -25 -21 0
v -25 -20 0
v -24 -20 0
v 0 -22 0
v -1 -22 0
v -1 -21 0
v 0 -21 0
v -1 -22 0
v -2 -22 0
v -2 -21 0
v -1 -21 0
v -23 -22 0
v -24 -22 0
v -24 -21 0
v -23 -21 0
v -24 -22 0
v -25 -22 0
v -25 -21 0
v -24 -21 0
v 0 -23 0
v -1 -23 0
v -1 -22 0
v 0 -22 0
v -1 -23 0
v -2 -23 0
v -2 -22 0
v -1 -22 0
v -23 -23 0
v -24 -23 0
v -24 -22 0
v -23 -22 0
v -24 -23 0
v -25 -23 0
v -25 -22 0
v -24 -22 0
v -1 -24 0
v -2 -24 0
v -2 -23 0
v -1 -23 0
v -2 -24 0
v -3 -24 0
v -3 -23 0
v -2 -23 0
v -3 -24 0
v -4 -24 0
v -4 -23 0
v -3 -23 0
v -4 -24 0
v -5 -24 0
v -5 -23 0
v -4 -23 0
v -5 -24 0
v -6 -24 0
v -6 -23 0
v -5 -23 0
v -6 -24 0
v -7 -24 0
v -7 -23 0
v -6 -23 0
v -7 -24 0
v -8 -24 0
v -8 -23 0
v -7 -23 0
v -8 -24 0
v -9 -24 0
v -9 -23 0
v -8 -23 0
v -9 -24 0
v -10 -24 0
v -10 -23 0
v -9 -23 0
v -10 -24 0
v -11 -24 0
v -11 -23 0
v -10 -23 0
v -11 -24 0
v -12 -24 0
v -12 -23 0
v -11 -23 0
v -12 -24 0
v -13 -24 0
v -13 -23 0
v -12 -23 0
v -13 -24 0
v -14 -24 0
v -14 -23 0
v -13 -23 0
v -14 -24 0
v -15 -24 0
v -15 -23 0
v -14 -23 0
v -15 -24 0
v -16 -24 0
v -16 -23 0
v -15 -23 0
v -16 -24 0
v -17 -24 0
v -17 -23 0
v -16 -23 0
v -17 -24 0
v -18 -24 0
v -18 -23 0
v -17 -23 0
v -18 -24 0
v -19 -24 0
v -19 -23 0
v -18 -23 0
v -19 -24 0
v -20 -24 0
v -20 -23 0
v -19 -23 0
v -20 -24 0
v -21 -24 0
v -21 -23 0
v -20 -23 0
v -21 -24 0
v -22 -24 0
v -22 -23 0
v -21 -23 0
v -22 -24 0
v -23 -24 0
v -23 -23 0
v -22 -23 0
v -23 -24 0
v -24 -24 0
v -24 -23 0
v -23 -23 0
v -1 -25 0
v -2 -25 0
v -2 -24 0
v -1 -24 0
v -2 -25 0
v -3 -25 0
v -3 -24 0
v -2 -24 0
v -3 -25 0
v -4 -25 0
v -4 -24 0
v -3 -24 0
v -4 -25 0
v -5 -25 0
v -5 -24 0
v -4 -24 0
v -5 -25 0
v -6 -25 0
v -6 -24 0
v -5 -24 0
v -6 -25 0
v -7 -25 0
v -7 -24 0
v -6 -24 0
v -7 -25 0
v -8 -25 0
v -8 -24 0
v -7 -24 0
v -8 -25 0
v -9 -25 0
v -9 -24 0
v -8 -24 0
v -9 -25 0
v -10 -25 0
v -10 -24 0
v -9 -24 0
v -10 -25 0
v -11 -25 0
v -11 -24 0
v -10 -24 0
v -11 -25 0
v -12 -25 0
v -12 -24 0
v -11 -24 0
v -12 -25 0
v -13 -25 0
v -13 -24 0
v -12 -24 0
v -13 -25 0
v -14 -25 0
v -14 -24 0
v -13 -24 0
v -14 -25 0
v -15 -25 0
v -15 -24 0
v -14 -24 0
v -15 -25 0
v -16 -25 0
v -16 -24 0
v -15 -24 0
v -16 -25 0
v -17 -25 0
v -17 -24 0
v -16 -24 0
v -17 -25 0
v -18 -25 0
v -18 -24 0
v -17 -24 0
v -18 -25 0
v -19 -25 0
v -19 -24 0
v -18 -24 0
v -19 -25 0
v -20 -25 0
v -20 -24 0
v -19 -24 0
v -20 -25 0
v -21 -25 0
v -21 -24 0
v -20 -24 0
v -21 -25 0
v -22 -25 0
v -22 -24 0
v -21 -24 0
v -22 -25 0
v -23 -25 0
v -23 -24 0
v -22 -24 0
v -23 -25 0
v -24 -25 0
v -24 -24 0
v -23 -24 0

# Texture cooridinates (Count = 12)
vt 0.125 0.56
vt 0.15 0.56
vt 0.15 0.6
vt 0.125 0.6
vt 0.15 0.68
vt 0.175 0.68
vt 0.175 0.72
vt 0.15 0.72
vt 0.125 0.52
vt 0.15 0.52
vt 0.15 0.64
vt 0.175 0.64

# Normal
vn 0 0 -1

# Mesh description
g Cuarto-2_mesh_0002

# Faces
f 1/1/1 2/2/1 3/3/1 4/4/1
f 5/5/1 6/6/1 7/7/1 8/8/1
f 9/5/1 10/6/1 11/7/1 12/8/1
f 13/5/1 14/6/1 15/7/1 16/8/1
f 17/5/1 18/6/1 19/7/1 20/8/1
f 21/5/1 22/6/1 23/7/1 24/8/1
f 25/5/1 26/6/1 27/7/1 28/8/1
f 29/5/1 30/6/1 31/7/1 32/8/1
f 33/5/1 34/6/1 35/7/1 36/8/1
f 37/5/1 38/6/1 39/7/1 40/8/1
f 41/5/1 42/6/1 43/7/1 44/8/1
f 45/5/1 46/6/1 47/7/1 48/8/1
f 49/5/1 50/6/1 51/7/1 52/8/1
f 53/5/1 54/6/1 55/7/1 56/8/1
f 57/5/1 58/6/1 59/7/1 60/8/1
f 61/5/1 62/6/1 63/7/1 64/8/1
f 65/5/1 66/6/1 67/7/1 68/8/1
f 69/5/1 70/6/1 71/7/1 72/8/1
f 73/5/1 74/6/1 75/7/1 76/8/1
f 77/5/1 78/6/1 79/7/1 80/8/1
f 81/5/1 82/6/1 83/7/1 84/8/1
f 85/5/1 86/6/1 87/7/1 88/8/1
f 89/1/1 90/2/1 91/3/1 92/4/1
f 93/9/1 94/10/1 95/2/1 96/1/1
f 97/11/1 98/12/1 99/6/1 100/5/1
f 101/11/1 102/12/1 103/6/1 104/5/1
f 105/11/1 106/12/1 107/6/1 108/5/1
f 109/11/1 110/12/1 111/6/1 112/5/1
f 113/11/1 114/12/1 115/6/1 116/5/1
f 117/11/1 118/12/1 119/6/1 120/5/1
f 121/11/1 122/12/1 123/6/1 124/5/1
f 125/11/1 126/12/1 127/6/1 128/5/1
f 129/11/1 130/12/1 131/6/1 132/5/1
f 133/11/1 134/12/1 135/6/1 136/5/1
f 137/11/1 138/12/1 139/6/1 140/5/1
f 141/11/1 142/12/1 143/6/1 144/5/1
f 145/11/1 146/12/1 147/6/1 148/5/1
f 149/11/1 150/12/1 151/6/1 152/5/1
f 153/11/1 154/12/1 155/6/1 156/5/1
f 157/11/1 158/12/1 159/6/1 160/5/1
f 161/11/1 162/12/1 163/6/1 164/5/1
f 165/11/1 166/12/1 167/6/1 168/5/1
f 169/11/1 170/12/1 171/6/1 172/5/1
f 173/11/1 174/12/1 175/6/1 176/5/1
f 177/11/1 178/12/1 179/6/1 180/5/1
f 181/9/1 182/10/1 183/2/1 184/1/1
f 185/4/1 186/1/1 187/2/1 188/3/1
f 189/1/1 190/9/1 191/10/1 192/2/1
f 193/10/1 194/2/1 195/1/1 196/9/1
f 197/2/1 198/3/1 199/4/1 200/1/1
f 201/8/1 202/5/1 203/6/1 204/7/1
f 205/5/1 206/11/1 207/12/1 208/6/1
f 209/12/1 210/6/1 211/5/1 212/11/1
f 213/6/1 214/7/1 215/8/1 216/5/1
f 217/8/1 218/5/1 219/6/1 220/7/1
f 221/5/1 222/11/1 223/12/1 224/6/1
f 225/12/1 226/6/1 227/5/1 228/11/1
f 229/6/1 230/7/1 231/8/1 232/5/1
f 233/8/1 234/5/1 235/6/1 236/7/1
f 237/5/1 238/11/1 239/12/1 240/6/1
f 241/12/1 242/6/1 243/5/1 244/11/1
f 245/6/1 246/7/1 247/8/1 248/5/1
f 249/8/1 250/5/1 251/6/1 252/7/1
f 253/5/1 254/11/1 255/12/1 256/6/1
f 257/12/1 258/6/1 259/5/1 260/11/1
f 261/6/1 262/7/1 263/8/1 264/5/1
f 265/8/1 266/5/1 267/6/1 268/7/1
f 269/5/1 270/11/1 271/12/1 272/6/1
f 273/12/1 274/6/1 275/5/1 276/11/1
f 277/6/1 278/7/1 279/8/1 280/5/1
f 281/8/1 282/5/1 283/6/1 284/7/1
f 285/5/1 286/11/1 287/12/1 288/6/1
f 289/12/1 290/6/1 291/5/1 292/11/1
f 293/6/1 294/7/1 295/8/1 296/5/1
f 297/8/1 298/5/1 299/6/1 300/7/1
f 301/5/1 302/11/1 303/12/1 304/6/1
f 305/12/1 306/6/1 307/5/1 308/11/1
f 309/6/1 310/7/1 311/8/1 312/5/1
f 313/8/1 314/5/1 315/6/1 316/7/1
f 317/5/1 318/11/1 319/12/1 320/6/1
f 321/12/1 322/6/1 323/5/1 324/11/1
f 325/6/1 326/7/1 327/8/1 328/5/1
f 329/8/1 330/5/1 331/6/1 332/7/1
f 333/5/1 334/11/1 335/12/1 336/6/1
f 337/12/1 338/6/1 339/5/1 340/11/1
f 341/6/1 342/7/1 343/8/1 344/5/1
f 345/8/1 346/5/1 347/6/1 348/7/1
f 349/5/1 350/11/1 351/12/1 352/6/1
f 353/12/1 354/6/1 355/5/1 356/11/1
f 357/6/1 358/7/1 359/8/1 360/5/1
f 361/8/1 362/5/1 363/6/1 364/7/1
f 365/5/1 366/11/1 367/12/1 368/6/1
f 369/12/1 370/6/1 371/5/1 372/11/1
f 373/6/1 374/7/1 375/8/1 376/5/1
f 377/8/1 378/5/1 379/6/1 380/7/1
f 381/5/1 382/11/1 383/12/1 384/6/1
f 385/12/1 386/6/1 387/5/1 388/11/1
f 389/6/1 390/7/1 391/8/1 392/5/1
f 393/8/1 394/5/1 395/6/1 396/7/1
f 397/5/1 398/11/1 399/12/1 400/6/1
f 401/12/1 402/6/1 403/5/1 404/11/1
f 405/6/1 406/7/1 407/8/1 408/5/1
f 409/8/1 410/5/1 411/6/1 412/7/1
f 413/5/1 414/11/1 415/12/1 416/6/1
f 417/12/1 418/6/1 419/5/1 420/11/1
f 421/6/1 422/7/1 423/8/1 424/5/1
f 425/8/1 426/5/1 427/6/1 428/7/1
f 429/5/1 430/11/1 431/12/1 432/6/1
f 433/12/1 434/6/1 435/5/1 436/11/1
f 437/6/1 438/7/1 439/8/1 440/5/1
f 441/8/1 442/5/1 443/6/1 444/7/1
f 445/5/1 446/11/1 447/12/1 448/6/1
f 449/12/1 450/6/1 451/5/1 452/11/1
f 453/6/1 454/7/1 455/8/1 456/5/1
f 457/8/1 458/5/1 459/6/1 460/7/1
f 461/5/1 462/11/1 463/12/1 464/6/1
f 465/12/1 466/6/1 467/5/1 468/11/1
f 469/6/1 470/7/1 471/8/1 472/5/1
f 473/8/1 474/5/1 475/6/1 476/7/1
f 477/5/1 478/11/1 479/12/1 480/6/1
f 481/12/1 482/6/1 483/5/1 484/11/1
f 485/6/1 486/7/1 487/8/1 488/5/1
f 489/8/1 490/5/1 491/6/1 492/7/1
f 493/5/1 494/11/1 495/12/1 496/6/1
f 497/12/1 498/6/1 499/5/1 500/11/1
f 501/6/1 502/7/1 503/8/1 504/5/1
f 505/4/1 506/1/1 507/2/1 508/3/1
f 509/1/1 510/9/1 511/10/1 512/2/1
f 513/10/1 514/2/1 515/1/1 516/9/1
f 517/2/1 518/3/1 519/4/1 520/1/1
f 521/1/1 522/2/1 523/3/1 524/4/1
f 525/5/1 526/6/1 527/7/1 528/8/1
f 529/5/1 530/6/1 531/7/1 532/8/1
f 533/5/1 534/6/1 535/7/1 536/8/1
f 537/5/1 538/6/1 539/7/1 540/8/1
f 541/5/1 542/6/1 543/7/1 544/8/1
f 545/5/1 546/6/1 547/7/1 548/8/1
f 549/5/1 550/6/1 551/7/1 552/8/1
f 553/5/1 554/6/1 555/7/1 556/8/1
f 557/5/1 558/6/1 559/7/1 560/8/1
f 561/5/1 562/6/1 563/7/1 564/8/1
f 565/5/1 566/6/1 567/7/1 568/8/1
f 569/5/1 570/6/1 571/7/1 572/8/1
f 573/5/1 574/6/1 575/7/1 576/8/1
f 577/5/1 578/6/1 579/7/1 580/8/1
f 581/5/1 582/6/1 583/7/1 584/8/1
f 585/5/1 586/6/1 587/7/1 588/8/1
f 589/5/1 590/6/1 591/7/1 592/8/1
f 593/5/1 594/6/1 595/7/1 596/8/1
f 597/5/1 598/6/1 599/7/1 600/8/1
f 601/5/1 602/6/1 603/7/1 604/8/1
f 605/5/1 606/6/1 607/7/1 608/8/1
f 609/1/1 610/2/1 611/3/1 612/4/1
f 613/9/1 614/10/1 615/2/1 616/1/1
f 617/11/1 618/12/1 619/6/1 620/5/1
f 621/11/1 622/12/1 623/6/1 624/5/1
f 625/11/1 626/12/1 627/6/1 628/5/1
f 629/11/1 630/12/1 631/6/1 632/5/1
f 633/11/1 634/12/1 635/6/1 636/5/1
f 637/11/1 638/12/1 639/6/1 640/5/1
f 641/11/1 642/12/1 643/6/1 644/5/1
f 645/11/1 646/12/1 647/6/1 648/5/1
f 649/11/1 650/12/1 651/6/1 652/5/1
f 653/11/1 654/12/1 655/6/1 656/5/1
f 657/11/1 658/12/1 659/6/1 660/5/1
f 661/11/1 662/12/1 663/6/1 664/5/1
f 665/11/1 666/12/1 667/6/1 668/5/1
f 669/11/1 670/12/1 671/6/1 672/5/1
f 673/11/1 674/12/1 675/6/1 676/5/1
f 677/11/1 678/12/1 679/6/1 680/5/1
f 681/11/1 682/12/1 683/6/1 684/5/1
f 685/11/1 686/12/1 687/6/1 688/5/1
f 689/11/1 690/12/1 691/6/1 692/5/1
f 693/11/1 694/12/1 695/6/1 696/5/1
f 697/11/1 698/12/1 699/6/1 700/5/1
f 701/9/1 702/10/1 703/2/1 704/1/1

