# Tiled2Unity generated file. Do not modify by hand.
# Wavefront file for 'Cuarto-2_mesh_0003.obj'

# Vertices (Count = 252)
v -11 -3 0
v -12 -3 0
v -12 -2 0
v -11 -2 0
v -12 -3 0
v -13 -3 0
v -13 -2 0
v -12 -2 0
v -13 -3 0
v -14 -3 0
v -14 -2 0
v -13 -2 0
v -11 -4 0
v -12 -4 0
v -12 -3 0
v -11 -3 0
v -12 -4 0
v -13 -4 0
v -13 -3 0
v -12 -3 0
v -13 -4 0
v -14 -4 0
v -14 -3 0
v -13 -3 0
v -11 -5 0
v -12 -5 0
v -12 -4 0
v -11 -4 0
v -12 -5 0
v -13 -5 0
v -13 -4 0
v -12 -4 0
v -13 -5 0
v -14 -5 0
v -14 -4 0
v -13 -4 0
v -11 -6 0
v -12 -6 0
v -12 -5 0
v -11 -5 0
v -12 -6 0
v -13 -6 0
v -13 -5 0
v -12 -5 0
v -13 -6 0
v -14 -6 0
v -14 -5 0
v -13 -5 0
v -11 -7 0
v -12 -7 0
v -12 -6 0
v -11 -6 0
v -12 -7 0
v -13 -7 0
v -13 -6 0
v -12 -6 0
v -13 -7 0
v -14 -7 0
v -14 -6 0
v -13 -6 0
v -11 -8 0
v -12 -8 0
v -12 -7 0
v -11 -7 0
v -12 -8 0
v -13 -8 0
v -13 -7 0
v -12 -7 0
v -13 -8 0
v -14 -8 0
v -14 -7 0
v -13 -7 0
v -11 -9 0
v -12 -9 0
v -12 -8 0
v -11 -8 0
v -12 -9 0
v -13 -9 0
v -13 -8 0
v -12 -8 0
v -13 -9 0
v -14 -9 0
v -14 -8 0
v -13 -8 0
v -11 -10 0
v -12 -10 0
v -12 -9 0
v -11 -9 0
v -12 -10 0
v -13 -10 0
v -13 -9 0
v -12 -9 0
v -13 -10 0
v -14 -10 0
v -14 -9 0
v -13 -9 0
v -11 -11 0
v -12 -11 0
v -12 -10 0
v -11 -10 0
v -12 -11 0
v -13 -11 0
v -13 -10 0
v -12 -10 0
v -13 -11 0
v -14 -11 0
v -14 -10 0
v -13 -10 0
v -11 -12 0
v -12 -12 0
v -12 -11 0
v -11 -11 0
v -12 -12 0
v -13 -12 0
v -13 -11 0
v -12 -11 0
v -13 -12 0
v -14 -12 0
v -14 -11 0
v -13 -11 0
v -11 -13 0
v -12 -13 0
v -12 -12 0
v -11 -12 0
v -12 -13 0
v -13 -13 0
v -13 -12 0
v -12 -12 0
v -13 -13 0
v -14 -13 0
v -14 -12 0
v -13 -12 0
v -11 -14 0
v -12 -14 0
v -12 -13 0
v -11 -13 0
v -12 -14 0
v -13 -14 0
v -13 -13 0
v -12 -13 0
v -13 -14 0
v -14 -14 0
v -14 -13 0
v -13 -13 0
v -11 -15 0
v -12 -15 0
v -12 -14 0
v -11 -14 0
v -12 -15 0
v -13 -15 0
v -13 -14 0
v -12 -14 0
v -13 -15 0
v -14 -15 0
v -14 -14 0
v -13 -14 0
v -11 -16 0
v -12 -16 0
v -12 -15 0
v -11 -15 0
v -12 -16 0
v -13 -16 0
v -13 -15 0
v -12 -15 0
v -13 -16 0
v -14 -16 0
v -14 -15 0
v -13 -15 0
v -11 -17 0
v -12 -17 0
v -12 -16 0
v -11 -16 0
v -12 -17 0
v -13 -17 0
v -13 -16 0
v -12 -16 0
v -13 -17 0
v -14 -17 0
v -14 -16 0
v -13 -16 0
v -11 -18 0
v -12 -18 0
v -12 -17 0
v -11 -17 0
v -12 -18 0
v -13 -18 0
v -13 -17 0
v -12 -17 0
v -13 -18 0
v -14 -18 0
v -14 -17 0
v -13 -17 0
v -11 -19 0
v -12 -19 0
v -12 -18 0
v -11 -18 0
v -12 -19 0
v -13 -19 0
v -13 -18 0
v -12 -18 0
v -13 -19 0
v -14 -19 0
v -14 -18 0
v -13 -18 0
v -11 -20 0
v -12 -20 0
v -12 -19 0
v -11 -19 0
v -12 -20 0
v -13 -20 0
v -13 -19 0
v -12 -19 0
v -13 -20 0
v -14 -20 0
v -14 -19 0
v -13 -19 0
v -11 -21 0
v -12 -21 0
v -12 -20 0
v -11 -20 0
v -12 -21 0
v -13 -21 0
v -13 -20 0
v -12 -20 0
v -13 -21 0
v -14 -21 0
v -14 -20 0
v -13 -20 0
v -11 -22 0
v -12 -22 0
v -12 -21 0
v -11 -21 0
v -12 -22 0
v -13 -22 0
v -13 -21 0
v -12 -21 0
v -13 -22 0
v -14 -22 0
v -14 -21 0
v -13 -21 0
v -11 -23 0
v -12 -23 0
v -12 -22 0
v -11 -22 0
v -12 -23 0
v -13 -23 0
v -13 -22 0
v -12 -22 0
v -13 -23 0
v -14 -23 0
v -14 -22 0
v -13 -22 0

# Texture cooridinates (Count = 12)
vt 0.075 0.64
vt 0.05 0.64
vt 0.05 0.6
vt 0.075 0.6
vt 0.025 0.64
vt 0.025 0.6
vt 0 0.64
vt 0 0.6
vt 0.075 0.68
vt 0.05 0.68
vt 0.025 0.68
vt 0 0.68

# Normal
vn 0 0 -1

# Mesh description
g Cuarto-2_mesh_0003

# Faces
f 1/1/1 2/2/1 3/3/1 4/4/1
f 5/2/1 6/5/1 7/6/1 8/3/1
f 9/5/1 10/7/1 11/8/1 12/6/1
f 13/9/1 14/10/1 15/2/1 16/1/1
f 17/10/1 18/11/1 19/5/1 20/2/1
f 21/11/1 22/12/1 23/7/1 24/5/1
f 25/9/1 26/10/1 27/2/1 28/1/1
f 29/10/1 30/11/1 31/5/1 32/2/1
f 33/11/1 34/12/1 35/7/1 36/5/1
f 37/7/1 38/5/1 39/11/1 40/12/1
f 41/5/1 42/2/1 43/10/1 44/11/1
f 45/2/1 46/1/1 47/9/1 48/10/1
f 49/7/1 50/5/1 51/11/1 52/12/1
f 53/5/1 54/2/1 55/10/1 56/11/1
f 57/2/1 58/1/1 59/9/1 60/10/1
f 61/7/1 62/5/1 63/11/1 64/12/1
f 65/5/1 66/2/1 67/10/1 68/11/1
f 69/2/1 70/1/1 71/9/1 72/10/1
f 73/7/1 74/5/1 75/11/1 76/12/1
f 77/5/1 78/2/1 79/10/1 80/11/1
f 81/2/1 82/1/1 83/9/1 84/10/1
f 85/7/1 86/5/1 87/11/1 88/12/1
f 89/5/1 90/2/1 91/10/1 92/11/1
f 93/2/1 94/1/1 95/9/1 96/10/1
f 97/7/1 98/5/1 99/11/1 100/12/1
f 101/5/1 102/2/1 103/10/1 104/11/1
f 105/2/1 106/1/1 107/9/1 108/10/1
f 109/7/1 110/5/1 111/11/1 112/12/1
f 113/5/1 114/2/1 115/10/1 116/11/1
f 117/2/1 118/1/1 119/9/1 120/10/1
f 121/7/1 122/5/1 123/11/1 124/12/1
f 125/5/1 126/2/1 127/10/1 128/11/1
f 129/2/1 130/1/1 131/9/1 132/10/1
f 133/7/1 134/5/1 135/11/1 136/12/1
f 137/5/1 138/2/1 139/10/1 140/11/1
f 141/2/1 142/1/1 143/9/1 144/10/1
f 145/7/1 146/5/1 147/11/1 148/12/1
f 149/5/1 150/2/1 151/10/1 152/11/1
f 153/2/1 154/1/1 155/9/1 156/10/1
f 157/7/1 158/5/1 159/11/1 160/12/1
f 161/5/1 162/2/1 163/10/1 164/11/1
f 165/2/1 166/1/1 167/9/1 168/10/1
f 169/7/1 170/5/1 171/11/1 172/12/1
f 173/5/1 174/2/1 175/10/1 176/11/1
f 177/2/1 178/1/1 179/9/1 180/10/1
f 181/7/1 182/5/1 183/11/1 184/12/1
f 185/5/1 186/2/1 187/10/1 188/11/1
f 189/2/1 190/1/1 191/9/1 192/10/1
f 193/7/1 194/5/1 195/11/1 196/12/1
f 197/5/1 198/2/1 199/10/1 200/11/1
f 201/2/1 202/1/1 203/9/1 204/10/1
f 205/7/1 206/5/1 207/11/1 208/12/1
f 209/5/1 210/2/1 211/10/1 212/11/1
f 213/2/1 214/1/1 215/9/1 216/10/1
f 217/7/1 218/5/1 219/11/1 220/12/1
f 221/5/1 222/2/1 223/10/1 224/11/1
f 225/2/1 226/1/1 227/9/1 228/10/1
f 229/7/1 230/5/1 231/11/1 232/12/1
f 233/5/1 234/2/1 235/10/1 236/11/1
f 237/2/1 238/1/1 239/9/1 240/10/1
f 241/8/1 242/6/1 243/5/1 244/7/1
f 245/6/1 246/3/1 247/2/1 248/5/1
f 249/3/1 250/4/1 251/1/1 252/2/1

