# Tiled2Unity generated file. Do not modify by hand.
# Wavefront file for 'Cueva-2fb_mesh_0010.obj'

# Vertices (Count = 912)
v -1 -1 0
v -2 -1 0
v -2 0 0
v -1 0 0
v -2 -1 0
v -3 -1 0
v -3 0 0
v -2 0 0
v -3 -1 0
v -4 -1 0
v -4 0 0
v -3 0 0
v -4 -1 0
v -5 -1 0
v -5 0 0
v -4 0 0
v -5 -1 0
v -6 -1 0
v -6 0 0
v -5 0 0
v -6 -1 0
v -7 -1 0
v -7 0 0
v -6 0 0
v -7 -1 0
v -8 -1 0
v -8 0 0
v -7 0 0
v -8 -1 0
v -9 -1 0
v -9 0 0
v -8 0 0
v -9 -1 0
v -10 -1 0
v -10 0 0
v -9 0 0
v -10 -1 0
v -11 -1 0
v -11 0 0
v -10 0 0
v -11 -1 0
v -12 -1 0
v -12 0 0
v -11 0 0
v -12 -1 0
v -13 -1 0
v -13 0 0
v -12 0 0
v -13 -1 0
v -14 -1 0
v -14 0 0
v -13 0 0
v -14 -1 0
v -15 -1 0
v -15 0 0
v -14 0 0
v -15 -1 0
v -16 -1 0
v -16 0 0
v -15 0 0
v -16 -1 0
v -17 -1 0
v -17 0 0
v -16 0 0
v -17 -1 0
v -18 -1 0
v -18 0 0
v -17 0 0
v -18 -1 0
v -19 -1 0
v -19 0 0
v -18 0 0
v -19 -1 0
v -20 -1 0
v -20 0 0
v -19 0 0
v -20 -1 0
v -21 -1 0
v -21 0 0
v -20 0 0
v -21 -1 0
v -22 -1 0
v -22 0 0
v -21 0 0
v -22 -1 0
v -23 -1 0
v -23 0 0
v -22 0 0
v -23 -1 0
v -24 -1 0
v -24 0 0
v -23 0 0
v 0 -2 0
v -1 -2 0
v -1 -1 0
v 0 -1 0
v -1 -2 0
v -2 -2 0
v -2 -1 0
v -1 -1 0
v -2 -2 0
v -3 -2 0
v -3 -1 0
v -2 -1 0
v -3 -2 0
v -4 -2 0
v -4 -1 0
v -3 -1 0
v -4 -2 0
v -5 -2 0
v -5 -1 0
v -4 -1 0
v -5 -2 0
v -6 -2 0
v -6 -1 0
v -5 -1 0
v -6 -2 0
v -7 -2 0
v -7 -1 0
v -6 -1 0
v -7 -2 0
v -8 -2 0
v -8 -1 0
v -7 -1 0
v -8 -2 0
v -9 -2 0
v -9 -1 0
v -8 -1 0
v -9 -2 0
v -10 -2 0
v -10 -1 0
v -9 -1 0
v -10 -2 0
v -11 -2 0
v -11 -1 0
v -10 -1 0
v -11 -2 0
v -12 -2 0
v -12 -1 0
v -11 -1 0
v -12 -2 0
v -13 -2 0
v -13 -1 0
v -12 -1 0
v -13 -2 0
v -14 -2 0
v -14 -1 0
v -13 -1 0
v -14 -2 0
v -15 -2 0
v -15 -1 0
v -14 -1 0
v -15 -2 0
v -16 -2 0
v -16 -1 0
v -15 -1 0
v -16 -2 0
v -17 -2 0
v -17 -1 0
v -16 -1 0
v -17 -2 0
v -18 -2 0
v -18 -1 0
v -17 -1 0
v -18 -2 0
v -19 -2 0
v -19 -1 0
v -18 -1 0
v -19 -2 0
v -20 -2 0
v -20 -1 0
v -19 -1 0
v -20 -2 0
v -21 -2 0
v -21 -1 0
v -20 -1 0
v -21 -2 0
v -22 -2 0
v -22 -1 0
v -21 -1 0
v -22 -2 0
v -23 -2 0
v -23 -1 0
v -22 -1 0
v -23 -2 0
v -24 -2 0
v -24 -1 0
v -23 -1 0
v -24 -2 0
v -25 -2 0
v -25 -1 0
v -24 -1 0
v 0 -3 0
v -1 -3 0
v -1 -2 0
v 0 -2 0
v -1 -3 0
v -2 -3 0
v -2 -2 0
v -1 -2 0
v -23 -3 0
v -24 -3 0
v -24 -2 0
v -23 -2 0
v -24 -3 0
v -25 -3 0
v -25 -2 0
v -24 -2 0
v 0 -4 0
v -1 -4 0
v -1 -3 0
v 0 -3 0
v -1 -4 0
v -2 -4 0
v -2 -3 0
v -1 -3 0
v -6 -4 0
v -7 -4 0
v -7 -3 0
v -6 -3 0
v -7 -4 0
v -8 -4 0
v -8 -3 0
v -7 -3 0
v -23 -4 0
v -24 -4 0
v -24 -3 0
v -23 -3 0
v -24 -4 0
v -25 -4 0
v -25 -3 0
v -24 -3 0
v 0 -5 0
v -1 -5 0
v -1 -4 0
v 0 -4 0
v -1 -5 0
v -2 -5 0
v -2 -4 0
v -1 -4 0
v -6 -5 0
v -7 -5 0
v -7 -4 0
v -6 -4 0
v -7 -5 0
v -8 -5 0
v -8 -4 0
v -7 -4 0
v -23 -5 0
v -24 -5 0
v -24 -4 0
v -23 -4 0
v -24 -5 0
v -25 -5 0
v -25 -4 0
v -24 -4 0
v 0 -6 0
v -1 -6 0
v -1 -5 0
v 0 -5 0
v -1 -6 0
v -2 -6 0
v -2 -5 0
v -1 -5 0
v -23 -6 0
v -24 -6 0
v -24 -5 0
v -23 -5 0
v -24 -6 0
v -25 -6 0
v -25 -5 0
v -24 -5 0
v 0 -7 0
v -1 -7 0
v -1 -6 0
v 0 -6 0
v -1 -7 0
v -2 -7 0
v -2 -6 0
v -1 -6 0
v -23 -7 0
v -24 -7 0
v -24 -6 0
v -23 -6 0
v -24 -7 0
v -25 -7 0
v -25 -6 0
v -24 -6 0
v 0 -8 0
v -1 -8 0
v -1 -7 0
v 0 -7 0
v -1 -8 0
v -2 -8 0
v -2 -7 0
v -1 -7 0
v -23 -8 0
v -24 -8 0
v -24 -7 0
v -23 -7 0
v -24 -8 0
v -25 -8 0
v -25 -7 0
v -24 -7 0
v 0 -9 0
v -1 -9 0
v -1 -8 0
v 0 -8 0
v -1 -9 0
v -2 -9 0
v -2 -8 0
v -1 -8 0
v -23 -9 0
v -24 -9 0
v -24 -8 0
v -23 -8 0
v -24 -9 0
v -25 -9 0
v -25 -8 0
v -24 -8 0
v 0 -10 0
v -1 -10 0
v -1 -9 0
v 0 -9 0
v -1 -10 0
v -2 -10 0
v -2 -9 0
v -1 -9 0
v -6 -10 0
v -7 -10 0
v -7 -9 0
v -6 -9 0
v -7 -10 0
v -8 -10 0
v -8 -9 0
v -7 -9 0
v -18 -10 0
v -19 -10 0
v -19 -9 0
v -18 -9 0
v -19 -10 0
v -20 -10 0
v -20 -9 0
v -19 -9 0
v -23 -10 0
v -24 -10 0
v -24 -9 0
v -23 -9 0
v -24 -10 0
v -25 -10 0
v -25 -9 0
v -24 -9 0
v 0 -11 0
v -1 -11 0
v -1 -10 0
v 0 -10 0
v -1 -11 0
v -2 -11 0
v -2 -10 0
v -1 -10 0
v -6 -11 0
v -7 -11 0
v -7 -10 0
v -6 -10 0
v -7 -11 0
v -8 -11 0
v -8 -10 0
v -7 -10 0
v -18 -11 0
v -19 -11 0
v -19 -10 0
v -18 -10 0
v -19 -11 0
v -20 -11 0
v -20 -10 0
v -19 -10 0
v -23 -11 0
v -24 -11 0
v -24 -10 0
v -23 -10 0
v -24 -11 0
v -25 -11 0
v -25 -10 0
v -24 -10 0
v 0 -12 0
v -1 -12 0
v -1 -11 0
v 0 -11 0
v -1 -12 0
v -2 -12 0
v -2 -11 0
v -1 -11 0
v -6 -12 0
v -7 -12 0
v -7 -11 0
v -6 -11 0
v -7 -12 0
v -8 -12 0
v -8 -11 0
v -7 -11 0
v -23 -12 0
v -24 -12 0
v -24 -11 0
v -23 -11 0
v -24 -12 0
v -25 -12 0
v -25 -11 0
v -24 -11 0
v 0 -13 0
v -1 -13 0
v -1 -12 0
v 0 -12 0
v -1 -13 0
v -2 -13 0
v -2 -12 0
v -1 -12 0
v -6 -13 0
v -7 -13 0
v -7 -12 0
v -6 -12 0
v -7 -13 0
v -8 -13 0
v -8 -12 0
v -7 -12 0
v -18 -13 0
v -19 -13 0
v -19 -12 0
v -18 -12 0
v -19 -13 0
v -20 -13 0
v -20 -12 0
v -19 -12 0
v -23 -13 0
v -24 -13 0
v -24 -12 0
v -23 -12 0
v -24 -13 0
v -25 -13 0
v -25 -12 0
v -24 -12 0
v 0 -14 0
v -1 -14 0
v -1 -13 0
v 0 -13 0
v -1 -14 0
v -2 -14 0
v -2 -13 0
v -1 -13 0
v -18 -14 0
v -19 -14 0
v -19 -13 0
v -18 -13 0
v -19 -14 0
v -20 -14 0
v -20 -13 0
v -19 -13 0
v -23 -14 0
v -24 -14 0
v -24 -13 0
v -23 -13 0
v -24 -14 0
v -25 -14 0
v -25 -13 0
v -24 -13 0
v 0 -15 0
v -1 -15 0
v -1 -14 0
v 0 -14 0
v -1 -15 0
v -2 -15 0
v -2 -14 0
v -1 -14 0
v -6 -15 0
v -7 -15 0
v -7 -14 0
v -6 -14 0
v -7 -15 0
v -8 -15 0
v -8 -14 0
v -7 -14 0
v -18 -15 0
v -19 -15 0
v -19 -14 0
v -18 -14 0
v -19 -15 0
v -20 -15 0
v -20 -14 0
v -19 -14 0
v -23 -15 0
v -24 -15 0
v -24 -14 0
v -23 -14 0
v -24 -15 0
v -25 -15 0
v -25 -14 0
v -24 -14 0
v 0 -16 0
v -1 -16 0
v -1 -15 0
v 0 -15 0
v -1 -16 0
v -2 -16 0
v -2 -15 0
v -1 -15 0
v -6 -16 0
v -7 -16 0
v -7 -15 0
v -6 -15 0
v -7 -16 0
v -8 -16 0
v -8 -15 0
v -7 -15 0
v -18 -16 0
v -19 -16 0
v -19 -15 0
v -18 -15 0
v -19 -16 0
v -20 -16 0
v -20 -15 0
v -19 -15 0
v -23 -16 0
v -24 -16 0
v -24 -15 0
v -23 -15 0
v -24 -16 0
v -25 -16 0
v -25 -15 0
v -24 -15 0
v 0 -17 0
v -1 -17 0
v -1 -16 0
v 0 -16 0
v -1 -17 0
v -2 -17 0
v -2 -16 0
v -1 -16 0
v -7 -17 0
v -8 -17 0
v -8 -16 0
v -7 -16 0
v -8 -17 0
v -9 -17 0
v -9 -16 0
v -8 -16 0
v -19 -17 0
v -20 -17 0
v -20 -16 0
v -19 -16 0
v -20 -17 0
v -21 -17 0
v -21 -16 0
v -20 -16 0
v -23 -17 0
v -24 -17 0
v -24 -16 0
v -23 -16 0
v -24 -17 0
v -25 -17 0
v -25 -16 0
v -24 -16 0
v 0 -18 0
v -1 -18 0
v -1 -17 0
v 0 -17 0
v -1 -18 0
v -2 -18 0
v -2 -17 0
v -1 -17 0
v -7 -18 0
v -8 -18 0
v -8 -17 0
v -7 -17 0
v -8 -18 0
v -9 -18 0
v -9 -17 0
v -8 -17 0
v -17 -18 0
v -18 -18 0
v -18 -17 0
v -17 -17 0
v -18 -18 0
v -19 -18 0
v -19 -17 0
v -18 -17 0
v -19 -18 0
v -20 -18 0
v -20 -17 0
v -19 -17 0
v -20 -18 0
v -21 -18 0
v -21 -17 0
v -20 -17 0
v -23 -18 0
v -24 -18 0
v -24 -17 0
v -23 -17 0
v -24 -18 0
v -25 -18 0
v -25 -17 0
v -24 -17 0
v 0 -19 0
v -1 -19 0
v -1 -18 0
v 0 -18 0
v -1 -19 0
v -2 -19 0
v -2 -18 0
v -1 -18 0
v -17 -19 0
v -18 -19 0
v -18 -18 0
v -17 -18 0
v -18 -19 0
v -19 -19 0
v -19 -18 0
v -18 -18 0
v -23 -19 0
v -24 -19 0
v -24 -18 0
v -23 -18 0
v -24 -19 0
v -25 -19 0
v -25 -18 0
v -24 -18 0
v 0 -20 0
v -1 -20 0
v -1 -19 0
v 0 -19 0
v -1 -20 0
v -2 -20 0
v -2 -19 0
v -1 -19 0
v -16 -20 0
v -17 -20 0
v -17 -19 0
v -16 -19 0
v -17 -20 0
v -18 -20 0
v -18 -19 0
v -17 -19 0
v -23 -20 0
v -24 -20 0
v -24 -19 0
v -23 -19 0
v -24 -20 0
v -25 -20 0
v -25 -19 0
v -24 -19 0
v 0 -21 0
v -1 -21 0
v -1 -20 0
v 0 -20 0
v -1 -21 0
v -2 -21 0
v -2 -20 0
v -1 -20 0
v -16 -21 0
v -17 -21 0
v -17 -20 0
v -16 -20 0
v -17 -21 0
v -18 -21 0
v -18 -20 0
v -17 -20 0
v -23 -21 0
v -24 -21 0
v -24 -20 0
v -23 -20 0
v -24 -21 0
v -25 -21 0
v -25 -20 0
v -24 -20 0
v 0 -22 0
v -1 -22 0
v -1 -21 0
v 0 -21 0
v -1 -22 0
v -2 -22 0
v -2 -21 0
v -1 -21 0
v -14 -22 0
v -15 -22 0
v -15 -21 0
v -14 -21 0
v -15 -22 0
v -16 -22 0
v -16 -21 0
v -15 -21 0
v -23 -22 0
v -24 -22 0
v -24 -21 0
v -23 -21 0
v -24 -22 0
v -25 -22 0
v -25 -21 0
v -24 -21 0
v 0 -23 0
v -1 -23 0
v -1 -22 0
v 0 -22 0
v -1 -23 0
v -2 -23 0
v -2 -22 0
v -1 -22 0
v -14 -23 0
v -15 -23 0
v -15 -22 0
v -14 -22 0
v -15 -23 0
v -16 -23 0
v -16 -22 0
v -15 -22 0
v -23 -23 0
v -24 -23 0
v -24 -22 0
v -23 -22 0
v -24 -23 0
v -25 -23 0
v -25 -22 0
v -24 -22 0
v 0 -24 0
v -1 -24 0
v -1 -23 0
v 0 -23 0
v -1 -24 0
v -2 -24 0
v -2 -23 0
v -1 -23 0
v -2 -24 0
v -3 -24 0
v -3 -23 0
v -2 -23 0
v -3 -24 0
v -4 -24 0
v -4 -23 0
v -3 -23 0
v -4 -24 0
v -5 -24 0
v -5 -23 0
v -4 -23 0
v -5 -24 0
v -6 -24 0
v -6 -23 0
v -5 -23 0
v -6 -24 0
v -7 -24 0
v -7 -23 0
v -6 -23 0
v -7 -24 0
v -8 -24 0
v -8 -23 0
v -7 -23 0
v -8 -24 0
v -9 -24 0
v -9 -23 0
v -8 -23 0
v -9 -24 0
v -10 -24 0
v -10 -23 0
v -9 -23 0
v -10 -24 0
v -11 -24 0
v -11 -23 0
v -10 -23 0
v -11 -24 0
v -12 -24 0
v -12 -23 0
v -11 -23 0
v -12 -24 0
v -13 -24 0
v -13 -23 0
v -12 -23 0
v -13 -24 0
v -14 -24 0
v -14 -23 0
v -13 -23 0
v -14 -24 0
v -15 -24 0
v -15 -23 0
v -14 -23 0
v -15 -24 0
v -16 -24 0
v -16 -23 0
v -15 -23 0
v -16 -24 0
v -17 -24 0
v -17 -23 0
v -16 -23 0
v -17 -24 0
v -18 -24 0
v -18 -23 0
v -17 -23 0
v -18 -24 0
v -19 -24 0
v -19 -23 0
v -18 -23 0
v -19 -24 0
v -20 -24 0
v -20 -23 0
v -19 -23 0
v -20 -24 0
v -21 -24 0
v -21 -23 0
v -20 -23 0
v -21 -24 0
v -22 -24 0
v -22 -23 0
v -21 -23 0
v -22 -24 0
v -23 -24 0
v -23 -23 0
v -22 -23 0
v -23 -24 0
v -24 -24 0
v -24 -23 0
v -23 -23 0
v -24 -24 0
v -25 -24 0
v -25 -23 0
v -24 -23 0
v -1 -25 0
v -2 -25 0
v -2 -24 0
v -1 -24 0
v -2 -25 0
v -3 -25 0
v -3 -24 0
v -2 -24 0
v -3 -25 0
v -4 -25 0
v -4 -24 0
v -3 -24 0
v -4 -25 0
v -5 -25 0
v -5 -24 0
v -4 -24 0
v -5 -25 0
v -6 -25 0
v -6 -24 0
v -5 -24 0
v -6 -25 0
v -7 -25 0
v -7 -24 0
v -6 -24 0
v -7 -25 0
v -8 -25 0
v -8 -24 0
v -7 -24 0
v -8 -25 0
v -9 -25 0
v -9 -24 0
v -8 -24 0
v -9 -25 0
v -10 -25 0
v -10 -24 0
v -9 -24 0
v -10 -25 0
v -11 -25 0
v -11 -24 0
v -10 -24 0
v -11 -25 0
v -12 -25 0
v -12 -24 0
v -11 -24 0
v -12 -25 0
v -13 -25 0
v -13 -24 0
v -12 -24 0
v -13 -25 0
v -14 -25 0
v -14 -24 0
v -13 -24 0
v -14 -25 0
v -15 -25 0
v -15 -24 0
v -14 -24 0
v -15 -25 0
v -16 -25 0
v -16 -24 0
v -15 -24 0
v -16 -25 0
v -17 -25 0
v -17 -24 0
v -16 -24 0
v -17 -25 0
v -18 -25 0
v -18 -24 0
v -17 -24 0
v -18 -25 0
v -19 -25 0
v -19 -24 0
v -18 -24 0
v -19 -25 0
v -20 -25 0
v -20 -24 0
v -19 -24 0
v -20 -25 0
v -21 -25 0
v -21 -24 0
v -20 -24 0
v -21 -25 0
v -22 -25 0
v -22 -24 0
v -21 -24 0
v -22 -25 0
v -23 -25 0
v -23 -24 0
v -22 -24 0
v -23 -25 0
v -24 -25 0
v -24 -24 0
v -23 -24 0

# Texture cooridinates (Count = 22)
vt 0.15 0.76
vt 0.175 0.76
vt 0.175 0.8
vt 0.15 0.8
vt 0.15 0.72
vt 0.175 0.72
vt 0.075 0.68
vt 0.1 0.68
vt 0.1 0.72
vt 0.075 0.72
vt 0.125 0.68
vt 0.125 0.72
vt 0.075 0.64
vt 0.1 0.64
vt 0.125 0.64
vt 0.25 0.76
vt 0.25 0.72
vt 0.275 0.72
vt 0.275 0.76
vt 0.075 0.6
vt 0.1 0.6
vt 0.125 0.6

# Normal
vn 0 0 -1

# Mesh description
g Cueva-2fb_mesh_0010

# Faces
f 1/1/1 2/2/1 3/3/1 4/4/1
f 5/1/1 6/2/1 7/3/1 8/4/1
f 9/1/1 10/2/1 11/3/1 12/4/1
f 13/1/1 14/2/1 15/3/1 16/4/1
f 17/1/1 18/2/1 19/3/1 20/4/1
f 21/1/1 22/2/1 23/3/1 24/4/1
f 25/1/1 26/2/1 27/3/1 28/4/1
f 29/1/1 30/2/1 31/3/1 32/4/1
f 33/1/1 34/2/1 35/3/1 36/4/1
f 37/1/1 38/2/1 39/3/1 40/4/1
f 41/1/1 42/2/1 43/3/1 44/4/1
f 45/1/1 46/2/1 47/3/1 48/4/1
f 49/1/1 50/2/1 51/3/1 52/4/1
f 53/1/1 54/2/1 55/3/1 56/4/1
f 57/1/1 58/2/1 59/3/1 60/4/1
f 61/1/1 62/2/1 63/3/1 64/4/1
f 65/1/1 66/2/1 67/3/1 68/4/1
f 69/1/1 70/2/1 71/3/1 72/4/1
f 73/1/1 74/2/1 75/3/1 76/4/1
f 77/1/1 78/2/1 79/3/1 80/4/1
f 81/1/1 82/2/1 83/3/1 84/4/1
f 85/1/1 86/2/1 87/3/1 88/4/1
f 89/1/1 90/2/1 91/3/1 92/4/1
f 93/4/1 94/1/1 95/2/1 96/3/1
f 97/5/1 98/6/1 99/2/1 100/1/1
f 101/5/1 102/6/1 103/2/1 104/1/1
f 105/5/1 106/6/1 107/2/1 108/1/1
f 109/5/1 110/6/1 111/2/1 112/1/1
f 113/5/1 114/6/1 115/2/1 116/1/1
f 117/5/1 118/6/1 119/2/1 120/1/1
f 121/5/1 122/6/1 123/2/1 124/1/1
f 125/5/1 126/6/1 127/2/1 128/1/1
f 129/5/1 130/6/1 131/2/1 132/1/1
f 133/5/1 134/6/1 135/2/1 136/1/1
f 137/5/1 138/6/1 139/2/1 140/1/1
f 141/5/1 142/6/1 143/2/1 144/1/1
f 145/5/1 146/6/1 147/2/1 148/1/1
f 149/5/1 150/6/1 151/2/1 152/1/1
f 153/5/1 154/6/1 155/2/1 156/1/1
f 157/5/1 158/6/1 159/2/1 160/1/1
f 161/5/1 162/6/1 163/2/1 164/1/1
f 165/5/1 166/6/1 167/2/1 168/1/1
f 169/5/1 170/6/1 171/2/1 172/1/1
f 173/5/1 174/6/1 175/2/1 176/1/1
f 177/5/1 178/6/1 179/2/1 180/1/1
f 181/5/1 182/6/1 183/2/1 184/1/1
f 185/5/1 186/6/1 187/2/1 188/1/1
f 189/2/1 190/3/1 191/4/1 192/1/1
f 193/4/1 194/1/1 195/2/1 196/3/1
f 197/1/1 198/5/1 199/6/1 200/2/1
f 201/6/1 202/2/1 203/1/1 204/5/1
f 205/2/1 206/3/1 207/4/1 208/1/1
f 209/4/1 210/1/1 211/2/1 212/3/1
f 213/1/1 214/5/1 215/6/1 216/2/1
f 217/7/1 218/8/1 219/9/1 220/10/1
f 221/8/1 222/11/1 223/12/1 224/9/1
f 225/6/1 226/2/1 227/1/1 228/5/1
f 229/2/1 230/3/1 231/4/1 232/1/1
f 233/4/1 234/1/1 235/2/1 236/3/1
f 237/1/1 238/5/1 239/6/1 240/2/1
f 241/13/1 242/14/1 243/8/1 244/7/1
f 245/14/1 246/15/1 247/11/1 248/8/1
f 249/6/1 250/2/1 251/1/1 252/5/1
f 253/2/1 254/3/1 255/4/1 256/1/1
f 257/4/1 258/1/1 259/2/1 260/3/1
f 261/16/1 262/17/1 263/18/1 264/19/1
f 265/6/1 266/2/1 267/1/1 268/5/1
f 269/2/1 270/3/1 271/4/1 272/1/1
f 273/4/1 274/1/1 275/2/1 276/3/1
f 277/1/1 278/5/1 279/6/1 280/2/1
f 281/6/1 282/2/1 283/1/1 284/5/1
f 285/2/1 286/3/1 287/4/1 288/1/1
f 289/4/1 290/1/1 291/2/1 292/3/1
f 293/1/1 294/5/1 295/6/1 296/2/1
f 297/6/1 298/2/1 299/1/1 300/5/1
f 301/2/1 302/3/1 303/4/1 304/1/1
f 305/4/1 306/1/1 307/2/1 308/3/1
f 309/1/1 310/5/1 311/6/1 312/2/1
f 313/6/1 314/2/1 315/1/1 316/5/1
f 317/2/1 318/3/1 319/4/1 320/1/1
f 321/4/1 322/1/1 323/2/1 324/3/1
f 325/1/1 326/5/1 327/6/1 328/2/1
f 329/7/1 330/8/1 331/9/1 332/10/1
f 333/8/1 334/11/1 335/12/1 336/9/1
f 337/7/1 338/8/1 339/9/1 340/10/1
f 341/8/1 342/11/1 343/12/1 344/9/1
f 345/6/1 346/2/1 347/1/1 348/5/1
f 349/2/1 350/3/1 351/4/1 352/1/1
f 353/4/1 354/1/1 355/2/1 356/3/1
f 357/1/1 358/5/1 359/6/1 360/2/1
f 361/13/1 362/14/1 363/8/1 364/7/1
f 365/14/1 366/15/1 367/11/1 368/8/1
f 369/13/1 370/14/1 371/8/1 372/7/1
f 373/20/1 374/21/1 375/14/1 376/13/1
f 377/6/1 378/2/1 379/1/1 380/5/1
f 381/2/1 382/3/1 383/4/1 384/1/1
f 385/4/1 386/1/1 387/2/1 388/3/1
f 389/1/1 390/5/1 391/6/1 392/2/1
f 393/7/1 394/8/1 395/9/1 396/10/1
f 397/8/1 398/11/1 399/12/1 400/9/1
f 401/6/1 402/2/1 403/1/1 404/5/1
f 405/2/1 406/3/1 407/4/1 408/1/1
f 409/4/1 410/1/1 411/2/1 412/3/1
f 413/1/1 414/5/1 415/6/1 416/2/1
f 417/13/1 418/14/1 419/8/1 420/7/1
f 421/14/1 422/15/1 423/11/1 424/8/1
f 425/7/1 426/8/1 427/9/1 428/10/1
f 429/21/1 430/22/1 431/15/1 432/14/1
f 433/6/1 434/2/1 435/1/1 436/5/1
f 437/2/1 438/3/1 439/4/1 440/1/1
f 441/4/1 442/1/1 443/2/1 444/3/1
f 445/1/1 446/5/1 447/6/1 448/2/1
f 449/13/1 450/14/1 451/8/1 452/7/1
f 453/14/1 454/15/1 455/11/1 456/8/1
f 457/6/1 458/2/1 459/1/1 460/5/1
f 461/2/1 462/3/1 463/4/1 464/1/1
f 465/4/1 466/1/1 467/2/1 468/3/1
f 469/1/1 470/5/1 471/6/1 472/2/1
f 473/7/1 474/8/1 475/9/1 476/10/1
f 477/8/1 478/11/1 479/12/1 480/9/1
f 481/7/1 482/8/1 483/9/1 484/10/1
f 485/8/1 486/11/1 487/12/1 488/9/1
f 489/6/1 490/2/1 491/1/1 492/5/1
f 493/2/1 494/3/1 495/4/1 496/1/1
f 497/4/1 498/1/1 499/2/1 500/3/1
f 501/1/1 502/5/1 503/6/1 504/2/1
f 505/13/1 506/14/1 507/8/1 508/7/1
f 509/14/1 510/15/1 511/11/1 512/8/1
f 513/13/1 514/14/1 515/8/1 516/7/1
f 517/14/1 518/15/1 519/11/1 520/8/1
f 521/6/1 522/2/1 523/1/1 524/5/1
f 525/2/1 526/3/1 527/4/1 528/1/1
f 529/4/1 530/1/1 531/2/1 532/3/1
f 533/1/1 534/5/1 535/6/1 536/2/1
f 537/7/1 538/8/1 539/9/1 540/10/1
f 541/8/1 542/11/1 543/12/1 544/9/1
f 545/7/1 546/8/1 547/9/1 548/10/1
f 549/8/1 550/11/1 551/12/1 552/9/1
f 553/6/1 554/2/1 555/1/1 556/5/1
f 557/2/1 558/3/1 559/4/1 560/1/1
f 561/4/1 562/1/1 563/2/1 564/3/1
f 565/1/1 566/5/1 567/6/1 568/2/1
f 569/13/1 570/14/1 571/8/1 572/7/1
f 573/14/1 574/15/1 575/11/1 576/8/1
f 577/7/1 578/8/1 579/9/1 580/10/1
f 581/8/1 582/11/1 583/12/1 584/9/1
f 585/13/1 586/14/1 587/8/1 588/7/1
f 589/14/1 590/15/1 591/11/1 592/8/1
f 593/6/1 594/2/1 595/1/1 596/5/1
f 597/2/1 598/3/1 599/4/1 600/1/1
f 601/4/1 602/1/1 603/2/1 604/3/1
f 605/1/1 606/5/1 607/6/1 608/2/1
f 609/13/1 610/14/1 611/8/1 612/7/1
f 613/14/1 614/15/1 615/11/1 616/8/1
f 617/6/1 618/2/1 619/1/1 620/5/1
f 621/2/1 622/3/1 623/4/1 624/1/1
f 625/4/1 626/1/1 627/2/1 628/3/1
f 629/1/1 630/5/1 631/6/1 632/2/1
f 633/7/1 634/8/1 635/9/1 636/10/1
f 637/8/1 638/11/1 639/12/1 640/9/1
f 641/6/1 642/2/1 643/1/1 644/5/1
f 645/2/1 646/3/1 647/4/1 648/1/1
f 649/4/1 650/1/1 651/2/1 652/3/1
f 653/1/1 654/5/1 655/6/1 656/2/1
f 657/13/1 658/14/1 659/8/1 660/7/1
f 661/14/1 662/15/1 663/11/1 664/8/1
f 665/6/1 666/2/1 667/1/1 668/5/1
f 669/2/1 670/3/1 671/4/1 672/1/1
f 673/4/1 674/1/1 675/2/1 676/3/1
f 677/1/1 678/5/1 679/6/1 680/2/1
f 681/20/1 682/21/1 683/14/1 684/13/1
f 685/8/1 686/11/1 687/12/1 688/9/1
f 689/6/1 690/2/1 691/1/1 692/5/1
f 693/2/1 694/3/1 695/4/1 696/1/1
f 697/4/1 698/1/1 699/2/1 700/3/1
f 701/1/1 702/5/1 703/6/1 704/2/1
f 705/13/1 706/14/1 707/8/1 708/7/1
f 709/20/1 710/21/1 711/14/1 712/13/1
f 713/6/1 714/2/1 715/1/1 716/5/1
f 717/2/1 718/3/1 719/4/1 720/1/1
f 721/4/1 722/1/1 723/2/1 724/3/1
f 725/1/1 726/5/1 727/6/1 728/2/1
f 729/2/1 730/1/1 731/5/1 732/6/1
f 733/2/1 734/1/1 735/5/1 736/6/1
f 737/2/1 738/1/1 739/5/1 740/6/1
f 741/2/1 742/1/1 743/5/1 744/6/1
f 745/2/1 746/1/1 747/5/1 748/6/1
f 749/2/1 750/1/1 751/5/1 752/6/1
f 753/2/1 754/1/1 755/5/1 756/6/1
f 757/2/1 758/1/1 759/5/1 760/6/1
f 761/2/1 762/1/1 763/5/1 764/6/1
f 765/2/1 766/1/1 767/5/1 768/6/1
f 769/2/1 770/1/1 771/5/1 772/6/1
f 773/2/1 774/1/1 775/5/1 776/6/1
f 777/2/1 778/1/1 779/5/1 780/6/1
f 781/2/1 782/1/1 783/5/1 784/6/1
f 785/2/1 786/1/1 787/5/1 788/6/1
f 789/2/1 790/1/1 791/5/1 792/6/1
f 793/2/1 794/1/1 795/5/1 796/6/1
f 797/2/1 798/1/1 799/5/1 800/6/1
f 801/2/1 802/1/1 803/5/1 804/6/1
f 805/2/1 806/1/1 807/5/1 808/6/1
f 809/2/1 810/1/1 811/5/1 812/6/1
f 813/6/1 814/2/1 815/1/1 816/5/1
f 817/2/1 818/3/1 819/4/1 820/1/1
f 821/3/1 822/4/1 823/1/1 824/2/1
f 825/3/1 826/4/1 827/1/1 828/2/1
f 829/3/1 830/4/1 831/1/1 832/2/1
f 833/3/1 834/4/1 835/1/1 836/2/1
f 837/3/1 838/4/1 839/1/1 840/2/1
f 841/3/1 842/4/1 843/1/1 844/2/1
f 845/3/1 846/4/1 847/1/1 848/2/1
f 849/3/1 850/4/1 851/1/1 852/2/1
f 853/3/1 854/4/1 855/1/1 856/2/1
f 857/3/1 858/4/1 859/1/1 860/2/1
f 861/3/1 862/4/1 863/1/1 864/2/1
f 865/3/1 866/4/1 867/1/1 868/2/1
f 869/3/1 870/4/1 871/1/1 872/2/1
f 873/3/1 874/4/1 875/1/1 876/2/1
f 877/3/1 878/4/1 879/1/1 880/2/1
f 881/3/1 882/4/1 883/1/1 884/2/1
f 885/3/1 886/4/1 887/1/1 888/2/1
f 889/3/1 890/4/1 891/1/1 892/2/1
f 893/3/1 894/4/1 895/1/1 896/2/1
f 897/3/1 898/4/1 899/1/1 900/2/1
f 901/3/1 902/4/1 903/1/1 904/2/1
f 905/3/1 906/4/1 907/1/1 908/2/1
f 909/3/1 910/4/1 911/1/1 912/2/1

