# Tiled2Unity generated file. Do not modify by hand.
# Wavefront file for 'Cueva-2fb_mesh_0014.obj'

# Vertices (Count = 16)
v -13 -3 0
v -14 -3 0
v -14 -2 0
v -13 -2 0
v -18 -3 0
v -19 -3 0
v -19 -2 0
v -18 -2 0
v -10 -6 0
v -11 -6 0
v -11 -5 0
v -10 -5 0
v -21 -6 0
v -22 -6 0
v -22 -5 0
v -21 -5 0

# Texture cooridinates (Count = 4)
vt 0.2121212 0.8
vt 0.2424242 0.8
vt 0.2424242 0.85
vt 0.2121212 0.85

# Normal
vn 0 0 -1

# Mesh description
g Cueva-2fb_mesh_0014

# Faces
f 1/1/1 2/2/1 3/3/1 4/4/1
f 5/1/1 6/2/1 7/3/1 8/4/1
f 9/1/1 10/2/1 11/3/1 12/4/1
f 13/1/1 14/2/1 15/3/1 16/4/1

