# Tiled2Unity generated file. Do not modify by hand.
# Wavefront file for 'Castillo_mesh_0005.obj'

# Vertices (Count = 116)
v -23 -1 0
v -24 -1 0
v -24 0 0
v -23 0 0
v -24 -1 0
v -25 -1 0
v -25 0 0
v -24 0 0
v -25 -1 0
v -26 -1 0
v -26 0 0
v -25 0 0
v -26 -1 0
v -27 -1 0
v -27 0 0
v -26 0 0
v -23 -2 0
v -24 -2 0
v -24 -1 0
v -23 -1 0
v -24 -2 0
v -25 -2 0
v -25 -1 0
v -24 -1 0
v -25 -2 0
v -26 -2 0
v -26 -1 0
v -25 -1 0
v -26 -2 0
v -27 -2 0
v -27 -1 0
v -26 -1 0
v -23 -3 0
v -24 -3 0
v -24 -2 0
v -23 -2 0
v -24 -3 0
v -25 -3 0
v -25 -2 0
v -24 -2 0
v -25 -3 0
v -26 -3 0
v -26 -2 0
v -25 -2 0
v -26 -3 0
v -27 -3 0
v -27 -2 0
v -26 -2 0
v -23 -4 0
v -24 -4 0
v -24 -3 0
v -23 -3 0
v -24 -4 0
v -25 -4 0
v -25 -3 0
v -24 -3 0
v -25 -4 0
v -26 -4 0
v -26 -3 0
v -25 -3 0
v -26 -4 0
v -27 -4 0
v -27 -3 0
v -26 -3 0
v -28 -5 0
v -29 -5 0
v -29 -4 0
v -28 -4 0
v -44 -5 0
v -45 -5 0
v -45 -4 0
v -44 -4 0
v -45 -5 0
v -46 -5 0
v -46 -4 0
v -45 -4 0
v -44 -6 0
v -45 -6 0
v -45 -5 0
v -44 -5 0
v -45 -6 0
v -46 -6 0
v -46 -5 0
v -45 -5 0
v -5 -32 0
v -6 -32 0
v -6 -31 0
v -5 -31 0
v -6 -32 0
v -7 -32 0
v -7 -31 0
v -6 -31 0
v -5 -33 0
v -6 -33 0
v -6 -32 0
v -5 -32 0
v -6 -33 0
v -7 -33 0
v -7 -32 0
v -6 -32 0
v -44 -44 0
v -45 -44 0
v -45 -43 0
v -44 -43 0
v -45 -44 0
v -46 -44 0
v -46 -43 0
v -45 -43 0
v -44 -45 0
v -45 -45 0
v -45 -44 0
v -44 -44 0
v -45 -45 0
v -46 -45 0
v -46 -44 0
v -45 -44 0

# Texture cooridinates (Count = 38)
vt 0.1 0.1111111
vt 0.125 0.1111111
vt 0.125 0.1388889
vt 0.1 0.1388889
vt 0.15 0.1111111
vt 0.15 0.1388889
vt 0.175 0.1111111
vt 0.175 0.1388889
vt 0.2 0.1111111
vt 0.2 0.1388889
vt 0.1 0.08333331
vt 0.125 0.08333331
vt 0.15 0.08333331
vt 0.175 0.08333331
vt 0.2 0.08333331
vt 0.1 0.05555558
vt 0.125 0.05555558
vt 0.15 0.05555558
vt 0.175 0.05555558
vt 0.2 0.05555558
vt 0.1 0.02777779
vt 0.125 0.02777779
vt 0.15 0.02777779
vt 0.175 0.02777779
vt 0.2 0.02777779
vt 0.875 0.9166667
vt 0.9 0.9166667
vt 0.9 0.9444444
vt 0.875 0.9444444
vt 0.3 0.3333333
vt 0.325 0.3333333
vt 0.325 0.3611111
vt 0.3 0.3611111
vt 0.35 0.3333333
vt 0.35 0.3611111
vt 0.3 0.3055556
vt 0.325 0.3055556
vt 0.35 0.3055556

# Normal
vn 0 0 -1

# Mesh description
g Castillo_mesh_0005

# Faces
f 1/1/1 2/2/1 3/3/1 4/4/1
f 5/2/1 6/5/1 7/6/1 8/3/1
f 9/5/1 10/7/1 11/8/1 12/6/1
f 13/7/1 14/9/1 15/10/1 16/8/1
f 17/11/1 18/12/1 19/2/1 20/1/1
f 21/12/1 22/13/1 23/5/1 24/2/1
f 25/13/1 26/14/1 27/7/1 28/5/1
f 29/14/1 30/15/1 31/9/1 32/7/1
f 33/16/1 34/17/1 35/12/1 36/11/1
f 37/17/1 38/18/1 39/13/1 40/12/1
f 41/18/1 42/19/1 43/14/1 44/13/1
f 45/19/1 46/20/1 47/15/1 48/14/1
f 49/21/1 50/22/1 51/17/1 52/16/1
f 53/22/1 54/23/1 55/18/1 56/17/1
f 57/23/1 58/24/1 59/19/1 60/18/1
f 61/24/1 62/25/1 63/20/1 64/19/1
f 65/26/1 66/27/1 67/28/1 68/29/1
f 69/30/1 70/31/1 71/32/1 72/33/1
f 73/31/1 74/34/1 75/35/1 76/32/1
f 77/36/1 78/37/1 79/31/1 80/30/1
f 81/37/1 82/38/1 83/34/1 84/31/1
f 85/30/1 86/31/1 87/32/1 88/33/1
f 89/31/1 90/34/1 91/35/1 92/32/1
f 93/36/1 94/37/1 95/31/1 96/30/1
f 97/37/1 98/38/1 99/34/1 100/31/1
f 101/30/1 102/31/1 103/32/1 104/33/1
f 105/31/1 106/34/1 107/35/1 108/32/1
f 109/36/1 110/37/1 111/31/1 112/30/1
f 113/37/1 114/38/1 115/34/1 116/31/1

