# Tiled2Unity generated file. Do not modify by hand.
# Wavefront file for 'Cuarto-1_mesh_0004.obj'

# Vertices (Count = 48)
v -11 -1 0
v -12 -1 0
v -12 0 0
v -11 0 0
v -12 -1 0
v -13 -1 0
v -13 0 0
v -12 0 0
v -13 -1 0
v -14 -1 0
v -14 0 0
v -13 0 0
v -11 -2 0
v -12 -2 0
v -12 -1 0
v -11 -1 0
v -12 -2 0
v -13 -2 0
v -13 -1 0
v -12 -1 0
v -13 -2 0
v -14 -2 0
v -14 -1 0
v -13 -1 0
v -11 -24 0
v -12 -24 0
v -12 -23 0
v -11 -23 0
v -12 -24 0
v -13 -24 0
v -13 -23 0
v -12 -23 0
v -13 -24 0
v -14 -24 0
v -14 -23 0
v -13 -23 0
v -11 -25 0
v -12 -25 0
v -12 -24 0
v -11 -24 0
v -12 -25 0
v -13 -25 0
v -13 -24 0
v -12 -24 0
v -13 -25 0
v -14 -25 0
v -14 -24 0
v -13 -24 0

# Texture cooridinates (Count = 15)
vt 0.175 0.2222222
vt 0.2 0.2222222
vt 0.2 0.25
vt 0.175 0.25
vt 0.275 0.08333331
vt 0.3 0.08333331
vt 0.3 0.1111111
vt 0.275 0.1111111
vt 0.225 0.2222222
vt 0.225 0.25
vt 0.175 0.1944444
vt 0.2 0.1944444
vt 0.275 0.05555558
vt 0.3 0.05555558
vt 0.225 0.1944444

# Normal
vn 0 0 -1

# Mesh description
g Cuarto-1_mesh_0004

# Faces
f 1/1/1 2/2/1 3/3/1 4/4/1
f 5/5/1 6/6/1 7/7/1 8/8/1
f 9/2/1 10/9/1 11/10/1 12/3/1
f 13/11/1 14/12/1 15/2/1 16/1/1
f 17/13/1 18/14/1 19/6/1 20/5/1
f 21/12/1 22/15/1 23/9/1 24/2/1
f 25/9/1 26/2/1 27/12/1 28/15/1
f 29/6/1 30/5/1 31/13/1 32/14/1
f 33/2/1 34/1/1 35/11/1 36/12/1
f 37/10/1 38/3/1 39/2/1 40/9/1
f 41/7/1 42/8/1 43/5/1 44/6/1
f 45/3/1 46/4/1 47/1/1 48/2/1

