# Tiled2Unity generated file. Do not modify by hand.
# Wavefront file for 'Test2_mesh_0002.obj'

# Vertices (Count = 244)
v -8 -13 0
v -9 -13 0
v -9 -12 0
v -8 -12 0
v -9 -13 0
v -10 -13 0
v -10 -12 0
v -9 -12 0
v -8 -14 0
v -9 -14 0
v -9 -13 0
v -8 -13 0
v -9 -14 0
v -10 -14 0
v -10 -13 0
v -9 -13 0
v -1 -19 0
v -2 -19 0
v -2 -18 0
v -1 -18 0
v -2 -19 0
v -3 -19 0
v -3 -18 0
v -2 -18 0
v -3 -19 0
v -4 -19 0
v -4 -18 0
v -3 -18 0
v -4 -19 0
v -5 -19 0
v -5 -18 0
v -4 -18 0
v -5 -19 0
v -6 -19 0
v -6 -18 0
v -5 -18 0
v -6 -19 0
v -7 -19 0
v -7 -18 0
v -6 -18 0
v -7 -19 0
v -8 -19 0
v -8 -18 0
v -7 -18 0
v -8 -19 0
v -9 -19 0
v -9 -18 0
v -8 -18 0
v -9 -19 0
v -10 -19 0
v -10 -18 0
v -9 -18 0
v -15 -19 0
v -16 -19 0
v -16 -18 0
v -15 -18 0
v -16 -19 0
v -17 -19 0
v -17 -18 0
v -16 -18 0
v -1 -20 0
v -2 -20 0
v -2 -19 0
v -1 -19 0
v -2 -20 0
v -3 -20 0
v -3 -19 0
v -2 -19 0
v -3 -20 0
v -4 -20 0
v -4 -19 0
v -3 -19 0
v -4 -20 0
v -5 -20 0
v -5 -19 0
v -4 -19 0
v -5 -20 0
v -6 -20 0
v -6 -19 0
v -5 -19 0
v -6 -20 0
v -7 -20 0
v -7 -19 0
v -6 -19 0
v -7 -20 0
v -8 -20 0
v -8 -19 0
v -7 -19 0
v -8 -20 0
v -9 -20 0
v -9 -19 0
v -8 -19 0
v -9 -20 0
v -10 -20 0
v -10 -19 0
v -9 -19 0
v -15 -20 0
v -16 -20 0
v -16 -19 0
v -15 -19 0
v -16 -20 0
v -17 -20 0
v -17 -19 0
v -16 -19 0
v -1 -21 0
v -2 -21 0
v -2 -20 0
v -1 -20 0
v -2 -21 0
v -3 -21 0
v -3 -20 0
v -2 -20 0
v -3 -21 0
v -4 -21 0
v -4 -20 0
v -3 -20 0
v -4 -21 0
v -5 -21 0
v -5 -20 0
v -4 -20 0
v -5 -21 0
v -6 -21 0
v -6 -20 0
v -5 -20 0
v -6 -21 0
v -7 -21 0
v -7 -20 0
v -6 -20 0
v -7 -21 0
v -8 -21 0
v -8 -20 0
v -7 -20 0
v -8 -21 0
v -9 -21 0
v -9 -20 0
v -8 -20 0
v -9 -21 0
v -10 -21 0
v -10 -20 0
v -9 -20 0
v -1 -22 0
v -2 -22 0
v -2 -21 0
v -1 -21 0
v -2 -22 0
v -3 -22 0
v -3 -21 0
v -2 -21 0
v -3 -22 0
v -4 -22 0
v -4 -21 0
v -3 -21 0
v -4 -22 0
v -5 -22 0
v -5 -21 0
v -4 -21 0
v -5 -22 0
v -6 -22 0
v -6 -21 0
v -5 -21 0
v -6 -22 0
v -7 -22 0
v -7 -21 0
v -6 -21 0
v -7 -22 0
v -8 -22 0
v -8 -21 0
v -7 -21 0
v -8 -22 0
v -9 -22 0
v -9 -21 0
v -8 -21 0
v -9 -22 0
v -10 -22 0
v -10 -21 0
v -9 -21 0
v -1 -23 0
v -2 -23 0
v -2 -22 0
v -1 -22 0
v -2 -23 0
v -3 -23 0
v -3 -22 0
v -2 -22 0
v -3 -23 0
v -4 -23 0
v -4 -22 0
v -3 -22 0
v -4 -23 0
v -5 -23 0
v -5 -22 0
v -4 -22 0
v -5 -23 0
v -6 -23 0
v -6 -22 0
v -5 -22 0
v -6 -23 0
v -7 -23 0
v -7 -22 0
v -6 -22 0
v -7 -23 0
v -8 -23 0
v -8 -22 0
v -7 -22 0
v -8 -23 0
v -9 -23 0
v -9 -22 0
v -8 -22 0
v -9 -23 0
v -10 -23 0
v -10 -22 0
v -9 -22 0
v -3 -25 0
v -4 -25 0
v -4 -24 0
v -3 -24 0
v -4 -25 0
v -5 -25 0
v -5 -24 0
v -4 -24 0
v -3 -26 0
v -4 -26 0
v -4 -25 0
v -3 -25 0
v -4 -26 0
v -5 -26 0
v -5 -25 0
v -4 -25 0
v -31 -26 0
v -32 -26 0
v -32 -25 0
v -31 -25 0
v -32 -26 0
v -33 -26 0
v -33 -25 0
v -32 -25 0
v -31 -27 0
v -32 -27 0
v -32 -26 0
v -31 -26 0
v -32 -27 0
v -33 -27 0
v -33 -26 0
v -32 -26 0

# Texture cooridinates (Count = 37)
vt 0.225 0.6666666
vt 0.25 0.6666666
vt 0.25 0.6944444
vt 0.225 0.6944444
vt 0.275 0.6666666
vt 0.275 0.6944444
vt 0.225 0.6388889
vt 0.25 0.6388889
vt 0.275 0.6388889
vt 0.05 0.8055556
vt 0.075 0.8055556
vt 0.075 0.8333333
vt 0.05 0.8333333
vt 0.1 0.8055556
vt 0.1 0.8333333
vt 0.125 0.8055556
vt 0.15 0.8055556
vt 0.15 0.8333333
vt 0.125 0.8333333
vt 0.175 0.8055556
vt 0.175 0.8333333
vt 0.2 0.8055556
vt 0.2 0.8333333
vt 0.05 0.7777778
vt 0.075 0.7777778
vt 0.1 0.7777778
vt 0.125 0.7777778
vt 0.15 0.7777778
vt 0.175 0.7777778
vt 0.2 0.7777778
vt 0.05 0.75
vt 0.075 0.75
vt 0.1 0.75
vt 0.125 0.75
vt 0.15 0.75
vt 0.175 0.75
vt 0.2 0.75

# Normal
vn 0 0 -1

# Mesh description
g Test2_mesh_0002

# Faces
f 1/1/1 2/2/1 3/3/1 4/4/1
f 5/2/1 6/5/1 7/6/1 8/3/1
f 9/7/1 10/8/1 11/2/1 12/1/1
f 13/8/1 14/9/1 15/5/1 16/2/1
f 17/10/1 18/11/1 19/12/1 20/13/1
f 21/11/1 22/14/1 23/15/1 24/12/1
f 25/11/1 26/14/1 27/15/1 28/12/1
f 29/16/1 30/17/1 31/18/1 32/19/1
f 33/17/1 34/20/1 35/21/1 36/18/1
f 37/20/1 38/22/1 39/23/1 40/21/1
f 41/11/1 42/14/1 43/15/1 44/12/1
f 45/11/1 46/14/1 47/15/1 48/12/1
f 49/14/1 50/16/1 51/19/1 52/15/1
f 53/1/1 54/2/1 55/3/1 56/4/1
f 57/2/1 58/5/1 59/6/1 60/3/1
f 61/24/1 62/25/1 63/11/1 64/10/1
f 65/25/1 66/26/1 67/14/1 68/11/1
f 69/25/1 70/26/1 71/14/1 72/11/1
f 73/27/1 74/28/1 75/17/1 76/16/1
f 77/28/1 78/29/1 79/20/1 80/17/1
f 81/29/1 82/30/1 83/22/1 84/20/1
f 85/25/1 86/26/1 87/14/1 88/11/1
f 89/25/1 90/26/1 91/14/1 92/11/1
f 93/26/1 94/27/1 95/16/1 96/14/1
f 97/7/1 98/8/1 99/2/1 100/1/1
f 101/8/1 102/9/1 103/5/1 104/2/1
f 105/24/1 106/25/1 107/11/1 108/10/1
f 109/25/1 110/26/1 111/14/1 112/11/1
f 113/25/1 114/26/1 115/14/1 116/11/1
f 117/27/1 118/28/1 119/17/1 120/16/1
f 121/28/1 122/29/1 123/20/1 124/17/1
f 125/29/1 126/30/1 127/22/1 128/20/1
f 129/25/1 130/26/1 131/14/1 132/11/1
f 133/25/1 134/26/1 135/14/1 136/11/1
f 137/26/1 138/27/1 139/16/1 140/14/1
f 141/24/1 142/25/1 143/11/1 144/10/1
f 145/25/1 146/26/1 147/14/1 148/11/1
f 149/25/1 150/26/1 151/14/1 152/11/1
f 153/27/1 154/28/1 155/17/1 156/16/1
f 157/28/1 158/29/1 159/20/1 160/17/1
f 161/29/1 162/30/1 163/22/1 164/20/1
f 165/25/1 166/26/1 167/14/1 168/11/1
f 169/25/1 170/26/1 171/14/1 172/11/1
f 173/26/1 174/27/1 175/16/1 176/14/1
f 177/31/1 178/32/1 179/25/1 180/24/1
f 181/32/1 182/33/1 183/26/1 184/25/1
f 185/32/1 186/33/1 187/26/1 188/25/1
f 189/34/1 190/35/1 191/28/1 192/27/1
f 193/35/1 194/36/1 195/29/1 196/28/1
f 197/36/1 198/37/1 199/30/1 200/29/1
f 201/32/1 202/33/1 203/26/1 204/25/1
f 205/32/1 206/33/1 207/26/1 208/25/1
f 209/33/1 210/34/1 211/27/1 212/26/1
f 213/1/1 214/2/1 215/3/1 216/4/1
f 217/2/1 218/5/1 219/6/1 220/3/1
f 221/7/1 222/8/1 223/2/1 224/1/1
f 225/8/1 226/9/1 227/5/1 228/2/1
f 229/1/1 230/2/1 231/3/1 232/4/1
f 233/2/1 234/5/1 235/6/1 236/3/1
f 237/7/1 238/8/1 239/2/1 240/1/1
f 241/8/1 242/9/1 243/5/1 244/2/1

