# Tiled2Unity generated file. Do not modify by hand.
# Wavefront file for 'TestCueva_mesh_0003.obj'

# Vertices (Count = 384)
v -2 -3 0
v -3 -3 0
v -3 -2 0
v -2 -2 0
v -3 -3 0
v -4 -3 0
v -4 -2 0
v -3 -2 0
v -11 -3 0
v -12 -3 0
v -12 -2 0
v -11 -2 0
v -12 -3 0
v -13 -3 0
v -13 -2 0
v -12 -2 0
v -17 -3 0
v -18 -3 0
v -18 -2 0
v -17 -2 0
v -21 -3 0
v -22 -3 0
v -22 -2 0
v -21 -2 0
v -22 -3 0
v -23 -3 0
v -23 -2 0
v -22 -2 0
v -2 -4 0
v -3 -4 0
v -3 -3 0
v -2 -3 0
v -3 -4 0
v -4 -4 0
v -4 -3 0
v -3 -3 0
v -6 -4 0
v -7 -4 0
v -7 -3 0
v -6 -3 0
v -11 -4 0
v -12 -4 0
v -12 -3 0
v -11 -3 0
v -12 -4 0
v -13 -4 0
v -13 -3 0
v -12 -3 0
v -21 -4 0
v -22 -4 0
v -22 -3 0
v -21 -3 0
v -22 -4 0
v -23 -4 0
v -23 -3 0
v -22 -3 0
v -4 -5 0
v -5 -5 0
v -5 -4 0
v -4 -4 0
v -5 -5 0
v -6 -5 0
v -6 -4 0
v -5 -4 0
v -6 -5 0
v -7 -5 0
v -7 -4 0
v -6 -4 0
v -7 -5 0
v -8 -5 0
v -8 -4 0
v -7 -4 0
v -8 -5 0
v -9 -5 0
v -9 -4 0
v -8 -4 0
v -4 -6 0
v -5 -6 0
v -5 -5 0
v -4 -5 0
v -8 -6 0
v -9 -6 0
v -9 -5 0
v -8 -5 0
v -19 -6 0
v -20 -6 0
v -20 -5 0
v -19 -5 0
v -2 -7 0
v -3 -7 0
v -3 -6 0
v -2 -6 0
v -4 -7 0
v -5 -7 0
v -5 -6 0
v -4 -6 0
v -8 -7 0
v -9 -7 0
v -9 -6 0
v -8 -6 0
v -10 -7 0
v -11 -7 0
v -11 -6 0
v -10 -6 0
v -14 -7 0
v -15 -7 0
v -15 -6 0
v -14 -6 0
v -17 -7 0
v -18 -7 0
v -18 -6 0
v -17 -6 0
v -18 -7 0
v -19 -7 0
v -19 -6 0
v -18 -6 0
v -19 -7 0
v -20 -7 0
v -20 -6 0
v -19 -6 0
v -20 -7 0
v -21 -7 0
v -21 -6 0
v -20 -6 0
v -21 -7 0
v -22 -7 0
v -22 -6 0
v -21 -6 0
v -4 -8 0
v -5 -8 0
v -5 -7 0
v -4 -7 0
v -8 -8 0
v -9 -8 0
v -9 -7 0
v -8 -7 0
v -18 -8 0
v -19 -8 0
v -19 -7 0
v -18 -7 0
v -19 -8 0
v -20 -8 0
v -20 -7 0
v -19 -7 0
v -20 -8 0
v -21 -8 0
v -21 -7 0
v -20 -7 0
v -4 -9 0
v -5 -9 0
v -5 -8 0
v -4 -8 0
v -5 -9 0
v -6 -9 0
v -6 -8 0
v -5 -8 0
v -7 -9 0
v -8 -9 0
v -8 -8 0
v -7 -8 0
v -8 -9 0
v -9 -9 0
v -9 -8 0
v -8 -8 0
v -11 -9 0
v -12 -9 0
v -12 -8 0
v -11 -8 0
v -12 -9 0
v -13 -9 0
v -13 -8 0
v -12 -8 0
v -18 -9 0
v -19 -9 0
v -19 -8 0
v -18 -8 0
v -20 -9 0
v -21 -9 0
v -21 -8 0
v -20 -8 0
v -5 -10 0
v -6 -10 0
v -6 -9 0
v -5 -9 0
v -7 -10 0
v -8 -10 0
v -8 -9 0
v -7 -9 0
v -11 -10 0
v -12 -10 0
v -12 -9 0
v -11 -9 0
v -12 -10 0
v -13 -10 0
v -13 -9 0
v -12 -9 0
v -17 -10 0
v -18 -10 0
v -18 -9 0
v -17 -9 0
v -18 -10 0
v -19 -10 0
v -19 -9 0
v -18 -9 0
v -20 -10 0
v -21 -10 0
v -21 -9 0
v -20 -9 0
v -21 -10 0
v -22 -10 0
v -22 -9 0
v -21 -9 0
v -18 -11 0
v -19 -11 0
v -19 -10 0
v -18 -10 0
v -20 -11 0
v -21 -11 0
v -21 -10 0
v -20 -10 0
v -2 -12 0
v -3 -12 0
v -3 -11 0
v -2 -11 0
v -5 -12 0
v -6 -12 0
v -6 -11 0
v -5 -11 0
v -10 -12 0
v -11 -12 0
v -11 -11 0
v -10 -11 0
v -13 -13 0
v -14 -13 0
v -14 -12 0
v -13 -12 0
v -20 -13 0
v -21 -13 0
v -21 -12 0
v -20 -12 0
v -12 -14 0
v -13 -14 0
v -13 -13 0
v -12 -13 0
v -4 -15 0
v -5 -15 0
v -5 -14 0
v -4 -14 0
v -9 -15 0
v -10 -15 0
v -10 -14 0
v -9 -14 0
v -18 -15 0
v -19 -15 0
v -19 -14 0
v -18 -14 0
v -2 -16 0
v -3 -16 0
v -3 -15 0
v -2 -15 0
v -20 -17 0
v -21 -17 0
v -21 -16 0
v -20 -16 0
v -11 -18 0
v -12 -18 0
v -12 -17 0
v -11 -17 0
v -12 -18 0
v -13 -18 0
v -13 -17 0
v -12 -17 0
v -2 -19 0
v -3 -19 0
v -3 -18 0
v -2 -18 0
v -5 -19 0
v -6 -19 0
v -6 -18 0
v -5 -18 0
v -6 -19 0
v -7 -19 0
v -7 -18 0
v -6 -18 0
v -11 -19 0
v -12 -19 0
v -12 -18 0
v -11 -18 0
v -12 -19 0
v -13 -19 0
v -13 -18 0
v -12 -18 0
v -18 -19 0
v -19 -19 0
v -19 -18 0
v -18 -18 0
v -2 -20 0
v -3 -20 0
v -3 -19 0
v -2 -19 0
v -3 -20 0
v -4 -20 0
v -4 -19 0
v -3 -19 0
v -6 -20 0
v -7 -20 0
v -7 -19 0
v -6 -19 0
v -2 -21 0
v -3 -21 0
v -3 -20 0
v -2 -20 0
v -5 -21 0
v -6 -21 0
v -6 -20 0
v -5 -20 0
v -6 -21 0
v -7 -21 0
v -7 -20 0
v -6 -20 0
v -2 -22 0
v -3 -22 0
v -3 -21 0
v -2 -21 0
v -3 -22 0
v -4 -22 0
v -4 -21 0
v -3 -21 0
v -6 -22 0
v -7 -22 0
v -7 -21 0
v -6 -21 0
v -18 -22 0
v -19 -22 0
v -19 -21 0
v -18 -21 0
v -20 -22 0
v -21 -22 0
v -21 -21 0
v -20 -21 0
v -2 -23 0
v -3 -23 0
v -3 -22 0
v -2 -22 0
v -5 -23 0
v -6 -23 0
v -6 -22 0
v -5 -22 0
v -6 -23 0
v -7 -23 0
v -7 -22 0
v -6 -22 0
v -9 -23 0
v -10 -23 0
v -10 -22 0
v -9 -22 0
v -10 -23 0
v -11 -23 0
v -11 -22 0
v -10 -22 0
v -2 -24 0
v -3 -24 0
v -3 -23 0
v -2 -23 0
v -3 -24 0
v -4 -24 0
v -4 -23 0
v -3 -23 0
v -6 -24 0
v -7 -24 0
v -7 -23 0
v -6 -23 0
v -9 -24 0
v -10 -24 0
v -10 -23 0
v -9 -23 0
v -10 -24 0
v -11 -24 0
v -11 -23 0
v -10 -23 0
v -22 -24 0
v -23 -24 0
v -23 -23 0
v -22 -23 0

# Texture cooridinates (Count = 35)
vt 0.175 0.76
vt 0.2 0.76
vt 0.2 0.8
vt 0.175 0.8
vt 0.225 0.76
vt 0.225 0.8
vt 0.15 0.8
vt 0.175 0.84
vt 0.15 0.84
vt 0.175 0.72
vt 0.2 0.72
vt 0.225 0.72
vt 0.2 0.96
vt 0.225 0.96
vt 0.225 1
vt 0.2 1
vt 0.125 0.8
vt 0.125 0.84
vt 0.125 0.72
vt 0.15 0.72
vt 0.15 0.76
vt 0.125 0.76
vt 0 0.76
vt 0.025 0.76
vt 0.025 0.8
vt 0 0.8
vt 0.2 0.92
vt 0.225 0.92
vt 0.175 0.88
vt 0.15 0.88
vt 0 0.72
vt 0.025 0.72
vt 0.2 0.88
vt 0.225 0.88
vt 0.125 0.88

# Normal
vn 0 0 -1

# Mesh description
g TestCueva_mesh_0003

# Faces
f 1/1/1 2/2/1 3/3/1 4/4/1
f 5/2/1 6/5/1 7/6/1 8/3/1
f 9/1/1 10/2/1 11/3/1 12/4/1
f 13/2/1 14/5/1 15/6/1 16/3/1
f 17/7/1 18/4/1 19/8/1 20/9/1
f 21/1/1 22/2/1 23/3/1 24/4/1
f 25/2/1 26/5/1 27/6/1 28/3/1
f 29/10/1 30/11/1 31/2/1 32/1/1
f 33/11/1 34/12/1 35/5/1 36/2/1
f 37/7/1 38/4/1 39/8/1 40/9/1
f 41/10/1 42/11/1 43/2/1 44/1/1
f 45/11/1 46/12/1 47/5/1 48/2/1
f 49/10/1 50/11/1 51/2/1 52/1/1
f 53/11/1 54/12/1 55/5/1 56/2/1
f 57/7/1 58/4/1 59/8/1 60/9/1
f 61/7/1 62/4/1 63/8/1 64/9/1
f 65/7/1 66/4/1 67/8/1 68/9/1
f 69/7/1 70/4/1 71/8/1 72/9/1
f 73/7/1 74/4/1 75/8/1 76/9/1
f 77/7/1 78/4/1 79/8/1 80/9/1
f 81/7/1 82/4/1 83/8/1 84/9/1
f 85/13/1 86/14/1 87/15/1 88/16/1
f 89/7/1 90/4/1 91/8/1 92/9/1
f 93/7/1 94/4/1 95/8/1 96/9/1
f 97/7/1 98/4/1 99/8/1 100/9/1
f 101/17/1 102/7/1 103/9/1 104/18/1
f 105/19/1 106/20/1 107/21/1 108/22/1
f 109/7/1 110/4/1 111/8/1 112/9/1
f 113/23/1 114/24/1 115/25/1 116/26/1
f 117/27/1 118/28/1 119/14/1 120/13/1
f 121/23/1 122/24/1 123/25/1 124/26/1
f 125/9/1 126/8/1 127/29/1 128/30/1
f 129/7/1 130/4/1 131/8/1 132/9/1
f 133/7/1 134/4/1 135/8/1 136/9/1
f 137/31/1 138/32/1 139/24/1 140/23/1
f 141/33/1 142/34/1 143/28/1 144/27/1
f 145/31/1 146/32/1 147/24/1 148/23/1
f 149/7/1 150/4/1 151/8/1 152/9/1
f 153/7/1 154/4/1 155/8/1 156/9/1
f 157/7/1 158/4/1 159/8/1 160/9/1
f 161/7/1 162/4/1 163/8/1 164/9/1
f 165/1/1 166/2/1 167/3/1 168/4/1
f 169/2/1 170/5/1 171/6/1 172/3/1
f 173/23/1 174/24/1 175/25/1 176/26/1
f 177/23/1 178/24/1 179/25/1 180/26/1
f 181/7/1 182/4/1 183/8/1 184/9/1
f 185/7/1 186/4/1 187/8/1 188/9/1
f 189/10/1 190/11/1 191/2/1 192/1/1
f 193/11/1 194/12/1 195/5/1 196/2/1
f 197/18/1 198/9/1 199/30/1 200/35/1
f 201/31/1 202/32/1 203/24/1 204/23/1
f 205/31/1 206/32/1 207/24/1 208/23/1
f 209/17/1 210/7/1 211/9/1 212/18/1
f 213/19/1 214/20/1 215/21/1 216/22/1
f 217/19/1 218/20/1 219/21/1 220/22/1
f 221/7/1 222/4/1 223/8/1 224/9/1
f 225/19/1 226/20/1 227/21/1 228/22/1
f 229/19/1 230/20/1 231/21/1 232/22/1
f 233/7/1 234/4/1 235/8/1 236/9/1
f 237/9/1 238/8/1 239/29/1 240/30/1
f 241/7/1 242/4/1 243/8/1 244/9/1
f 245/19/1 246/20/1 247/21/1 248/22/1
f 249/17/1 250/7/1 251/9/1 252/18/1
f 253/9/1 254/8/1 255/29/1 256/30/1
f 257/17/1 258/7/1 259/9/1 260/18/1
f 261/9/1 262/8/1 263/29/1 264/30/1
f 265/1/1 266/2/1 267/3/1 268/4/1
f 269/2/1 270/5/1 271/6/1 272/3/1
f 273/23/1 274/24/1 275/25/1 276/26/1
f 277/19/1 278/20/1 279/21/1 280/22/1
f 281/23/1 282/24/1 283/25/1 284/26/1
f 285/10/1 286/11/1 287/2/1 288/1/1
f 289/11/1 290/12/1 291/5/1 292/2/1
f 293/9/1 294/8/1 295/29/1 296/30/1
f 297/31/1 298/32/1 299/24/1 300/23/1
f 301/19/1 302/20/1 303/21/1 304/22/1
f 305/31/1 306/32/1 307/24/1 308/23/1
f 309/23/1 310/24/1 311/25/1 312/26/1
f 313/19/1 314/20/1 315/21/1 316/22/1
f 317/23/1 318/24/1 319/25/1 320/26/1
f 321/31/1 322/32/1 323/24/1 324/23/1
f 325/19/1 326/20/1 327/21/1 328/22/1
f 329/31/1 330/32/1 331/24/1 332/23/1
f 333/19/1 334/20/1 335/21/1 336/22/1
f 337/9/1 338/8/1 339/29/1 340/30/1
f 341/23/1 342/24/1 343/25/1 344/26/1
f 345/19/1 346/20/1 347/21/1 348/22/1
f 349/23/1 350/24/1 351/25/1 352/26/1
f 353/1/1 354/2/1 355/3/1 356/4/1
f 357/2/1 358/5/1 359/6/1 360/3/1
f 361/31/1 362/32/1 363/24/1 364/23/1
f 365/19/1 366/20/1 367/21/1 368/22/1
f 369/31/1 370/32/1 371/24/1 372/23/1
f 373/10/1 374/11/1 375/2/1 376/1/1
f 377/11/1 378/12/1 379/5/1 380/2/1
f 381/19/1 382/20/1 383/21/1 384/22/1

