# Tiled2Unity generated file. Do not modify by hand.
# Wavefront file for 'Cueva-2f_mesh_0013.obj'

# Vertices (Count = 8)
v -12 -12 0
v -13 -12 0
v -13 -11 0
v -12 -11 0
v -13 -12 0
v -14 -12 0
v -14 -11 0
v -13 -11 0

# Texture cooridinates (Count = 6)
vt 0.2727273 0.95
vt 0.3030303 0.95
vt 0.3030303 1
vt 0.2727273 1
vt 0.3333333 0.95
vt 0.3333333 1

# Normal
vn 0 0 -1

# Mesh description
g Cueva-2f_mesh_0013

# Faces
f 1/1/1 2/2/1 3/3/1 4/4/1
f 5/2/1 6/5/1 7/6/1 8/3/1

