# Tiled2Unity generated file. Do not modify by hand.
# Wavefront file for 'Cueva-2f_mesh_0014.obj'

# Vertices (Count = 16)
v -10 -12 0
v -11 -12 0
v -11 -11 0
v -10 -11 0
v -12 -12 0
v -13 -12 0
v -13 -11 0
v -12 -11 0
v -13 -12 0
v -14 -12 0
v -14 -11 0
v -13 -11 0
v -15 -12 0
v -16 -12 0
v -16 -11 0
v -15 -11 0

# Texture cooridinates (Count = 4)
vt 0 0.96
vt 0.025 0.96
vt 0.025 1
vt 0 1

# Normal
vn 0 0 -1

# Mesh description
g Cueva-2f_mesh_0014

# Faces
f 1/1/1 2/2/1 3/3/1 4/4/1
f 5/1/1 6/2/1 7/3/1 8/4/1
f 9/1/1 10/2/1 11/3/1 12/4/1
f 13/1/1 14/2/1 15/3/1 16/4/1

