# Tiled2Unity generated file. Do not modify by hand.
# Wavefront file for 'Pueblo_mesh_0018.obj'

# Vertices (Count = 20)
v -38 -24 0
v -39 -24 0
v -39 -23 0
v -38 -23 0
v -39 -24 0
v -40 -24 0
v -40 -23 0
v -39 -23 0
v -40 -24 0
v -41 -24 0
v -41 -23 0
v -40 -23 0
v -41 -24 0
v -42 -24 0
v -42 -23 0
v -41 -23 0
v -42 -24 0
v -43 -24 0
v -43 -23 0
v -42 -23 0

# Texture cooridinates (Count = 4)
vt 0.475 0.6666666
vt 0.5 0.6666666
vt 0.5 0.6944444
vt 0.475 0.6944444

# Normal
vn 0 0 -1

# Mesh description
g Pueblo_mesh_0018

# Faces
f 1/1/1 2/2/1 3/3/1 4/4/1
f 5/1/1 6/2/1 7/3/1 8/4/1
f 9/1/1 10/2/1 11/3/1 12/4/1
f 13/1/1 14/2/1 15/3/1 16/4/1
f 17/1/1 18/2/1 19/3/1 20/4/1

