# Tiled2Unity generated file. Do not modify by hand.
# Wavefront file for 'Pueblo_mesh_0114.obj'

# Vertices (Count = 168)
v -8 -1 0
v -9 -1 0
v -9 0 0
v -8 0 0
v -9 -1 0
v -10 -1 0
v -10 0 0
v -9 0 0
v -15 -1 0
v -16 -1 0
v -16 0 0
v -15 0 0
v -15 -2 0
v -16 -2 0
v -16 -1 0
v -15 -1 0
v -15 -3 0
v -16 -3 0
v -16 -2 0
v -15 -2 0
v -15 -4 0
v -16 -4 0
v -16 -3 0
v -15 -3 0
v -15 -5 0
v -16 -5 0
v -16 -4 0
v -15 -4 0
v -15 -6 0
v -16 -6 0
v -16 -5 0
v -15 -5 0
v -15 -7 0
v -16 -7 0
v -16 -6 0
v -15 -6 0
v -15 -8 0
v -16 -8 0
v -16 -7 0
v -15 -7 0
v -15 -9 0
v -16 -9 0
v -16 -8 0
v -15 -8 0
v -2 -10 0
v -3 -10 0
v -3 -9 0
v -2 -9 0
v -3 -10 0
v -4 -10 0
v -4 -9 0
v -3 -9 0
v -4 -10 0
v -5 -10 0
v -5 -9 0
v -4 -9 0
v -15 -10 0
v -16 -10 0
v -16 -9 0
v -15 -9 0
v -2 -11 0
v -3 -11 0
v -3 -10 0
v -2 -10 0
v -3 -11 0
v -4 -11 0
v -4 -10 0
v -3 -10 0
v -4 -11 0
v -5 -11 0
v -5 -10 0
v -4 -10 0
v -15 -11 0
v -16 -11 0
v -16 -10 0
v -15 -10 0
v -2 -12 0
v -3 -12 0
v -3 -11 0
v -2 -11 0
v -3 -12 0
v -4 -12 0
v -4 -11 0
v -3 -11 0
v -4 -12 0
v -5 -12 0
v -5 -11 0
v -4 -11 0
v -15 -12 0
v -16 -12 0
v -16 -11 0
v -15 -11 0
v -15 -13 0
v -16 -13 0
v -16 -12 0
v -15 -12 0
v -15 -14 0
v -16 -14 0
v -16 -13 0
v -15 -13 0
v -15 -15 0
v -16 -15 0
v -16 -14 0
v -15 -14 0
v 0 -16 0
v -1 -16 0
v -1 -15 0
v 0 -15 0
v -1 -16 0
v -2 -16 0
v -2 -15 0
v -1 -15 0
v -2 -16 0
v -3 -16 0
v -3 -15 0
v -2 -15 0
v -3 -16 0
v -4 -16 0
v -4 -15 0
v -3 -15 0
v -4 -16 0
v -5 -16 0
v -5 -15 0
v -4 -15 0
v -5 -16 0
v -6 -16 0
v -6 -15 0
v -5 -15 0
v -6 -16 0
v -7 -16 0
v -7 -15 0
v -6 -15 0
v -7 -16 0
v -8 -16 0
v -8 -15 0
v -7 -15 0
v -8 -16 0
v -9 -16 0
v -9 -15 0
v -8 -15 0
v -9 -16 0
v -10 -16 0
v -10 -15 0
v -9 -15 0
v -10 -16 0
v -11 -16 0
v -11 -15 0
v -10 -15 0
v -11 -16 0
v -12 -16 0
v -12 -15 0
v -11 -15 0
v -12 -16 0
v -13 -16 0
v -13 -15 0
v -12 -15 0
v -13 -16 0
v -14 -16 0
v -14 -15 0
v -13 -15 0
v -14 -16 0
v -15 -16 0
v -15 -15 0
v -14 -15 0
v -15 -16 0
v -16 -16 0
v -16 -15 0
v -15 -15 0

# Texture cooridinates (Count = 27)
vt 0.125 0.5
vt 0.15 0.5
vt 0.15 0.5277778
vt 0.125 0.5277778
vt 0.175 0.5
vt 0.175 0.5277778
vt 0.15 0.4722222
vt 0.175 0.4722222
vt 0.025 0.6111111
vt 0.05 0.6111111
vt 0.05 0.6388889
vt 0.025 0.6388889
vt 0.075 0.6111111
vt 0.075 0.6388889
vt 0.1 0.6111111
vt 0.1 0.6388889
vt 0.025 0.5833334
vt 0.05 0.5833334
vt 0.075 0.5833334
vt 0.1 0.5833334
vt 0.025 0.5555556
vt 0.05 0.5555556
vt 0.075 0.5555556
vt 0.1 0.5555556
vt 0.125 0.4722222
vt 0.075 0.5277778
vt 0.1 0.5277778

# Normal
vn 0 0 -1

# Mesh description
g Pueblo_mesh_0114

# Faces
f 1/1/1 2/2/1 3/3/1 4/4/1
f 5/2/1 6/5/1 7/6/1 8/3/1
f 9/7/1 10/8/1 11/5/1 12/2/1
f 13/7/1 14/8/1 15/5/1 16/2/1
f 17/7/1 18/8/1 19/5/1 20/2/1
f 21/7/1 22/8/1 23/5/1 24/2/1
f 25/7/1 26/8/1 27/5/1 28/2/1
f 29/7/1 30/8/1 31/5/1 32/2/1
f 33/7/1 34/8/1 35/5/1 36/2/1
f 37/7/1 38/8/1 39/5/1 40/2/1
f 41/7/1 42/8/1 43/5/1 44/2/1
f 45/9/1 46/10/1 47/11/1 48/12/1
f 49/10/1 50/13/1 51/14/1 52/11/1
f 53/13/1 54/15/1 55/16/1 56/14/1
f 57/7/1 58/8/1 59/5/1 60/2/1
f 61/17/1 62/18/1 63/10/1 64/9/1
f 65/18/1 66/19/1 67/13/1 68/10/1
f 69/19/1 70/20/1 71/15/1 72/13/1
f 73/7/1 74/8/1 75/5/1 76/2/1
f 77/21/1 78/22/1 79/18/1 80/17/1
f 81/22/1 82/23/1 83/19/1 84/18/1
f 85/23/1 86/24/1 87/20/1 88/19/1
f 89/7/1 90/8/1 91/5/1 92/2/1
f 93/7/1 94/8/1 95/5/1 96/2/1
f 97/7/1 98/8/1 99/5/1 100/2/1
f 101/7/1 102/8/1 103/5/1 104/2/1
f 105/25/1 106/7/1 107/2/1 108/1/1
f 109/25/1 110/7/1 111/2/1 112/1/1
f 113/25/1 114/7/1 115/2/1 116/1/1
f 117/25/1 118/7/1 119/2/1 120/1/1
f 121/25/1 122/7/1 123/2/1 124/1/1
f 125/25/1 126/7/1 127/2/1 128/1/1
f 129/25/1 130/7/1 131/2/1 132/1/1
f 133/25/1 134/7/1 135/2/1 136/1/1
f 137/25/1 138/7/1 139/2/1 140/1/1
f 141/25/1 142/7/1 143/2/1 144/1/1
f 145/25/1 146/7/1 147/2/1 148/1/1
f 149/25/1 150/7/1 151/2/1 152/1/1
f 153/25/1 154/7/1 155/2/1 156/1/1
f 157/25/1 158/7/1 159/2/1 160/1/1
f 161/25/1 162/7/1 163/2/1 164/1/1
f 165/26/1 166/27/1 167/24/1 168/23/1

