# Tiled2Unity generated file. Do not modify by hand.
# Wavefront file for 'Pueblo_mesh_0107.obj'

# Vertices (Count = 96)
v -6 -1 0
v -7 -1 0
v -7 0 0
v -6 0 0
v -6 -2 0
v -7 -2 0
v -7 -1 0
v -6 -1 0
v 0 -3 0
v -1 -3 0
v -1 -2 0
v 0 -2 0
v -6 -3 0
v -7 -3 0
v -7 -2 0
v -6 -2 0
v 0 -4 0
v -1 -4 0
v -1 -3 0
v 0 -3 0
v -6 -4 0
v -7 -4 0
v -7 -3 0
v -6 -3 0
v 0 -5 0
v -1 -5 0
v -1 -4 0
v 0 -4 0
v -6 -5 0
v -7 -5 0
v -7 -4 0
v -6 -4 0
v 0 -6 0
v -1 -6 0
v -1 -5 0
v 0 -5 0
v -6 -6 0
v -7 -6 0
v -7 -5 0
v -6 -5 0
v 0 -7 0
v -1 -7 0
v -1 -6 0
v 0 -6 0
v -6 -7 0
v -7 -7 0
v -7 -6 0
v -6 -6 0
v 0 -8 0
v -1 -8 0
v -1 -7 0
v 0 -7 0
v -6 -8 0
v -7 -8 0
v -7 -7 0
v -6 -7 0
v -6 -9 0
v -7 -9 0
v -7 -8 0
v -6 -8 0
v -3 -10 0
v -4 -10 0
v -4 -9 0
v -3 -9 0
v -6 -10 0
v -7 -10 0
v -7 -9 0
v -6 -9 0
v -6 -11 0
v -7 -11 0
v -7 -10 0
v -6 -10 0
v -6 -12 0
v -7 -12 0
v -7 -11 0
v -6 -11 0
v -6 -13 0
v -7 -13 0
v -7 -12 0
v -6 -12 0
v 0 -14 0
v -1 -14 0
v -1 -13 0
v 0 -13 0
v -6 -14 0
v -7 -14 0
v -7 -13 0
v -6 -13 0
v -6 -15 0
v -7 -15 0
v -7 -14 0
v -6 -14 0
v -6 -16 0
v -7 -16 0
v -7 -15 0
v -6 -15 0

# Texture cooridinates (Count = 22)
vt 0.1 0.4722222
vt 0.125 0.4722222
vt 0.125 0.5
vt 0.1 0.5
vt 0.55 0.3611111
vt 0.575 0.3611111
vt 0.575 0.3888889
vt 0.55 0.3888889
vt 0.55 0.3333333
vt 0.575 0.3333333
vt 0.55 0.3055556
vt 0.575 0.3055556
vt 0.55 0.2777778
vt 0.575 0.2777778
vt 0.55 0.25
vt 0.575 0.25
vt 0.55 0.2222222
vt 0.575 0.2222222
vt 0.05 0.5833334
vt 0.075 0.5833334
vt 0.075 0.6111111
vt 0.05 0.6111111

# Normal
vn 0 0 -1

# Mesh description
g Pueblo_mesh_0107

# Faces
f 1/1/1 2/2/1 3/3/1 4/4/1
f 5/1/1 6/2/1 7/3/1 8/4/1
f 9/5/1 10/6/1 11/7/1 12/8/1
f 13/1/1 14/2/1 15/3/1 16/4/1
f 17/9/1 18/10/1 19/6/1 20/5/1
f 21/1/1 22/2/1 23/3/1 24/4/1
f 25/11/1 26/12/1 27/10/1 28/9/1
f 29/1/1 30/2/1 31/3/1 32/4/1
f 33/13/1 34/14/1 35/12/1 36/11/1
f 37/1/1 38/2/1 39/3/1 40/4/1
f 41/15/1 42/16/1 43/14/1 44/13/1
f 45/1/1 46/2/1 47/3/1 48/4/1
f 49/17/1 50/18/1 51/16/1 52/15/1
f 53/1/1 54/2/1 55/3/1 56/4/1
f 57/1/1 58/2/1 59/3/1 60/4/1
f 61/19/1 62/20/1 63/21/1 64/22/1
f 65/1/1 66/2/1 67/3/1 68/4/1
f 69/1/1 70/2/1 71/3/1 72/4/1
f 73/1/1 74/2/1 75/3/1 76/4/1
f 77/1/1 78/2/1 79/3/1 80/4/1
f 81/19/1 82/20/1 83/21/1 84/22/1
f 85/1/1 86/2/1 87/3/1 88/4/1
f 89/1/1 90/2/1 91/3/1 92/4/1
f 93/1/1 94/2/1 95/3/1 96/4/1

