# Tiled2Unity generated file. Do not modify by hand.
# Wavefront file for 'Pueblo_mesh_0052.obj'

# Vertices (Count = 220)
v -69 -7 0
v -70 -7 0
v -70 -6 0
v -69 -6 0
v -79 -7 0
v -80 -7 0
v -80 -6 0
v -79 -6 0
v -68 -8 0
v -69 -8 0
v -69 -7 0
v -68 -7 0
v -69 -8 0
v -70 -8 0
v -70 -7 0
v -69 -7 0
v -78 -8 0
v -79 -8 0
v -79 -7 0
v -78 -7 0
v -79 -8 0
v -80 -8 0
v -80 -7 0
v -79 -7 0
v -64 -10 0
v -65 -10 0
v -65 -9 0
v -64 -9 0
v -83 -10 0
v -84 -10 0
v -84 -9 0
v -83 -9 0
v -41 -11 0
v -42 -11 0
v -42 -10 0
v -41 -10 0
v -64 -11 0
v -65 -11 0
v -65 -10 0
v -64 -10 0
v -66 -11 0
v -67 -11 0
v -67 -10 0
v -66 -10 0
v -81 -11 0
v -82 -11 0
v -82 -10 0
v -81 -10 0
v -83 -11 0
v -84 -11 0
v -84 -10 0
v -83 -10 0
v -63 -14 0
v -64 -14 0
v -64 -13 0
v -63 -13 0
v -64 -14 0
v -65 -14 0
v -65 -13 0
v -64 -13 0
v -83 -14 0
v -84 -14 0
v -84 -13 0
v -83 -13 0
v -84 -14 0
v -85 -14 0
v -85 -13 0
v -84 -13 0
v -63 -15 0
v -64 -15 0
v -64 -14 0
v -63 -14 0
v -64 -15 0
v -65 -15 0
v -65 -14 0
v -64 -14 0
v -83 -15 0
v -84 -15 0
v -84 -14 0
v -83 -14 0
v -84 -15 0
v -85 -15 0
v -85 -14 0
v -84 -14 0
v -64 -16 0
v -65 -16 0
v -65 -15 0
v -64 -15 0
v -83 -16 0
v -84 -16 0
v -84 -15 0
v -83 -15 0
v -69 -18 0
v -70 -18 0
v -70 -17 0
v -69 -17 0
v -78 -18 0
v -79 -18 0
v -79 -17 0
v -78 -17 0
v -69 -19 0
v -70 -19 0
v -70 -18 0
v -69 -18 0
v -78 -19 0
v -79 -19 0
v -79 -18 0
v -78 -18 0
v -66 -20 0
v -67 -20 0
v -67 -19 0
v -66 -19 0
v -67 -20 0
v -68 -20 0
v -68 -19 0
v -67 -19 0
v -69 -20 0
v -70 -20 0
v -70 -19 0
v -69 -19 0
v -78 -20 0
v -79 -20 0
v -79 -19 0
v -78 -19 0
v -80 -20 0
v -81 -20 0
v -81 -19 0
v -80 -19 0
v -81 -20 0
v -82 -20 0
v -82 -19 0
v -81 -19 0
v -67 -21 0
v -68 -21 0
v -68 -20 0
v -67 -20 0
v -69 -21 0
v -70 -21 0
v -70 -20 0
v -69 -20 0
v -78 -21 0
v -79 -21 0
v -79 -20 0
v -78 -20 0
v -80 -21 0
v -81 -21 0
v -81 -20 0
v -80 -20 0
v -69 -25 0
v -70 -25 0
v -70 -24 0
v -69 -24 0
v -78 -25 0
v -79 -25 0
v -79 -24 0
v -78 -24 0
v -69 -26 0
v -70 -26 0
v -70 -25 0
v -69 -25 0
v -78 -26 0
v -79 -26 0
v -79 -25 0
v -78 -25 0
v -41 -52 0
v -42 -52 0
v -42 -51 0
v -41 -51 0
v -41 -53 0
v -42 -53 0
v -42 -52 0
v -41 -52 0
v -21 -54 0
v -22 -54 0
v -22 -53 0
v -21 -53 0
v -22 -54 0
v -23 -54 0
v -23 -53 0
v -22 -53 0
v -23 -54 0
v -24 -54 0
v -24 -53 0
v -23 -53 0
v -61 -54 0
v -62 -54 0
v -62 -53 0
v -61 -53 0
v -62 -54 0
v -63 -54 0
v -63 -53 0
v -62 -53 0
v -63 -54 0
v -64 -54 0
v -64 -53 0
v -63 -53 0
v -21 -55 0
v -22 -55 0
v -22 -54 0
v -21 -54 0
v -22 -55 0
v -23 -55 0
v -23 -54 0
v -22 -54 0
v -23 -55 0
v -24 -55 0
v -24 -54 0
v -23 -54 0
v -61 -55 0
v -62 -55 0
v -62 -54 0
v -61 -54 0
v -62 -55 0
v -63 -55 0
v -63 -54 0
v -62 -54 0
v -63 -55 0
v -64 -55 0
v -64 -54 0
v -63 -54 0

# Texture cooridinates (Count = 74)
vt 0.25 0.3055556
vt 0.275 0.3055556
vt 0.275 0.3333333
vt 0.25 0.3333333
vt 0.3 0.3333333
vt 0.3 0.3611111
vt 0.275 0.3611111
vt 0.25 0.2777778
vt 0.275 0.2777778
vt 0.625 0.7777778
vt 0.65 0.7777778
vt 0.65 0.8055556
vt 0.625 0.8055556
vt 0.875 0.9444444
vt 0.9 0.9444444
vt 0.9 0.9722222
vt 0.875 0.9722222
vt 0.625 0.75
vt 0.65 0.75
vt 0.575 0.8333333
vt 0.575 0.8055556
vt 0.6 0.8055556
vt 0.6 0.8333333
vt 0.4 0.2222222
vt 0.425 0.2222222
vt 0.425 0.25
vt 0.4 0.25
vt 0.45 0.2222222
vt 0.45 0.25
vt 0.35 0.2222222
vt 0.375 0.2222222
vt 0.375 0.25
vt 0.35 0.25
vt 0.4 0.1944444
vt 0.425 0.1944444
vt 0.45 0.1944444
vt 0.35 0.1944444
vt 0.375 0.1944444
vt 0.125 0.2222222
vt 0.15 0.2222222
vt 0.15 0.25
vt 0.125 0.25
vt 0.125 0.1944444
vt 0.15 0.1944444
vt 0.25 0.3611111
vt 0.275 0.3888889
vt 0.25 0.3888889
vt 0.075 0.1111111
vt 0.1 0.1111111
vt 0.1 0.1388889
vt 0.075 0.1388889
vt 0.075 0.08333331
vt 0.1 0.08333331
vt 0.175 0.2222222
vt 0.175 0.25
vt 0.175 0.1944444
vt 0.6 0.4166667
vt 0.625 0.4166667
vt 0.625 0.4444444
vt 0.6 0.4444444
vt 0.4 0.2777778
vt 0.425 0.2777778
vt 0.425 0.3055556
vt 0.4 0.3055556
vt 0.45 0.2777778
vt 0.45 0.3055556
vt 0.575 0.4166667
vt 0.575 0.4444444
vt 0.65 0.4166667
vt 0.65 0.4444444
vt 0.6 0.3888889
vt 0.625 0.3888889
vt 0.575 0.3888889
vt 0.65 0.3888889

# Normal
vn 0 0 -1

# Mesh description
g Pueblo_mesh_0052

# Faces
f 1/1/1 2/2/1 3/3/1 4/4/1
f 5/1/1 6/2/1 7/3/1 8/4/1
f 9/3/1 10/5/1 11/6/1 12/7/1
f 13/8/1 14/9/1 15/2/1 16/1/1
f 17/3/1 18/5/1 19/6/1 20/7/1
f 21/8/1 22/9/1 23/2/1 24/1/1
f 25/10/1 26/11/1 27/12/1 28/13/1
f 29/10/1 30/11/1 31/12/1 32/13/1
f 33/14/1 34/15/1 35/16/1 36/17/1
f 37/18/1 38/19/1 39/11/1 40/10/1
f 41/20/1 42/21/1 43/22/1 44/23/1
f 45/22/1 46/23/1 47/20/1 48/21/1
f 49/18/1 50/19/1 51/11/1 52/10/1
f 53/24/1 54/25/1 55/26/1 56/27/1
f 57/25/1 58/28/1 59/29/1 60/26/1
f 61/30/1 62/31/1 63/32/1 64/33/1
f 65/31/1 66/24/1 67/27/1 68/32/1
f 69/34/1 70/35/1 71/25/1 72/24/1
f 73/35/1 74/36/1 75/28/1 76/25/1
f 77/37/1 78/38/1 79/31/1 80/30/1
f 81/38/1 82/34/1 83/24/1 84/31/1
f 85/3/1 86/5/1 87/6/1 88/7/1
f 89/3/1 90/5/1 91/6/1 92/7/1
f 93/39/1 94/40/1 95/41/1 96/42/1
f 97/39/1 98/40/1 99/41/1 100/42/1
f 101/43/1 102/44/1 103/40/1 104/39/1
f 105/43/1 106/44/1 107/40/1 108/39/1
f 109/3/1 110/5/1 111/6/1 112/7/1
f 113/45/1 114/7/1 115/46/1 116/47/1
f 117/48/1 118/49/1 119/50/1 120/51/1
f 121/48/1 122/49/1 123/50/1 124/51/1
f 125/45/1 126/7/1 127/46/1 128/47/1
f 129/3/1 130/5/1 131/6/1 132/7/1
f 133/4/1 134/3/1 135/7/1 136/45/1
f 137/52/1 138/53/1 139/49/1 140/48/1
f 141/52/1 142/53/1 143/49/1 144/48/1
f 145/4/1 146/3/1 147/7/1 148/45/1
f 149/40/1 150/54/1 151/55/1 152/41/1
f 153/40/1 154/54/1 155/55/1 156/41/1
f 157/44/1 158/56/1 159/54/1 160/40/1
f 161/44/1 162/56/1 163/54/1 164/40/1
f 165/48/1 166/49/1 167/50/1 168/51/1
f 169/52/1 170/53/1 171/49/1 172/48/1
f 173/57/1 174/58/1 175/59/1 176/60/1
f 177/61/1 178/62/1 179/63/1 180/64/1
f 181/62/1 182/65/1 183/66/1 184/63/1
f 185/67/1 186/57/1 187/60/1 188/68/1
f 189/58/1 190/69/1 191/70/1 192/59/1
f 193/67/1 194/57/1 195/60/1 196/68/1
f 197/71/1 198/72/1 199/58/1 200/57/1
f 201/27/1 202/26/1 203/62/1 204/61/1
f 205/26/1 206/29/1 207/65/1 208/62/1
f 209/73/1 210/71/1 211/57/1 212/67/1
f 213/72/1 214/74/1 215/69/1 216/58/1
f 217/73/1 218/71/1 219/57/1 220/67/1

