# Tiled2Unity generated file. Do not modify by hand.
# Wavefront file for 'Pueblo_mesh_0118.obj'

# Vertices (Count = 32)
v -3 -10 0
v -4 -10 0
v -4 -9 0
v -3 -9 0
v -1 -11 0
v -2 -11 0
v -2 -10 0
v -1 -10 0
v -3 -11 0
v -4 -11 0
v -4 -10 0
v -3 -10 0
v -3 -14 0
v -4 -14 0
v -4 -13 0
v -3 -13 0
v -4 -14 0
v -5 -14 0
v -5 -13 0
v -4 -13 0
v -3 -15 0
v -4 -15 0
v -4 -14 0
v -3 -14 0
v -4 -15 0
v -5 -15 0
v -5 -14 0
v -4 -14 0
v -3 -16 0
v -4 -16 0
v -4 -15 0
v -3 -15 0

# Texture cooridinates (Count = 23)
vt 0.625 0.7777778
vt 0.65 0.7777778
vt 0.65 0.8055556
vt 0.625 0.8055556
vt 0.6 0.8055556
vt 0.6 0.8333333
vt 0.575 0.8333333
vt 0.575 0.8055556
vt 0.625 0.75
vt 0.65 0.75
vt 0.35 0.2222222
vt 0.375 0.2222222
vt 0.375 0.25
vt 0.35 0.25
vt 0.4 0.2222222
vt 0.4 0.25
vt 0.35 0.1944444
vt 0.375 0.1944444
vt 0.4 0.1944444
vt 0.275 0.3333333
vt 0.3 0.3333333
vt 0.3 0.3611111
vt 0.275 0.3611111

# Normal
vn 0 0 -1

# Mesh description
g Pueblo_mesh_0118

# Faces
f 1/1/1 2/2/1 3/3/1 4/4/1
f 5/5/1 6/6/1 7/7/1 8/8/1
f 9/9/1 10/10/1 11/2/1 12/1/1
f 13/11/1 14/12/1 15/13/1 16/14/1
f 17/12/1 18/15/1 19/16/1 20/13/1
f 21/17/1 22/18/1 23/12/1 24/11/1
f 25/18/1 26/19/1 27/15/1 28/12/1
f 29/20/1 30/21/1 31/22/1 32/23/1

