# Tiled2Unity generated file. Do not modify by hand.
# Wavefront file for 'Pueblo_mesh_0097.obj'

# Vertices (Count = 160)
v -2 -1 0
v -3 -1 0
v -3 0 0
v -2 0 0
v -1 -2 0
v -2 -2 0
v -2 -1 0
v -1 -1 0
v -2 -2 0
v -3 -2 0
v -3 -1 0
v -2 -1 0
v 0 -3 0
v -1 -3 0
v -1 -2 0
v 0 -2 0
v -1 -3 0
v -2 -3 0
v -2 -2 0
v -1 -2 0
v 0 -4 0
v -1 -4 0
v -1 -3 0
v 0 -3 0
v -15 -7 0
v -16 -7 0
v -16 -6 0
v -15 -6 0
v -15 -8 0
v -16 -8 0
v -16 -7 0
v -15 -7 0
v 0 -11 0
v -1 -11 0
v -1 -10 0
v 0 -10 0
v -5 -11 0
v -6 -11 0
v -6 -10 0
v -5 -10 0
v -6 -11 0
v -7 -11 0
v -7 -10 0
v -6 -10 0
v -7 -11 0
v -8 -11 0
v -8 -10 0
v -7 -10 0
v -8 -11 0
v -9 -11 0
v -9 -10 0
v -8 -10 0
v -9 -11 0
v -10 -11 0
v -10 -10 0
v -9 -10 0
v -10 -11 0
v -11 -11 0
v -11 -10 0
v -10 -10 0
v -11 -11 0
v -12 -11 0
v -12 -10 0
v -11 -10 0
v -12 -11 0
v -13 -11 0
v -13 -10 0
v -12 -10 0
v -13 -11 0
v -14 -11 0
v -14 -10 0
v -13 -10 0
v -14 -11 0
v -15 -11 0
v -15 -10 0
v -14 -10 0
v -15 -11 0
v -16 -11 0
v -16 -10 0
v -15 -10 0
v -6 -13 0
v -7 -13 0
v -7 -12 0
v -6 -12 0
v -7 -13 0
v -8 -13 0
v -8 -12 0
v -7 -12 0
v -8 -13 0
v -9 -13 0
v -9 -12 0
v -8 -12 0
v -9 -13 0
v -10 -13 0
v -10 -12 0
v -9 -12 0
v -10 -13 0
v -11 -13 0
v -11 -12 0
v -10 -12 0
v -6 -14 0
v -7 -14 0
v -7 -13 0
v -6 -13 0
v -7 -14 0
v -8 -14 0
v -8 -13 0
v -7 -13 0
v -8 -14 0
v -9 -14 0
v -9 -13 0
v -8 -13 0
v -9 -14 0
v -10 -14 0
v -10 -13 0
v -9 -13 0
v -10 -14 0
v -11 -14 0
v -11 -13 0
v -10 -13 0
v -6 -15 0
v -7 -15 0
v -7 -14 0
v -6 -14 0
v -7 -15 0
v -8 -15 0
v -8 -14 0
v -7 -14 0
v -8 -15 0
v -9 -15 0
v -9 -14 0
v -8 -14 0
v -9 -15 0
v -10 -15 0
v -10 -14 0
v -9 -14 0
v -10 -15 0
v -11 -15 0
v -11 -14 0
v -10 -14 0
v -6 -16 0
v -7 -16 0
v -7 -15 0
v -6 -15 0
v -7 -16 0
v -8 -16 0
v -8 -15 0
v -7 -15 0
v -8 -16 0
v -9 -16 0
v -9 -15 0
v -8 -15 0
v -9 -16 0
v -10 -16 0
v -10 -15 0
v -9 -15 0
v -10 -16 0
v -11 -16 0
v -11 -15 0
v -10 -15 0

# Texture cooridinates (Count = 54)
vt 0.1 0.7777778
vt 0.125 0.7777778
vt 0.125 0.8055556
vt 0.1 0.8055556
vt 0.05 0.7222222
vt 0.075 0.7222222
vt 0.075 0.75
vt 0.05 0.75
vt 0.1 0.75
vt 0.125 0.75
vt 0.125 0.5277778
vt 0.15 0.5277778
vt 0.15 0.5555556
vt 0.125 0.5555556
vt 0.125 0.5
vt 0.15 0.5
vt 0.025 0.4444444
vt 0.05 0.4444444
vt 0.05 0.4722222
vt 0.025 0.4722222
vt 0 0.4444444
vt 0 0.4722222
vt 0.1 0.5
vt 0.1 0.5277778
vt 0.15 0.9722222
vt 0.175 0.9722222
vt 0.175 1
vt 0.15 1
vt 0.2 0.9722222
vt 0.2 1
vt 0.225 0.9722222
vt 0.225 1
vt 0.25 0.9722222
vt 0.25 1
vt 0.275 0.9722222
vt 0.275 1
vt 0.15 0.9444444
vt 0.175 0.9444444
vt 0.2 0.9444444
vt 0.225 0.9444444
vt 0.25 0.9444444
vt 0.275 0.9444444
vt 0.15 0.9166667
vt 0.175 0.9166667
vt 0.2 0.9166667
vt 0.225 0.9166667
vt 0.25 0.9166667
vt 0.275 0.9166667
vt 0.15 0.8888889
vt 0.175 0.8888889
vt 0.2 0.8888889
vt 0.225 0.8888889
vt 0.25 0.8888889
vt 0.275 0.8888889

# Normal
vn 0 0 -1

# Mesh description
g Pueblo_mesh_0097

# Faces
f 1/1/1 2/2/1 3/3/1 4/4/1
f 5/5/1 6/6/1 7/7/1 8/8/1
f 9/9/1 10/10/1 11/2/1 12/1/1
f 13/5/1 14/6/1 15/7/1 16/8/1
f 17/9/1 18/10/1 19/2/1 20/1/1
f 21/9/1 22/10/1 23/2/1 24/1/1
f 25/11/1 26/12/1 27/13/1 28/14/1
f 29/15/1 30/16/1 31/12/1 32/11/1
f 33/17/1 34/18/1 35/19/1 36/20/1
f 37/21/1 38/17/1 39/20/1 40/22/1
f 41/23/1 42/15/1 43/11/1 44/24/1
f 45/23/1 46/15/1 47/11/1 48/24/1
f 49/23/1 50/15/1 51/11/1 52/24/1
f 53/23/1 54/15/1 55/11/1 56/24/1
f 57/23/1 58/15/1 59/11/1 60/24/1
f 61/23/1 62/15/1 63/11/1 64/24/1
f 65/23/1 66/15/1 67/11/1 68/24/1
f 69/23/1 70/15/1 71/11/1 72/24/1
f 73/23/1 74/15/1 75/11/1 76/24/1
f 77/23/1 78/15/1 79/11/1 80/24/1
f 81/25/1 82/26/1 83/27/1 84/28/1
f 85/26/1 86/29/1 87/30/1 88/27/1
f 89/29/1 90/31/1 91/32/1 92/30/1
f 93/31/1 94/33/1 95/34/1 96/32/1
f 97/33/1 98/35/1 99/36/1 100/34/1
f 101/37/1 102/38/1 103/26/1 104/25/1
f 105/38/1 106/39/1 107/29/1 108/26/1
f 109/39/1 110/40/1 111/31/1 112/29/1
f 113/40/1 114/41/1 115/33/1 116/31/1
f 117/41/1 118/42/1 119/35/1 120/33/1
f 121/43/1 122/44/1 123/38/1 124/37/1
f 125/44/1 126/45/1 127/39/1 128/38/1
f 129/45/1 130/46/1 131/40/1 132/39/1
f 133/46/1 134/47/1 135/41/1 136/40/1
f 137/47/1 138/48/1 139/42/1 140/41/1
f 141/49/1 142/50/1 143/44/1 144/43/1
f 145/50/1 146/51/1 147/45/1 148/44/1
f 149/51/1 150/52/1 151/46/1 152/45/1
f 153/52/1 154/53/1 155/47/1 156/46/1
f 157/53/1 158/54/1 159/48/1 160/47/1

