# Tiled2Unity generated file. Do not modify by hand.
# Wavefront file for 'Pueblo_mesh_0084.obj'

# Vertices (Count = 516)
v 0 -1 0
v -1 -1 0
v -1 0 0
v 0 0 0
v -1 -1 0
v -2 -1 0
v -2 0 0
v -1 0 0
v -2 -1 0
v -3 -1 0
v -3 0 0
v -2 0 0
v 0 -2 0
v -1 -2 0
v -1 -1 0
v 0 -1 0
v -1 -2 0
v -2 -2 0
v -2 -1 0
v -1 -1 0
v -2 -2 0
v -3 -2 0
v -3 -1 0
v -2 -1 0
v 0 -3 0
v -1 -3 0
v -1 -2 0
v 0 -2 0
v -1 -3 0
v -2 -3 0
v -2 -2 0
v -1 -2 0
v -2 -3 0
v -3 -3 0
v -3 -2 0
v -2 -2 0
v 0 -4 0
v -1 -4 0
v -1 -3 0
v 0 -3 0
v -1 -4 0
v -2 -4 0
v -2 -3 0
v -1 -3 0
v -2 -4 0
v -3 -4 0
v -3 -3 0
v -2 -3 0
v -3 -4 0
v -4 -4 0
v -4 -3 0
v -3 -3 0
v -4 -4 0
v -5 -4 0
v -5 -3 0
v -4 -3 0
v -5 -4 0
v -6 -4 0
v -6 -3 0
v -5 -3 0
v -6 -4 0
v -7 -4 0
v -7 -3 0
v -6 -3 0
v -7 -4 0
v -8 -4 0
v -8 -3 0
v -7 -3 0
v -8 -4 0
v -9 -4 0
v -9 -3 0
v -8 -3 0
v -9 -4 0
v -10 -4 0
v -10 -3 0
v -9 -3 0
v -10 -4 0
v -11 -4 0
v -11 -3 0
v -10 -3 0
v -11 -4 0
v -12 -4 0
v -12 -3 0
v -11 -3 0
v -12 -4 0
v -13 -4 0
v -13 -3 0
v -12 -3 0
v -13 -4 0
v -14 -4 0
v -14 -3 0
v -13 -3 0
v -14 -4 0
v -15 -4 0
v -15 -3 0
v -14 -3 0
v -15 -4 0
v -16 -4 0
v -16 -3 0
v -15 -3 0
v 0 -5 0
v -1 -5 0
v -1 -4 0
v 0 -4 0
v -1 -5 0
v -2 -5 0
v -2 -4 0
v -1 -4 0
v -2 -5 0
v -3 -5 0
v -3 -4 0
v -2 -4 0
v -3 -5 0
v -4 -5 0
v -4 -4 0
v -3 -4 0
v -4 -5 0
v -5 -5 0
v -5 -4 0
v -4 -4 0
v -5 -5 0
v -6 -5 0
v -6 -4 0
v -5 -4 0
v -6 -5 0
v -7 -5 0
v -7 -4 0
v -6 -4 0
v -13 -5 0
v -14 -5 0
v -14 -4 0
v -13 -4 0
v -14 -5 0
v -15 -5 0
v -15 -4 0
v -14 -4 0
v -15 -5 0
v -16 -5 0
v -16 -4 0
v -15 -4 0
v 0 -6 0
v -1 -6 0
v -1 -5 0
v 0 -5 0
v -1 -6 0
v -2 -6 0
v -2 -5 0
v -1 -5 0
v -2 -6 0
v -3 -6 0
v -3 -5 0
v -2 -5 0
v -3 -6 0
v -4 -6 0
v -4 -5 0
v -3 -5 0
v -4 -6 0
v -5 -6 0
v -5 -5 0
v -4 -5 0
v -5 -6 0
v -6 -6 0
v -6 -5 0
v -5 -5 0
v -6 -6 0
v -7 -6 0
v -7 -5 0
v -6 -5 0
v -8 -6 0
v -9 -6 0
v -9 -5 0
v -8 -5 0
v -9 -6 0
v -10 -6 0
v -10 -5 0
v -9 -5 0
v -10 -6 0
v -11 -6 0
v -11 -5 0
v -10 -5 0
v -11 -6 0
v -12 -6 0
v -12 -5 0
v -11 -5 0
v -13 -6 0
v -14 -6 0
v -14 -5 0
v -13 -5 0
v -14 -6 0
v -15 -6 0
v -15 -5 0
v -14 -5 0
v -15 -6 0
v -16 -6 0
v -16 -5 0
v -15 -5 0
v 0 -7 0
v -1 -7 0
v -1 -6 0
v 0 -6 0
v -1 -7 0
v -2 -7 0
v -2 -6 0
v -1 -6 0
v -2 -7 0
v -3 -7 0
v -3 -6 0
v -2 -6 0
v -3 -7 0
v -4 -7 0
v -4 -6 0
v -3 -6 0
v -4 -7 0
v -5 -7 0
v -5 -6 0
v -4 -6 0
v -5 -7 0
v -6 -7 0
v -6 -6 0
v -5 -6 0
v -6 -7 0
v -7 -7 0
v -7 -6 0
v -6 -6 0
v -8 -7 0
v -9 -7 0
v -9 -6 0
v -8 -6 0
v -9 -7 0
v -10 -7 0
v -10 -6 0
v -9 -6 0
v -10 -7 0
v -11 -7 0
v -11 -6 0
v -10 -6 0
v -11 -7 0
v -12 -7 0
v -12 -6 0
v -11 -6 0
v -13 -7 0
v -14 -7 0
v -14 -6 0
v -13 -6 0
v -14 -7 0
v -15 -7 0
v -15 -6 0
v -14 -6 0
v -15 -7 0
v -16 -7 0
v -16 -6 0
v -15 -6 0
v 0 -8 0
v -1 -8 0
v -1 -7 0
v 0 -7 0
v -1 -8 0
v -2 -8 0
v -2 -7 0
v -1 -7 0
v -2 -8 0
v -3 -8 0
v -3 -7 0
v -2 -7 0
v -3 -8 0
v -4 -8 0
v -4 -7 0
v -3 -7 0
v -4 -8 0
v -5 -8 0
v -5 -7 0
v -4 -7 0
v -5 -8 0
v -6 -8 0
v -6 -7 0
v -5 -7 0
v -6 -8 0
v -7 -8 0
v -7 -7 0
v -6 -7 0
v -8 -8 0
v -9 -8 0
v -9 -7 0
v -8 -7 0
v -9 -8 0
v -10 -8 0
v -10 -7 0
v -9 -7 0
v -10 -8 0
v -11 -8 0
v -11 -7 0
v -10 -7 0
v -11 -8 0
v -12 -8 0
v -12 -7 0
v -11 -7 0
v -13 -8 0
v -14 -8 0
v -14 -7 0
v -13 -7 0
v -14 -8 0
v -15 -8 0
v -15 -7 0
v -14 -7 0
v -15 -8 0
v -16 -8 0
v -16 -7 0
v -15 -7 0
v 0 -9 0
v -1 -9 0
v -1 -8 0
v 0 -8 0
v -1 -9 0
v -2 -9 0
v -2 -8 0
v -1 -8 0
v -2 -9 0
v -3 -9 0
v -3 -8 0
v -2 -8 0
v -3 -9 0
v -4 -9 0
v -4 -8 0
v -3 -8 0
v -4 -9 0
v -5 -9 0
v -5 -8 0
v -4 -8 0
v -5 -9 0
v -6 -9 0
v -6 -8 0
v -5 -8 0
v -6 -9 0
v -7 -9 0
v -7 -8 0
v -6 -8 0
v -8 -9 0
v -9 -9 0
v -9 -8 0
v -8 -8 0
v -9 -9 0
v -10 -9 0
v -10 -8 0
v -9 -8 0
v -10 -9 0
v -11 -9 0
v -11 -8 0
v -10 -8 0
v -11 -9 0
v -12 -9 0
v -12 -8 0
v -11 -8 0
v -13 -9 0
v -14 -9 0
v -14 -8 0
v -13 -8 0
v -14 -9 0
v -15 -9 0
v -15 -8 0
v -14 -8 0
v -15 -9 0
v -16 -9 0
v -16 -8 0
v -15 -8 0
v 0 -10 0
v -1 -10 0
v -1 -9 0
v 0 -9 0
v -1 -10 0
v -2 -10 0
v -2 -9 0
v -1 -9 0
v -4 -10 0
v -5 -10 0
v -5 -9 0
v -4 -9 0
v -5 -10 0
v -6 -10 0
v -6 -9 0
v -5 -9 0
v -6 -10 0
v -7 -10 0
v -7 -9 0
v -6 -9 0
v -7 -10 0
v -8 -10 0
v -8 -9 0
v -7 -9 0
v -8 -10 0
v -9 -10 0
v -9 -9 0
v -8 -9 0
v -11 -10 0
v -12 -10 0
v -12 -9 0
v -11 -9 0
v -12 -10 0
v -13 -10 0
v -13 -9 0
v -12 -9 0
v -13 -10 0
v -14 -10 0
v -14 -9 0
v -13 -9 0
v -14 -10 0
v -15 -10 0
v -15 -9 0
v -14 -9 0
v -15 -10 0
v -16 -10 0
v -16 -9 0
v -15 -9 0
v -4 -11 0
v -5 -11 0
v -5 -10 0
v -4 -10 0
v -5 -11 0
v -6 -11 0
v -6 -10 0
v -5 -10 0
v -6 -11 0
v -7 -11 0
v -7 -10 0
v -6 -10 0
v -7 -11 0
v -8 -11 0
v -8 -10 0
v -7 -10 0
v -8 -11 0
v -9 -11 0
v -9 -10 0
v -8 -10 0
v -11 -11 0
v -12 -11 0
v -12 -10 0
v -11 -10 0
v -12 -11 0
v -13 -11 0
v -13 -10 0
v -12 -10 0
v -13 -11 0
v -14 -11 0
v -14 -10 0
v -13 -10 0
v -14 -11 0
v -15 -11 0
v -15 -10 0
v -14 -10 0
v -15 -11 0
v -16 -11 0
v -16 -10 0
v -15 -10 0
v -4 -12 0
v -5 -12 0
v -5 -11 0
v -4 -11 0
v -5 -12 0
v -6 -12 0
v -6 -11 0
v -5 -11 0
v -6 -12 0
v -7 -12 0
v -7 -11 0
v -6 -11 0
v -7 -12 0
v -8 -12 0
v -8 -11 0
v -7 -11 0
v -8 -12 0
v -9 -12 0
v -9 -11 0
v -8 -11 0
v -11 -12 0
v -12 -12 0
v -12 -11 0
v -11 -11 0
v -12 -12 0
v -13 -12 0
v -13 -11 0
v -12 -11 0
v -13 -12 0
v -14 -12 0
v -14 -11 0
v -13 -11 0
v -14 -12 0
v -15 -12 0
v -15 -11 0
v -14 -11 0
v -15 -12 0
v -16 -12 0
v -16 -11 0
v -15 -11 0
v -4 -13 0
v -5 -13 0
v -5 -12 0
v -4 -12 0
v -5 -13 0
v -6 -13 0
v -6 -12 0
v -5 -12 0
v -6 -13 0
v -7 -13 0
v -7 -12 0
v -6 -12 0
v -13 -13 0
v -14 -13 0
v -14 -12 0
v -13 -12 0
v -14 -13 0
v -15 -13 0
v -15 -12 0
v -14 -12 0
v -15 -13 0
v -16 -13 0
v -16 -12 0
v -15 -12 0

# Texture cooridinates (Count = 110)
vt 0.575 0.9444444
vt 0.6 0.9444444
vt 0.6 0.9722222
vt 0.575 0.9722222
vt 0.625 0.9444444
vt 0.625 0.9722222
vt 0.625 0.8333333
vt 0.65 0.8333333
vt 0.65 0.8611111
vt 0.625 0.8611111
vt 0.1 0.3611111
vt 0.125 0.3611111
vt 0.125 0.3888889
vt 0.1 0.3888889
vt 0.15 0.3611111
vt 0.15 0.3888889
vt 0.1 0.3333333
vt 0.125 0.3333333
vt 0.15 0.3333333
vt 0.1 0.3055556
vt 0.125 0.3055556
vt 0.15 0.3055556
vt 0.6 1
vt 0.575 1
vt 0.1 0.2777778
vt 0.125 0.2777778
vt 0.15 0.2777778
vt 0.575 0.9166667
vt 0.6 0.9166667
vt 0.075 0.3611111
vt 0.075 0.3888889
vt 0.025 0.3055556
vt 0.05 0.3055556
vt 0.05 0.3333333
vt 0.025 0.3333333
vt 0.075 0.3055556
vt 0.075 0.3333333
vt 0.55 0.8888889
vt 0.575 0.8888889
vt 0.55 0.9166667
vt 0.6 0.8888889
vt 0.1 0.1111111
vt 0.125 0.1111111
vt 0.125 0.1388889
vt 0.1 0.1388889
vt 0.15 0.1111111
vt 0.15 0.1388889
vt 0.175 0.1111111
vt 0.175 0.1388889
vt 0.2 0.1111111
vt 0.2 0.1388889
vt 0.65 0.9722222
vt 0.675 0.9722222
vt 0.675 1
vt 0.65 1
vt 0.05 0.2777778
vt 0.075 0.2777778
vt 0.55 0.8611111
vt 0.575 0.8611111
vt 0.6 0.8611111
vt 0.1 0.08333331
vt 0.125 0.08333331
vt 0.15 0.08333331
vt 0.175 0.08333331
vt 0.2 0.08333331
vt 0.025 0.25
vt 0.05 0.25
vt 0.025 0.2777778
vt 0.075 0.25
vt 0.525 0.8611111
vt 0.525 0.8888889
vt 0.525 0.8333333
vt 0.55 0.8333333
vt 0.1 0.05555558
vt 0.125 0.05555558
vt 0.15 0.05555558
vt 0.175 0.05555558
vt 0.2 0.05555558
vt 0.025 0.2222222
vt 0.05 0.2222222
vt 0.075 0.2222222
vt 0.55 0.8055556
vt 0.575 0.8055556
vt 0.575 0.8333333
vt 0.6 0.8055556
vt 0.6 0.8333333
vt 0.1 0.25
vt 0.125 0.25
vt 0.15 0.25
vt 0.1 0.02777779
vt 0.125 0.02777779
vt 0.15 0.02777779
vt 0.175 0.02777779
vt 0.2 0.02777779
vt 0.025 0.1944444
vt 0.05 0.1944444
vt 0.075 0.1944444
vt 0 0.2777778
vt 0 0.3055556
vt 0.225 0.1111111
vt 0.225 0.1388889
vt 0.25 0.1111111
vt 0.25 0.1388889
vt 0 0.25
vt 0.225 0.08333331
vt 0.25 0.08333331
vt 0 0.2222222
vt 0.225 0.05555558
vt 0.25 0.05555558
vt 0 0.1944444

# Normal
vn 0 0 -1

# Mesh description
g Pueblo_mesh_0084

# Faces
f 1/1/1 2/2/1 3/3/1 4/4/1
f 5/2/1 6/5/1 7/6/1 8/3/1
f 9/7/1 10/8/1 11/9/1 12/10/1
f 13/11/1 14/12/1 15/13/1 16/14/1
f 17/12/1 18/15/1 19/16/1 20/13/1
f 21/7/1 22/8/1 23/9/1 24/10/1
f 25/17/1 26/18/1 27/12/1 28/11/1
f 29/18/1 30/19/1 31/15/1 32/12/1
f 33/7/1 34/8/1 35/9/1 36/10/1
f 37/20/1 38/21/1 39/18/1 40/17/1
f 41/21/1 42/22/1 43/19/1 44/18/1
f 45/4/1 46/3/1 47/23/1 48/24/1
f 49/4/1 50/3/1 51/23/1 52/24/1
f 53/4/1 54/3/1 55/23/1 56/24/1
f 57/4/1 58/3/1 59/23/1 60/24/1
f 61/4/1 62/3/1 63/23/1 64/24/1
f 65/4/1 66/3/1 67/23/1 68/24/1
f 69/4/1 70/3/1 71/23/1 72/24/1
f 73/4/1 74/3/1 75/23/1 76/24/1
f 77/4/1 78/3/1 79/23/1 80/24/1
f 81/4/1 82/3/1 83/23/1 84/24/1
f 85/4/1 86/3/1 87/23/1 88/24/1
f 89/4/1 90/3/1 91/23/1 92/24/1
f 93/4/1 94/3/1 95/23/1 96/24/1
f 97/4/1 98/3/1 99/23/1 100/24/1
f 101/25/1 102/26/1 103/21/1 104/20/1
f 105/26/1 106/27/1 107/22/1 108/21/1
f 109/28/1 110/29/1 111/2/1 112/1/1
f 113/28/1 114/29/1 115/2/1 116/1/1
f 117/30/1 118/11/1 119/14/1 120/31/1
f 121/11/1 122/12/1 123/13/1 124/14/1
f 125/12/1 126/15/1 127/16/1 128/13/1
f 129/30/1 130/11/1 131/14/1 132/31/1
f 133/11/1 134/12/1 135/13/1 136/14/1
f 137/12/1 138/15/1 139/16/1 140/13/1
f 141/32/1 142/33/1 143/34/1 144/35/1
f 145/33/1 146/36/1 147/37/1 148/34/1
f 149/38/1 150/39/1 151/28/1 152/40/1
f 153/39/1 154/41/1 155/29/1 156/28/1
f 157/37/1 158/17/1 159/11/1 160/30/1
f 161/17/1 162/18/1 163/12/1 164/11/1
f 165/18/1 166/19/1 167/15/1 168/12/1
f 169/42/1 170/43/1 171/44/1 172/45/1
f 173/43/1 174/46/1 175/47/1 176/44/1
f 177/46/1 178/48/1 179/49/1 180/47/1
f 181/48/1 182/50/1 183/51/1 184/49/1
f 185/37/1 186/17/1 187/11/1 188/30/1
f 189/17/1 190/18/1 191/12/1 192/11/1
f 193/18/1 194/19/1 195/15/1 196/12/1
f 197/52/1 198/53/1 199/54/1 200/55/1
f 201/56/1 202/57/1 203/36/1 204/33/1
f 205/58/1 206/59/1 207/39/1 208/38/1
f 209/59/1 210/60/1 211/41/1 212/39/1
f 213/36/1 214/20/1 215/17/1 216/37/1
f 217/20/1 218/21/1 219/18/1 220/17/1
f 221/21/1 222/22/1 223/19/1 224/18/1
f 225/61/1 226/62/1 227/43/1 228/42/1
f 229/62/1 230/63/1 231/46/1 232/43/1
f 233/63/1 234/64/1 235/48/1 236/46/1
f 237/64/1 238/65/1 239/50/1 240/48/1
f 241/36/1 242/20/1 243/17/1 244/37/1
f 245/20/1 246/21/1 247/18/1 248/17/1
f 249/21/1 250/22/1 251/19/1 252/18/1
f 253/66/1 254/67/1 255/56/1 256/68/1
f 257/67/1 258/69/1 259/57/1 260/56/1
f 261/70/1 262/58/1 263/38/1 264/71/1
f 265/72/1 266/73/1 267/58/1 268/70/1
f 269/57/1 270/25/1 271/20/1 272/36/1
f 273/25/1 274/26/1 275/21/1 276/20/1
f 277/26/1 278/27/1 279/22/1 280/21/1
f 281/74/1 282/75/1 283/62/1 284/61/1
f 285/75/1 286/76/1 287/63/1 288/62/1
f 289/76/1 290/77/1 291/64/1 292/63/1
f 293/77/1 294/78/1 295/65/1 296/64/1
f 297/57/1 298/25/1 299/20/1 300/36/1
f 301/25/1 302/26/1 303/21/1 304/20/1
f 305/26/1 306/27/1 307/22/1 308/21/1
f 309/79/1 310/80/1 311/67/1 312/66/1
f 313/80/1 314/81/1 315/69/1 316/67/1
f 317/82/1 318/83/1 319/84/1 320/73/1
f 321/83/1 322/85/1 323/86/1 324/84/1
f 325/69/1 326/87/1 327/25/1 328/57/1
f 329/87/1 330/88/1 331/26/1 332/25/1
f 333/88/1 334/89/1 335/27/1 336/26/1
f 337/90/1 338/91/1 339/75/1 340/74/1
f 341/91/1 342/92/1 343/76/1 344/75/1
f 345/92/1 346/93/1 347/77/1 348/76/1
f 349/93/1 350/94/1 351/78/1 352/77/1
f 353/69/1 354/87/1 355/25/1 356/57/1
f 357/87/1 358/88/1 359/26/1 360/25/1
f 361/88/1 362/89/1 363/27/1 364/26/1
f 365/95/1 366/96/1 367/80/1 368/79/1
f 369/96/1 370/97/1 371/81/1 372/80/1
f 373/98/1 374/68/1 375/32/1 376/99/1
f 377/68/1 378/56/1 379/33/1 380/32/1
f 381/56/1 382/57/1 383/36/1 384/33/1
f 385/50/1 386/100/1 387/101/1 388/51/1
f 389/100/1 390/102/1 391/103/1 392/101/1
f 393/50/1 394/100/1 395/101/1 396/51/1
f 397/100/1 398/102/1 399/103/1 400/101/1
f 401/98/1 402/68/1 403/32/1 404/99/1
f 405/68/1 406/56/1 407/33/1 408/32/1
f 409/56/1 410/57/1 411/36/1 412/33/1
f 413/104/1 414/66/1 415/68/1 416/98/1
f 417/66/1 418/67/1 419/56/1 420/68/1
f 421/67/1 422/69/1 423/57/1 424/56/1
f 425/65/1 426/105/1 427/100/1 428/50/1
f 429/105/1 430/106/1 431/102/1 432/100/1
f 433/65/1 434/105/1 435/100/1 436/50/1
f 437/105/1 438/106/1 439/102/1 440/100/1
f 441/104/1 442/66/1 443/68/1 444/98/1
f 445/66/1 446/67/1 447/56/1 448/68/1
f 449/67/1 450/69/1 451/57/1 452/56/1
f 453/107/1 454/79/1 455/66/1 456/104/1
f 457/79/1 458/80/1 459/67/1 460/66/1
f 461/80/1 462/81/1 463/69/1 464/67/1
f 465/78/1 466/108/1 467/105/1 468/65/1
f 469/108/1 470/109/1 471/106/1 472/105/1
f 473/78/1 474/108/1 475/105/1 476/65/1
f 477/108/1 478/109/1 479/106/1 480/105/1
f 481/107/1 482/79/1 483/66/1 484/104/1
f 485/79/1 486/80/1 487/67/1 488/66/1
f 489/80/1 490/81/1 491/69/1 492/67/1
f 493/110/1 494/95/1 495/79/1 496/107/1
f 497/95/1 498/96/1 499/80/1 500/79/1
f 501/96/1 502/97/1 503/81/1 504/80/1
f 505/110/1 506/95/1 507/79/1 508/107/1
f 509/95/1 510/96/1 511/80/1 512/79/1
f 513/96/1 514/97/1 515/81/1 516/80/1

