# Tiled2Unity generated file. Do not modify by hand.
# Wavefront file for 'Pueblo_mesh_0066.obj'

# Vertices (Count = 72)
v -6 -4 0
v -7 -4 0
v -7 -3 0
v -6 -3 0
v -7 -4 0
v -8 -4 0
v -8 -3 0
v -7 -3 0
v -8 -4 0
v -9 -4 0
v -9 -3 0
v -8 -3 0
v -9 -4 0
v -10 -4 0
v -10 -3 0
v -9 -3 0
v -10 -4 0
v -11 -4 0
v -11 -3 0
v -10 -3 0
v -6 -5 0
v -7 -5 0
v -7 -4 0
v -6 -4 0
v -7 -5 0
v -8 -5 0
v -8 -4 0
v -7 -4 0
v -8 -5 0
v -9 -5 0
v -9 -4 0
v -8 -4 0
v -9 -5 0
v -10 -5 0
v -10 -4 0
v -9 -4 0
v -10 -5 0
v -11 -5 0
v -11 -4 0
v -10 -4 0
v -6 -6 0
v -7 -6 0
v -7 -5 0
v -6 -5 0
v -7 -6 0
v -8 -6 0
v -8 -5 0
v -7 -5 0
v -8 -6 0
v -9 -6 0
v -9 -5 0
v -8 -5 0
v -9 -6 0
v -10 -6 0
v -10 -5 0
v -9 -5 0
v -10 -6 0
v -11 -6 0
v -11 -5 0
v -10 -5 0
v -6 -7 0
v -7 -7 0
v -7 -6 0
v -6 -6 0
v -8 -7 0
v -9 -7 0
v -9 -6 0
v -8 -6 0
v -10 -7 0
v -11 -7 0
v -11 -6 0
v -10 -6 0

# Texture cooridinates (Count = 16)
vt 0.45 0.8055556
vt 0.475 0.8055556
vt 0.475 0.8333333
vt 0.45 0.8333333
vt 0.5 0.8055556
vt 0.5 0.8333333
vt 0.525 0.8055556
vt 0.525 0.8333333
vt 0.45 0.7777778
vt 0.475 0.7777778
vt 0.5 0.7777778
vt 0.525 0.7777778
vt 0.45 0.75
vt 0.475 0.75
vt 0.5 0.75
vt 0.525 0.75

# Normal
vn 0 0 -1

# Mesh description
g Pueblo_mesh_0066

# Faces
f 1/1/1 2/2/1 3/3/1 4/4/1
f 5/1/1 6/2/1 7/3/1 8/4/1
f 9/1/1 10/2/1 11/3/1 12/4/1
f 13/2/1 14/5/1 15/6/1 16/3/1
f 17/5/1 18/7/1 19/8/1 20/6/1
f 21/9/1 22/10/1 23/2/1 24/1/1
f 25/9/1 26/10/1 27/2/1 28/1/1
f 29/10/1 30/11/1 31/5/1 32/2/1
f 33/11/1 34/12/1 35/7/1 36/5/1
f 37/11/1 38/12/1 39/7/1 40/5/1
f 41/9/1 42/10/1 43/2/1 44/1/1
f 45/9/1 46/10/1 47/2/1 48/1/1
f 49/10/1 50/11/1 51/5/1 52/2/1
f 53/11/1 54/12/1 55/7/1 56/5/1
f 57/11/1 58/12/1 59/7/1 60/5/1
f 61/13/1 62/14/1 63/10/1 64/9/1
f 65/15/1 66/16/1 67/12/1 68/11/1
f 69/15/1 70/16/1 71/12/1 72/11/1

