# Tiled2Unity generated file. Do not modify by hand.
# Wavefront file for 'Pueblo_mesh_0087.obj'

# Vertices (Count = 176)
v -15 -1 0
v -16 -1 0
v -16 0 0
v -15 0 0
v 0 -2 0
v -1 -2 0
v -1 -1 0
v 0 -1 0
v -15 -2 0
v -16 -2 0
v -16 -1 0
v -15 -1 0
v 0 -3 0
v -1 -3 0
v -1 -2 0
v 0 -2 0
v -4 -8 0
v -5 -8 0
v -5 -7 0
v -4 -7 0
v -5 -8 0
v -6 -8 0
v -6 -7 0
v -5 -7 0
v -4 -9 0
v -5 -9 0
v -5 -8 0
v -4 -8 0
v -5 -9 0
v -6 -9 0
v -6 -8 0
v -5 -8 0
v 0 -11 0
v -1 -11 0
v -1 -10 0
v 0 -10 0
v -1 -11 0
v -2 -11 0
v -2 -10 0
v -1 -10 0
v -2 -11 0
v -3 -11 0
v -3 -10 0
v -2 -10 0
v -3 -11 0
v -4 -11 0
v -4 -10 0
v -3 -10 0
v -4 -11 0
v -5 -11 0
v -5 -10 0
v -4 -10 0
v -5 -11 0
v -6 -11 0
v -6 -10 0
v -5 -10 0
v -6 -11 0
v -7 -11 0
v -7 -10 0
v -6 -10 0
v -7 -11 0
v -8 -11 0
v -8 -10 0
v -7 -10 0
v -8 -11 0
v -9 -11 0
v -9 -10 0
v -8 -10 0
v -9 -11 0
v -10 -11 0
v -10 -10 0
v -9 -10 0
v -10 -11 0
v -11 -11 0
v -11 -10 0
v -10 -10 0
v -11 -11 0
v -12 -11 0
v -12 -10 0
v -11 -10 0
v -12 -11 0
v -13 -11 0
v -13 -10 0
v -12 -10 0
v -13 -11 0
v -14 -11 0
v -14 -10 0
v -13 -10 0
v -14 -11 0
v -15 -11 0
v -15 -10 0
v -14 -10 0
v -9 -13 0
v -10 -13 0
v -10 -12 0
v -9 -12 0
v -10 -13 0
v -11 -13 0
v -11 -12 0
v -10 -12 0
v -11 -13 0
v -12 -13 0
v -12 -12 0
v -11 -12 0
v -12 -13 0
v -13 -13 0
v -13 -12 0
v -12 -12 0
v -13 -13 0
v -14 -13 0
v -14 -12 0
v -13 -12 0
v -9 -14 0
v -10 -14 0
v -10 -13 0
v -9 -13 0
v -10 -14 0
v -11 -14 0
v -11 -13 0
v -10 -13 0
v -11 -14 0
v -12 -14 0
v -12 -13 0
v -11 -13 0
v -12 -14 0
v -13 -14 0
v -13 -13 0
v -12 -13 0
v -13 -14 0
v -14 -14 0
v -14 -13 0
v -13 -13 0
v -9 -15 0
v -10 -15 0
v -10 -14 0
v -9 -14 0
v -10 -15 0
v -11 -15 0
v -11 -14 0
v -10 -14 0
v -11 -15 0
v -12 -15 0
v -12 -14 0
v -11 -14 0
v -12 -15 0
v -13 -15 0
v -13 -14 0
v -12 -14 0
v -13 -15 0
v -14 -15 0
v -14 -14 0
v -13 -14 0
v -3 -16 0
v -4 -16 0
v -4 -15 0
v -3 -15 0
v -9 -16 0
v -10 -16 0
v -10 -15 0
v -9 -15 0
v -10 -16 0
v -11 -16 0
v -11 -15 0
v -10 -15 0
v -11 -16 0
v -12 -16 0
v -12 -15 0
v -11 -15 0
v -12 -16 0
v -13 -16 0
v -13 -15 0
v -12 -15 0
v -13 -16 0
v -14 -16 0
v -14 -15 0
v -13 -15 0

# Texture cooridinates (Count = 55)
vt 0.05 0.7777778
vt 0.075 0.7777778
vt 0.075 0.8055556
vt 0.05 0.8055556
vt 0.15 0.5277778
vt 0.175 0.5277778
vt 0.175 0.5555556
vt 0.15 0.5555556
vt 0.05 0.75
vt 0.075 0.75
vt 0.15 0.5
vt 0.175 0.5
vt 0.125 0.5277778
vt 0.125 0.5555556
vt 0.125 0.5
vt 0.1 0.5
vt 0.1 0.5277778
vt 0.025 0.4444444
vt 0.05 0.4444444
vt 0.05 0.4722222
vt 0.025 0.4722222
vt 0.15 0.9722222
vt 0.175 0.9722222
vt 0.175 1
vt 0.15 1
vt 0.2 0.9722222
vt 0.2 1
vt 0.225 0.9722222
vt 0.225 1
vt 0.25 0.9722222
vt 0.25 1
vt 0.275 0.9722222
vt 0.275 1
vt 0.15 0.9444444
vt 0.175 0.9444444
vt 0.2 0.9444444
vt 0.225 0.9444444
vt 0.25 0.9444444
vt 0.275 0.9444444
vt 0.15 0.9166667
vt 0.175 0.9166667
vt 0.2 0.9166667
vt 0.225 0.9166667
vt 0.25 0.9166667
vt 0.275 0.9166667
vt 0.05 0.5833334
vt 0.075 0.5833334
vt 0.075 0.6111111
vt 0.05 0.6111111
vt 0.15 0.8888889
vt 0.175 0.8888889
vt 0.2 0.8888889
vt 0.225 0.8888889
vt 0.25 0.8888889
vt 0.275 0.8888889

# Normal
vn 0 0 -1

# Mesh description
g Pueblo_mesh_0087

# Faces
f 1/1/1 2/2/1 3/3/1 4/4/1
f 5/5/1 6/6/1 7/7/1 8/8/1
f 9/9/1 10/10/1 11/2/1 12/1/1
f 13/11/1 14/12/1 15/6/1 16/5/1
f 17/13/1 18/5/1 19/8/1 20/14/1
f 21/5/1 22/6/1 23/7/1 24/8/1
f 25/15/1 26/11/1 27/5/1 28/13/1
f 29/11/1 30/12/1 31/6/1 32/5/1
f 33/16/1 34/15/1 35/13/1 36/17/1
f 37/16/1 38/15/1 39/13/1 40/17/1
f 41/16/1 42/15/1 43/13/1 44/17/1
f 45/16/1 46/15/1 47/13/1 48/17/1
f 49/16/1 50/15/1 51/13/1 52/17/1
f 53/16/1 54/15/1 55/13/1 56/17/1
f 57/16/1 58/15/1 59/13/1 60/17/1
f 61/16/1 62/15/1 63/13/1 64/17/1
f 65/16/1 66/15/1 67/13/1 68/17/1
f 69/16/1 70/15/1 71/13/1 72/17/1
f 73/16/1 74/15/1 75/13/1 76/17/1
f 77/16/1 78/15/1 79/13/1 80/17/1
f 81/16/1 82/15/1 83/13/1 84/17/1
f 85/16/1 86/15/1 87/13/1 88/17/1
f 89/18/1 90/19/1 91/20/1 92/21/1
f 93/22/1 94/23/1 95/24/1 96/25/1
f 97/23/1 98/26/1 99/27/1 100/24/1
f 101/26/1 102/28/1 103/29/1 104/27/1
f 105/28/1 106/30/1 107/31/1 108/29/1
f 109/30/1 110/32/1 111/33/1 112/31/1
f 113/34/1 114/35/1 115/23/1 116/22/1
f 117/35/1 118/36/1 119/26/1 120/23/1
f 121/36/1 122/37/1 123/28/1 124/26/1
f 125/37/1 126/38/1 127/30/1 128/28/1
f 129/38/1 130/39/1 131/32/1 132/30/1
f 133/40/1 134/41/1 135/35/1 136/34/1
f 137/41/1 138/42/1 139/36/1 140/35/1
f 141/42/1 142/43/1 143/37/1 144/36/1
f 145/43/1 146/44/1 147/38/1 148/37/1
f 149/44/1 150/45/1 151/39/1 152/38/1
f 153/46/1 154/47/1 155/48/1 156/49/1
f 157/50/1 158/51/1 159/41/1 160/40/1
f 161/51/1 162/52/1 163/42/1 164/41/1
f 165/52/1 166/53/1 167/43/1 168/42/1
f 169/53/1 170/54/1 171/44/1 172/43/1
f 173/54/1 174/55/1 175/45/1 176/44/1

