# Tiled2Unity generated file. Do not modify by hand.
# Wavefront file for 'Pueblo_mesh_0098.obj'

# Vertices (Count = 60)
v 0 -7 0
v -1 -7 0
v -1 -6 0
v 0 -6 0
v 0 -8 0
v -1 -8 0
v -1 -7 0
v 0 -7 0
v 0 -11 0
v -1 -11 0
v -1 -10 0
v 0 -10 0
v -1 -11 0
v -2 -11 0
v -2 -10 0
v -1 -10 0
v -2 -11 0
v -3 -11 0
v -3 -10 0
v -2 -10 0
v -3 -11 0
v -4 -11 0
v -4 -10 0
v -3 -10 0
v -4 -11 0
v -5 -11 0
v -5 -10 0
v -4 -10 0
v -5 -11 0
v -6 -11 0
v -6 -10 0
v -5 -10 0
v -6 -11 0
v -7 -11 0
v -7 -10 0
v -6 -10 0
v -6 -12 0
v -7 -12 0
v -7 -11 0
v -6 -11 0
v -6 -13 0
v -7 -13 0
v -7 -12 0
v -6 -12 0
v -6 -14 0
v -7 -14 0
v -7 -13 0
v -6 -13 0
v -6 -15 0
v -7 -15 0
v -7 -14 0
v -6 -14 0
v -2 -16 0
v -3 -16 0
v -3 -15 0
v -2 -15 0
v -6 -16 0
v -7 -16 0
v -7 -15 0
v -6 -15 0

# Texture cooridinates (Count = 18)
vt 0.15 0.5277778
vt 0.175 0.5277778
vt 0.175 0.5555556
vt 0.15 0.5555556
vt 0.15 0.5
vt 0.175 0.5
vt 0.1 0.5
vt 0.125 0.5
vt 0.125 0.5277778
vt 0.1 0.5277778
vt 0.075 0.5
vt 0.075 0.5277778
vt 0.1 0.4722222
vt 0.125 0.4722222
vt 0.05 0.5833334
vt 0.075 0.5833334
vt 0.075 0.6111111
vt 0.05 0.6111111

# Normal
vn 0 0 -1

# Mesh description
g Pueblo_mesh_0098

# Faces
f 1/1/1 2/2/1 3/3/1 4/4/1
f 5/5/1 6/6/1 7/2/1 8/1/1
f 9/7/1 10/8/1 11/9/1 12/10/1
f 13/7/1 14/8/1 15/9/1 16/10/1
f 17/7/1 18/8/1 19/9/1 20/10/1
f 21/7/1 22/8/1 23/9/1 24/10/1
f 25/7/1 26/8/1 27/9/1 28/10/1
f 29/7/1 30/8/1 31/9/1 32/10/1
f 33/11/1 34/7/1 35/10/1 36/12/1
f 37/13/1 38/14/1 39/8/1 40/7/1
f 41/13/1 42/14/1 43/8/1 44/7/1
f 45/13/1 46/14/1 47/8/1 48/7/1
f 49/13/1 50/14/1 51/8/1 52/7/1
f 53/15/1 54/16/1 55/17/1 56/18/1
f 57/13/1 58/14/1 59/8/1 60/7/1

