# Tiled2Unity generated file. Do not modify by hand.
# Wavefront file for 'Pueblo_mesh_0105.obj'

# Vertices (Count = 72)
v 0 -8 0
v -1 -8 0
v -1 -7 0
v 0 -7 0
v 0 -9 0
v -1 -9 0
v -1 -8 0
v 0 -8 0
v 0 -15 0
v -1 -15 0
v -1 -14 0
v 0 -14 0
v -1 -15 0
v -2 -15 0
v -2 -14 0
v -1 -14 0
v -2 -15 0
v -3 -15 0
v -3 -14 0
v -2 -14 0
v -3 -15 0
v -4 -15 0
v -4 -14 0
v -3 -14 0
v -4 -15 0
v -5 -15 0
v -5 -14 0
v -4 -14 0
v -13 -15 0
v -14 -15 0
v -14 -14 0
v -13 -14 0
v -14 -15 0
v -15 -15 0
v -15 -14 0
v -14 -14 0
v -15 -15 0
v -16 -15 0
v -16 -14 0
v -15 -14 0
v 0 -16 0
v -1 -16 0
v -1 -15 0
v 0 -15 0
v -1 -16 0
v -2 -16 0
v -2 -15 0
v -1 -15 0
v -2 -16 0
v -3 -16 0
v -3 -15 0
v -2 -15 0
v -3 -16 0
v -4 -16 0
v -4 -15 0
v -3 -15 0
v -4 -16 0
v -5 -16 0
v -5 -15 0
v -4 -15 0
v -13 -16 0
v -14 -16 0
v -14 -15 0
v -13 -15 0
v -14 -16 0
v -15 -16 0
v -15 -15 0
v -14 -15 0
v -15 -16 0
v -16 -16 0
v -16 -15 0
v -15 -15 0

# Texture cooridinates (Count = 24)
vt 0.15 0.5277778
vt 0.175 0.5277778
vt 0.175 0.5555556
vt 0.15 0.5555556
vt 0.15 0.5
vt 0.175 0.5
vt 0.275 0.9722222
vt 0.3 0.9722222
vt 0.3 1
vt 0.275 1
vt 0.325 0.9722222
vt 0.325 1
vt 0.35 0.9722222
vt 0.35 1
vt 0.375 0.9722222
vt 0.375 1
vt 0.4 0.9722222
vt 0.4 1
vt 0.275 0.9444444
vt 0.3 0.9444444
vt 0.325 0.9444444
vt 0.35 0.9444444
vt 0.375 0.9444444
vt 0.4 0.9444444

# Normal
vn 0 0 -1

# Mesh description
g Pueblo_mesh_0105

# Faces
f 1/1/1 2/2/1 3/3/1 4/4/1
f 5/5/1 6/6/1 7/2/1 8/1/1
f 9/7/1 10/8/1 11/9/1 12/10/1
f 13/8/1 14/11/1 15/12/1 16/9/1
f 17/11/1 18/13/1 19/14/1 20/12/1
f 21/13/1 22/15/1 23/16/1 24/14/1
f 25/15/1 26/17/1 27/18/1 28/16/1
f 29/7/1 30/8/1 31/9/1 32/10/1
f 33/8/1 34/11/1 35/12/1 36/9/1
f 37/11/1 38/13/1 39/14/1 40/12/1
f 41/19/1 42/20/1 43/8/1 44/7/1
f 45/20/1 46/21/1 47/11/1 48/8/1
f 49/21/1 50/22/1 51/13/1 52/11/1
f 53/22/1 54/23/1 55/15/1 56/13/1
f 57/23/1 58/24/1 59/17/1 60/15/1
f 61/19/1 62/20/1 63/8/1 64/7/1
f 65/20/1 66/21/1 67/11/1 68/8/1
f 69/21/1 70/22/1 71/13/1 72/11/1

