# Tiled2Unity generated file. Do not modify by hand.
# Wavefront file for 'Pueblo_mesh_0076.obj'

# Vertices (Count = 12)
v -8 -12 0
v -9 -12 0
v -9 -11 0
v -8 -11 0
v -3 -15 0
v -4 -15 0
v -4 -14 0
v -3 -14 0
v -14 -15 0
v -15 -15 0
v -15 -14 0
v -14 -14 0

# Texture cooridinates (Count = 4)
vt 0.025 0.9444444
vt 0.05 0.9444444
vt 0.05 0.9722222
vt 0.025 0.9722222

# Normal
vn 0 0 -1

# Mesh description
g Pueblo_mesh_0076

# Faces
f 1/1/1 2/2/1 3/3/1 4/4/1
f 5/1/1 6/2/1 7/3/1 8/4/1
f 9/1/1 10/2/1 11/3/1 12/4/1

