# Tiled2Unity generated file. Do not modify by hand.
# Wavefront file for 'Pueblo_mesh_0030.obj'

# Vertices (Count = 16)
v -40 -28 0
v -41 -28 0
v -41 -27 0
v -40 -27 0
v -35 -31 0
v -36 -31 0
v -36 -30 0
v -35 -30 0
v -46 -31 0
v -47 -31 0
v -47 -30 0
v -46 -30 0
v -41 -34 0
v -42 -34 0
v -42 -33 0
v -41 -33 0

# Texture cooridinates (Count = 4)
vt 0 0.9444444
vt 0.025 0.9444444
vt 0.025 0.9722222
vt 0 0.9722222

# Normal
vn 0 0 -1

# Mesh description
g Pueblo_mesh_0030

# Faces
f 1/1/1 2/2/1 3/3/1 4/4/1
f 5/1/1 6/2/1 7/3/1 8/4/1
f 9/1/1 10/2/1 11/3/1 12/4/1
f 13/1/1 14/2/1 15/3/1 16/4/1

