# Tiled2Unity generated file. Do not modify by hand.
# Wavefront file for 'Pueblo_mesh_0061.obj'

# Vertices (Count = 232)
v 0 -1 0
v -1 -1 0
v -1 0 0
v 0 0 0
v -1 -1 0
v -2 -1 0
v -2 0 0
v -1 0 0
v -2 -1 0
v -3 -1 0
v -3 0 0
v -2 0 0
v -3 -1 0
v -4 -1 0
v -4 0 0
v -3 0 0
v -4 -1 0
v -5 -1 0
v -5 0 0
v -4 0 0
v -5 -1 0
v -6 -1 0
v -6 0 0
v -5 0 0
v -6 -1 0
v -7 -1 0
v -7 0 0
v -6 0 0
v -7 -1 0
v -8 -1 0
v -8 0 0
v -7 0 0
v -8 -1 0
v -9 -1 0
v -9 0 0
v -8 0 0
v -9 -1 0
v -10 -1 0
v -10 0 0
v -9 0 0
v -10 -1 0
v -11 -1 0
v -11 0 0
v -10 0 0
v -11 -1 0
v -12 -1 0
v -12 0 0
v -11 0 0
v -12 -1 0
v -13 -1 0
v -13 0 0
v -12 0 0
v -13 -1 0
v -14 -1 0
v -14 0 0
v -13 0 0
v -14 -1 0
v -15 -1 0
v -15 0 0
v -14 0 0
v -15 -1 0
v -16 -1 0
v -16 0 0
v -15 0 0
v 0 -6 0
v -1 -6 0
v -1 -5 0
v 0 -5 0
v -1 -6 0
v -2 -6 0
v -2 -5 0
v -1 -5 0
v 0 -7 0
v -1 -7 0
v -1 -6 0
v 0 -6 0
v -1 -7 0
v -2 -7 0
v -2 -6 0
v -1 -6 0
v 0 -8 0
v -1 -8 0
v -1 -7 0
v 0 -7 0
v -1 -8 0
v -2 -8 0
v -2 -7 0
v -1 -7 0
v 0 -9 0
v -1 -9 0
v -1 -8 0
v 0 -8 0
v -1 -9 0
v -2 -9 0
v -2 -8 0
v -1 -8 0
v 0 -10 0
v -1 -10 0
v -1 -9 0
v 0 -9 0
v -1 -10 0
v -2 -10 0
v -2 -9 0
v -1 -9 0
v -2 -10 0
v -3 -10 0
v -3 -9 0
v -2 -9 0
v 0 -11 0
v -1 -11 0
v -1 -10 0
v 0 -10 0
v -1 -11 0
v -2 -11 0
v -2 -10 0
v -1 -10 0
v -2 -11 0
v -3 -11 0
v -3 -10 0
v -2 -10 0
v -3 -11 0
v -4 -11 0
v -4 -10 0
v -3 -10 0
v -4 -11 0
v -5 -11 0
v -5 -10 0
v -4 -10 0
v -5 -11 0
v -6 -11 0
v -6 -10 0
v -5 -10 0
v -6 -11 0
v -7 -11 0
v -7 -10 0
v -6 -10 0
v -7 -11 0
v -8 -11 0
v -8 -10 0
v -7 -10 0
v -8 -11 0
v -9 -11 0
v -9 -10 0
v -8 -10 0
v -9 -11 0
v -10 -11 0
v -10 -10 0
v -9 -10 0
v -10 -11 0
v -11 -11 0
v -11 -10 0
v -10 -10 0
v -11 -11 0
v -12 -11 0
v -12 -10 0
v -11 -10 0
v -12 -11 0
v -13 -11 0
v -13 -10 0
v -12 -10 0
v -13 -11 0
v -14 -11 0
v -14 -10 0
v -13 -10 0
v -14 -11 0
v -15 -11 0
v -15 -10 0
v -14 -10 0
v -15 -11 0
v -16 -11 0
v -16 -10 0
v -15 -10 0
v 0 -12 0
v -1 -12 0
v -1 -11 0
v 0 -11 0
v -1 -12 0
v -2 -12 0
v -2 -11 0
v -1 -11 0
v -2 -12 0
v -3 -12 0
v -3 -11 0
v -2 -11 0
v 0 -13 0
v -1 -13 0
v -1 -12 0
v 0 -12 0
v -1 -13 0
v -2 -13 0
v -2 -12 0
v -1 -12 0
v -2 -13 0
v -3 -13 0
v -3 -12 0
v -2 -12 0
v 0 -14 0
v -1 -14 0
v -1 -13 0
v 0 -13 0
v -1 -14 0
v -2 -14 0
v -2 -13 0
v -1 -13 0
v -2 -14 0
v -3 -14 0
v -3 -13 0
v -2 -13 0
v 0 -15 0
v -1 -15 0
v -1 -14 0
v 0 -14 0
v -1 -15 0
v -2 -15 0
v -2 -14 0
v -1 -14 0
v -2 -15 0
v -3 -15 0
v -3 -14 0
v -2 -14 0
v 0 -16 0
v -1 -16 0
v -1 -15 0
v 0 -15 0
v -1 -16 0
v -2 -16 0
v -2 -15 0
v -1 -15 0
v -2 -16 0
v -3 -16 0
v -3 -15 0
v -2 -15 0

# Texture cooridinates (Count = 41)
vt 0.125 0.4444444
vt 0.15 0.4444444
vt 0.15 0.4722222
vt 0.125 0.4722222
vt 0.1 0.3611111
vt 0.125 0.3611111
vt 0.125 0.3888889
vt 0.1 0.3888889
vt 0.15 0.3611111
vt 0.15 0.3888889
vt 0.1 0.3333333
vt 0.125 0.3333333
vt 0.15 0.3333333
vt 0.1 0.3055556
vt 0.125 0.3055556
vt 0.15 0.3055556
vt 0.1 0.2777778
vt 0.125 0.2777778
vt 0.15 0.2777778
vt 0.575 0.8611111
vt 0.6 0.8611111
vt 0.6 0.8888889
vt 0.575 0.8888889
vt 0.125 0.25
vt 0.15 0.25
vt 0.625 0.8333333
vt 0.65 0.8333333
vt 0.65 0.8611111
vt 0.625 0.8611111
vt 0.575 0.8055556
vt 0.6 0.8055556
vt 0.6 0.8333333
vt 0.575 0.8333333
vt 0.575 0.9444444
vt 0.6 0.9444444
vt 0.6 0.9722222
vt 0.575 0.9722222
vt 0.625 0.9722222
vt 0.625 1
vt 0.6 1
vt 0.625 0.9444444

# Normal
vn 0 0 -1

# Mesh description
g Pueblo_mesh_0061

# Faces
f 1/1/1 2/2/1 3/3/1 4/4/1
f 5/1/1 6/2/1 7/3/1 8/4/1
f 9/1/1 10/2/1 11/3/1 12/4/1
f 13/1/1 14/2/1 15/3/1 16/4/1
f 17/1/1 18/2/1 19/3/1 20/4/1
f 21/1/1 22/2/1 23/3/1 24/4/1
f 25/1/1 26/2/1 27/3/1 28/4/1
f 29/1/1 30/2/1 31/3/1 32/4/1
f 33/1/1 34/2/1 35/3/1 36/4/1
f 37/1/1 38/2/1 39/3/1 40/4/1
f 41/1/1 42/2/1 43/3/1 44/4/1
f 45/1/1 46/2/1 47/3/1 48/4/1
f 49/1/1 50/2/1 51/3/1 52/4/1
f 53/1/1 54/2/1 55/3/1 56/4/1
f 57/1/1 58/2/1 59/3/1 60/4/1
f 61/1/1 62/2/1 63/3/1 64/4/1
f 65/5/1 66/6/1 67/7/1 68/8/1
f 69/6/1 70/9/1 71/10/1 72/7/1
f 73/11/1 74/12/1 75/6/1 76/5/1
f 77/12/1 78/13/1 79/9/1 80/6/1
f 81/14/1 82/15/1 83/12/1 84/11/1
f 85/15/1 86/16/1 87/13/1 88/12/1
f 89/17/1 90/18/1 91/15/1 92/14/1
f 93/18/1 94/19/1 95/16/1 96/15/1
f 97/20/1 98/21/1 99/22/1 100/23/1
f 101/24/1 102/25/1 103/19/1 104/18/1
f 105/26/1 106/27/1 107/28/1 108/29/1
f 109/20/1 110/21/1 111/22/1 112/23/1
f 113/24/1 114/25/1 115/19/1 116/18/1
f 117/30/1 118/31/1 119/32/1 120/33/1
f 121/30/1 122/31/1 123/32/1 124/33/1
f 125/30/1 126/31/1 127/32/1 128/33/1
f 129/30/1 130/31/1 131/32/1 132/33/1
f 133/30/1 134/31/1 135/32/1 136/33/1
f 137/30/1 138/31/1 139/32/1 140/33/1
f 141/30/1 142/31/1 143/32/1 144/33/1
f 145/30/1 146/31/1 147/32/1 148/33/1
f 149/30/1 150/31/1 151/32/1 152/33/1
f 153/30/1 154/31/1 155/32/1 156/33/1
f 157/30/1 158/31/1 159/32/1 160/33/1
f 161/30/1 162/31/1 163/32/1 164/33/1
f 165/30/1 166/31/1 167/32/1 168/33/1
f 169/30/1 170/31/1 171/32/1 172/33/1
f 173/34/1 174/35/1 175/36/1 176/37/1
f 177/36/1 178/38/1 179/39/1 180/40/1
f 181/26/1 182/27/1 183/28/1 184/29/1
f 185/34/1 186/35/1 187/36/1 188/37/1
f 189/35/1 190/41/1 191/38/1 192/36/1
f 193/26/1 194/27/1 195/28/1 196/29/1
f 197/34/1 198/35/1 199/36/1 200/37/1
f 201/35/1 202/41/1 203/38/1 204/36/1
f 205/26/1 206/27/1 207/28/1 208/29/1
f 209/34/1 210/35/1 211/36/1 212/37/1
f 213/35/1 214/41/1 215/38/1 216/36/1
f 217/26/1 218/27/1 219/28/1 220/29/1
f 221/34/1 222/35/1 223/36/1 224/37/1
f 225/35/1 226/41/1 227/38/1 228/36/1
f 229/26/1 230/27/1 231/28/1 232/29/1

