# Tiled2Unity generated file. Do not modify by hand.
# Wavefront file for 'Pueblo_mesh_0058.obj'

# Vertices (Count = 200)
v -6 -1 0
v -7 -1 0
v -7 0 0
v -6 0 0
v -11 -1 0
v -12 -1 0
v -12 0 0
v -11 0 0
v -4 -2 0
v -5 -2 0
v -5 -1 0
v -4 -1 0
v -5 -2 0
v -6 -2 0
v -6 -1 0
v -5 -1 0
v -6 -2 0
v -7 -2 0
v -7 -1 0
v -6 -1 0
v -11 -2 0
v -12 -2 0
v -12 -1 0
v -11 -1 0
v -12 -2 0
v -13 -2 0
v -13 -1 0
v -12 -1 0
v -13 -2 0
v -14 -2 0
v -14 -1 0
v -13 -1 0
v -4 -3 0
v -5 -3 0
v -5 -2 0
v -4 -2 0
v -13 -3 0
v -14 -3 0
v -14 -2 0
v -13 -2 0
v -4 -4 0
v -5 -4 0
v -5 -3 0
v -4 -3 0
v -13 -4 0
v -14 -4 0
v -14 -3 0
v -13 -3 0
v -3 -5 0
v -4 -5 0
v -4 -4 0
v -3 -4 0
v -4 -5 0
v -5 -5 0
v -5 -4 0
v -4 -4 0
v -13 -5 0
v -14 -5 0
v -14 -4 0
v -13 -4 0
v -1 -6 0
v -2 -6 0
v -2 -5 0
v -1 -5 0
v -2 -6 0
v -3 -6 0
v -3 -5 0
v -2 -5 0
v -3 -6 0
v -4 -6 0
v -4 -5 0
v -3 -5 0
v -13 -6 0
v -14 -6 0
v -14 -5 0
v -13 -5 0
v -14 -6 0
v -15 -6 0
v -15 -5 0
v -14 -5 0
v -15 -6 0
v -16 -6 0
v -16 -5 0
v -15 -5 0
v 0 -7 0
v -1 -7 0
v -1 -6 0
v 0 -6 0
v -1 -7 0
v -2 -7 0
v -2 -6 0
v -1 -6 0
v -15 -7 0
v -16 -7 0
v -16 -6 0
v -15 -6 0
v 0 -8 0
v -1 -8 0
v -1 -7 0
v 0 -7 0
v -7 -9 0
v -8 -9 0
v -8 -8 0
v -7 -8 0
v -8 -9 0
v -9 -9 0
v -9 -8 0
v -8 -8 0
v -9 -9 0
v -10 -9 0
v -10 -8 0
v -9 -8 0
v -10 -9 0
v -11 -9 0
v -11 -8 0
v -10 -8 0
v -11 -9 0
v -12 -9 0
v -12 -8 0
v -11 -8 0
v -7 -10 0
v -8 -10 0
v -8 -9 0
v -7 -9 0
v -8 -10 0
v -9 -10 0
v -9 -9 0
v -8 -9 0
v -9 -10 0
v -10 -10 0
v -10 -9 0
v -9 -9 0
v -10 -10 0
v -11 -10 0
v -11 -9 0
v -10 -9 0
v -11 -10 0
v -12 -10 0
v -12 -9 0
v -11 -9 0
v -7 -11 0
v -8 -11 0
v -8 -10 0
v -7 -10 0
v -8 -11 0
v -9 -11 0
v -9 -10 0
v -8 -10 0
v -9 -11 0
v -10 -11 0
v -10 -10 0
v -9 -10 0
v -10 -11 0
v -11 -11 0
v -11 -10 0
v -10 -10 0
v -11 -11 0
v -12 -11 0
v -12 -10 0
v -11 -10 0
v -7 -12 0
v -8 -12 0
v -8 -11 0
v -7 -11 0
v -8 -12 0
v -9 -12 0
v -9 -11 0
v -8 -11 0
v -9 -12 0
v -10 -12 0
v -10 -11 0
v -9 -11 0
v -10 -12 0
v -11 -12 0
v -11 -11 0
v -10 -11 0
v -11 -12 0
v -12 -12 0
v -12 -11 0
v -11 -11 0
v -7 -13 0
v -8 -13 0
v -8 -12 0
v -7 -12 0
v -8 -13 0
v -9 -13 0
v -9 -12 0
v -8 -12 0
v -9 -13 0
v -10 -13 0
v -10 -12 0
v -9 -12 0
v -10 -13 0
v -11 -13 0
v -11 -12 0
v -10 -12 0
v -11 -13 0
v -12 -13 0
v -12 -12 0
v -11 -12 0

# Texture cooridinates (Count = 39)
vt 0.05 0.7777778
vt 0.075 0.7777778
vt 0.075 0.8055556
vt 0.05 0.8055556
vt 0.1 0.7777778
vt 0.125 0.7777778
vt 0.125 0.8055556
vt 0.1 0.8055556
vt 0.075 0.8333333
vt 0.05 0.8333333
vt 0.1 0.8333333
vt 0.075 0.6944444
vt 0.1 0.6944444
vt 0.1 0.7222222
vt 0.075 0.7222222
vt 0.05 0.6944444
vt 0.05 0.7222222
vt 0.125 0.8333333
vt 0.375 0.7222222
vt 0.4 0.7222222
vt 0.4 0.75
vt 0.375 0.75
vt 0.425 0.75
vt 0.425 0.7777778
vt 0.4 0.7777778
vt 0.425 0.7222222
vt 0.45 0.7777778
vt 0.45 0.8055556
vt 0.425 0.8055556
vt 0.075 0.6666666
vt 0.1 0.6666666
vt 0.375 0.7777778
vt 0.4 0.8055556
vt 0.375 0.8055556
vt 0.375 0.6944444
vt 0.4 0.6944444
vt 0.425 0.8333333
vt 0.4 0.8333333
vt 0.425 0.6944444

# Normal
vn 0 0 -1

# Mesh description
g Pueblo_mesh_0058

# Faces
f 1/1/1 2/2/1 3/3/1 4/4/1
f 5/5/1 6/6/1 7/7/1 8/8/1
f 9/4/1 10/3/1 11/9/1 12/10/1
f 13/3/1 14/8/1 15/11/1 16/9/1
f 17/12/1 18/13/1 19/14/1 20/15/1
f 21/16/1 22/12/1 23/15/1 24/17/1
f 25/3/1 26/8/1 27/11/1 28/9/1
f 29/8/1 30/7/1 31/18/1 32/11/1
f 33/1/1 34/2/1 35/3/1 36/4/1
f 37/5/1 38/6/1 39/7/1 40/8/1
f 41/1/1 42/2/1 43/3/1 44/4/1
f 45/5/1 46/6/1 47/7/1 48/8/1
f 49/4/1 50/3/1 51/9/1 52/10/1
f 53/12/1 54/13/1 55/14/1 56/15/1
f 57/5/1 58/6/1 59/7/1 60/8/1
f 61/4/1 62/3/1 63/9/1 64/10/1
f 65/3/1 66/8/1 67/11/1 68/9/1
f 69/12/1 70/13/1 71/14/1 72/15/1
f 73/16/1 74/12/1 75/15/1 76/17/1
f 77/3/1 78/8/1 79/11/1 80/9/1
f 81/8/1 82/7/1 83/18/1 84/11/1
f 85/4/1 86/3/1 87/9/1 88/10/1
f 89/12/1 90/13/1 91/14/1 92/15/1
f 93/16/1 94/12/1 95/15/1 96/17/1
f 97/12/1 98/13/1 99/14/1 100/15/1
f 101/19/1 102/20/1 103/21/1 104/22/1
f 105/21/1 106/23/1 107/24/1 108/25/1
f 109/21/1 110/23/1 111/24/1 112/25/1
f 113/21/1 114/23/1 115/24/1 116/25/1
f 117/20/1 118/26/1 119/23/1 120/21/1
f 121/24/1 122/27/1 123/28/1 124/29/1
f 125/30/1 126/31/1 127/13/1 128/12/1
f 129/30/1 130/31/1 131/13/1 132/12/1
f 133/30/1 134/31/1 135/13/1 136/12/1
f 137/32/1 138/25/1 139/33/1 140/34/1
f 141/24/1 142/27/1 143/28/1 144/29/1
f 145/30/1 146/31/1 147/13/1 148/12/1
f 149/30/1 150/31/1 151/13/1 152/12/1
f 153/30/1 154/31/1 155/13/1 156/12/1
f 157/32/1 158/25/1 159/33/1 160/34/1
f 161/24/1 162/27/1 163/28/1 164/29/1
f 165/30/1 166/31/1 167/13/1 168/12/1
f 169/30/1 170/31/1 171/13/1 172/12/1
f 173/30/1 174/31/1 175/13/1 176/12/1
f 177/32/1 178/25/1 179/33/1 180/34/1
f 181/35/1 182/36/1 183/20/1 184/19/1
f 185/33/1 186/29/1 187/37/1 188/38/1
f 189/33/1 190/29/1 191/37/1 192/38/1
f 193/33/1 194/29/1 195/37/1 196/38/1
f 197/36/1 198/39/1 199/26/1 200/20/1

