# Tiled2Unity generated file. Do not modify by hand.
# Wavefront file for 'Pueblo_mesh_0083.obj'

# Vertices (Count = 280)
v 0 -1 0
v -1 -1 0
v -1 0 0
v 0 0 0
v -1 -1 0
v -2 -1 0
v -2 0 0
v -1 0 0
v -2 -1 0
v -3 -1 0
v -3 0 0
v -2 0 0
v -3 -1 0
v -4 -1 0
v -4 0 0
v -3 0 0
v -6 -1 0
v -7 -1 0
v -7 0 0
v -6 0 0
v -14 -1 0
v -15 -1 0
v -15 0 0
v -14 0 0
v -15 -1 0
v -16 -1 0
v -16 0 0
v -15 0 0
v -6 -2 0
v -7 -2 0
v -7 -1 0
v -6 -1 0
v -14 -2 0
v -15 -2 0
v -15 -1 0
v -14 -1 0
v -15 -2 0
v -16 -2 0
v -16 -1 0
v -15 -1 0
v -6 -3 0
v -7 -3 0
v -7 -2 0
v -6 -2 0
v -14 -3 0
v -15 -3 0
v -15 -2 0
v -14 -2 0
v -15 -3 0
v -16 -3 0
v -16 -2 0
v -15 -2 0
v 0 -4 0
v -1 -4 0
v -1 -3 0
v 0 -3 0
v -1 -4 0
v -2 -4 0
v -2 -3 0
v -1 -3 0
v -2 -4 0
v -3 -4 0
v -3 -3 0
v -2 -3 0
v -3 -4 0
v -4 -4 0
v -4 -3 0
v -3 -3 0
v -4 -4 0
v -5 -4 0
v -5 -3 0
v -4 -3 0
v -5 -4 0
v -6 -4 0
v -6 -3 0
v -5 -3 0
v -6 -4 0
v -7 -4 0
v -7 -3 0
v -6 -3 0
v -14 -4 0
v -15 -4 0
v -15 -3 0
v -14 -3 0
v -15 -4 0
v -16 -4 0
v -16 -3 0
v -15 -3 0
v 0 -5 0
v -1 -5 0
v -1 -4 0
v 0 -4 0
v -1 -5 0
v -2 -5 0
v -2 -4 0
v -1 -4 0
v -2 -5 0
v -3 -5 0
v -3 -4 0
v -2 -4 0
v -3 -5 0
v -4 -5 0
v -4 -4 0
v -3 -4 0
v -4 -5 0
v -5 -5 0
v -5 -4 0
v -4 -4 0
v -5 -5 0
v -6 -5 0
v -6 -4 0
v -5 -4 0
v -6 -5 0
v -7 -5 0
v -7 -4 0
v -6 -4 0
v -14 -5 0
v -15 -5 0
v -15 -4 0
v -14 -4 0
v -15 -5 0
v -16 -5 0
v -16 -4 0
v -15 -4 0
v 0 -6 0
v -1 -6 0
v -1 -5 0
v 0 -5 0
v -1 -6 0
v -2 -6 0
v -2 -5 0
v -1 -5 0
v -2 -6 0
v -3 -6 0
v -3 -5 0
v -2 -5 0
v -3 -6 0
v -4 -6 0
v -4 -5 0
v -3 -5 0
v -4 -6 0
v -5 -6 0
v -5 -5 0
v -4 -5 0
v -5 -6 0
v -6 -6 0
v -6 -5 0
v -5 -5 0
v -6 -6 0
v -7 -6 0
v -7 -5 0
v -6 -5 0
v -14 -6 0
v -15 -6 0
v -15 -5 0
v -14 -5 0
v -15 -6 0
v -16 -6 0
v -16 -5 0
v -15 -5 0
v 0 -7 0
v -1 -7 0
v -1 -6 0
v 0 -6 0
v -1 -7 0
v -2 -7 0
v -2 -6 0
v -1 -6 0
v -2 -7 0
v -3 -7 0
v -3 -6 0
v -2 -6 0
v -3 -7 0
v -4 -7 0
v -4 -6 0
v -3 -6 0
v -4 -7 0
v -5 -7 0
v -5 -6 0
v -4 -6 0
v -5 -7 0
v -6 -7 0
v -6 -6 0
v -5 -6 0
v -6 -7 0
v -7 -7 0
v -7 -6 0
v -6 -6 0
v -14 -7 0
v -15 -7 0
v -15 -6 0
v -14 -6 0
v -15 -7 0
v -16 -7 0
v -16 -6 0
v -15 -6 0
v 0 -8 0
v -1 -8 0
v -1 -7 0
v 0 -7 0
v -1 -8 0
v -2 -8 0
v -2 -7 0
v -1 -7 0
v -2 -8 0
v -3 -8 0
v -3 -7 0
v -2 -7 0
v -3 -8 0
v -4 -8 0
v -4 -7 0
v -3 -7 0
v -4 -8 0
v -5 -8 0
v -5 -7 0
v -4 -7 0
v -5 -8 0
v -6 -8 0
v -6 -7 0
v -5 -7 0
v -6 -8 0
v -7 -8 0
v -7 -7 0
v -6 -7 0
v -14 -8 0
v -15 -8 0
v -15 -7 0
v -14 -7 0
v -15 -8 0
v -16 -8 0
v -16 -7 0
v -15 -7 0
v -15 -9 0
v -16 -9 0
v -16 -8 0
v -15 -8 0
v -15 -10 0
v -16 -10 0
v -16 -9 0
v -15 -9 0
v 0 -11 0
v -1 -11 0
v -1 -10 0
v 0 -10 0
v -1 -11 0
v -2 -11 0
v -2 -10 0
v -1 -10 0
v -2 -11 0
v -3 -11 0
v -3 -10 0
v -2 -10 0
v -2 -12 0
v -3 -12 0
v -3 -11 0
v -2 -11 0
v -3 -12 0
v -4 -12 0
v -4 -11 0
v -3 -11 0
v -3 -13 0
v -4 -13 0
v -4 -12 0
v -3 -12 0
v -3 -14 0
v -4 -14 0
v -4 -13 0
v -3 -13 0
v -2 -15 0
v -3 -15 0
v -3 -14 0
v -2 -14 0
v -3 -15 0
v -4 -15 0
v -4 -14 0
v -3 -14 0
v -2 -16 0
v -3 -16 0
v -3 -15 0
v -2 -15 0

# Texture cooridinates (Count = 69)
vt 0.075 0.75
vt 0.1 0.75
vt 0.1 0.7777778
vt 0.075 0.7777778
vt 0.125 0.75
vt 0.125 0.7777778
vt 0.15 0.6944444
vt 0.175 0.6944444
vt 0.175 0.7222222
vt 0.15 0.7222222
vt 0.65 0.8611111
vt 0.625 0.8611111
vt 0.625 0.8333333
vt 0.65 0.8333333
vt 0.55 0.9444444
vt 0.575 0.9444444
vt 0.575 0.9722222
vt 0.55 0.9722222
vt 0.075 0.3611111
vt 0.1 0.3611111
vt 0.1 0.3888889
vt 0.075 0.3888889
vt 0.075 0.3333333
vt 0.1 0.3333333
vt 0.125 0.6666666
vt 0.15 0.6666666
vt 0.125 0.6944444
vt 0.175 0.6666666
vt 0.075 0.3055556
vt 0.1 0.3055556
vt 0.125 0.6388889
vt 0.15 0.6388889
vt 0.175 0.6388889
vt 0.075 0.2777778
vt 0.1 0.2777778
vt 0.125 0.6111111
vt 0.15 0.6111111
vt 0.175 0.6111111
vt 0 0.3055556
vt 0.025 0.3055556
vt 0.025 0.3333333
vt 0 0.3333333
vt 0.125 0.5833334
vt 0.15 0.5833334
vt 0.175 0.5833334
vt 0 0.2777778
vt 0.025 0.2777778
vt 0.125 0.5555556
vt 0.15 0.5555556
vt 0.175 0.5555556
vt 0.65 0.8888889
vt 0.625 0.8888889
vt 0 0.25
vt 0.025 0.25
vt 0 0.2222222
vt 0.025 0.2222222
vt 0 0.1944444
vt 0.025 0.1944444
vt 0.075 0.8055556
vt 0.1 0.8055556
vt 0.1 0.8333333
vt 0.075 0.8333333
vt 0.125 0.8055556
vt 0.125 0.8333333
vt 0.05 0.6944444
vt 0.075 0.6944444
vt 0.075 0.7222222
vt 0.05 0.7222222
vt 0.05 0.75

# Normal
vn 0 0 -1

# Mesh description
g Pueblo_mesh_0083

# Faces
f 1/1/1 2/2/1 3/3/1 4/4/1
f 5/1/1 6/2/1 7/3/1 8/4/1
f 9/1/1 10/2/1 11/3/1 12/4/1
f 13/2/1 14/5/1 15/6/1 16/3/1
f 17/7/1 18/8/1 19/9/1 20/10/1
f 21/11/1 22/12/1 23/13/1 24/14/1
f 25/15/1 26/16/1 27/17/1 28/18/1
f 29/7/1 30/8/1 31/9/1 32/10/1
f 33/11/1 34/12/1 35/13/1 36/14/1
f 37/19/1 38/20/1 39/21/1 40/22/1
f 41/7/1 42/8/1 43/9/1 44/10/1
f 45/11/1 46/12/1 47/13/1 48/14/1
f 49/23/1 50/24/1 51/20/1 52/19/1
f 53/25/1 54/26/1 55/7/1 56/27/1
f 57/25/1 58/26/1 59/7/1 60/27/1
f 61/25/1 62/26/1 63/7/1 64/27/1
f 65/25/1 66/26/1 67/7/1 68/27/1
f 69/25/1 70/26/1 71/7/1 72/27/1
f 73/25/1 74/26/1 75/7/1 76/27/1
f 77/26/1 78/28/1 79/8/1 80/7/1
f 81/11/1 82/12/1 83/13/1 84/14/1
f 85/29/1 86/30/1 87/24/1 88/23/1
f 89/31/1 90/32/1 91/26/1 92/25/1
f 93/31/1 94/32/1 95/26/1 96/25/1
f 97/31/1 98/32/1 99/26/1 100/25/1
f 101/31/1 102/32/1 103/26/1 104/25/1
f 105/31/1 106/32/1 107/26/1 108/25/1
f 109/31/1 110/32/1 111/26/1 112/25/1
f 113/32/1 114/33/1 115/28/1 116/26/1
f 117/11/1 118/12/1 119/13/1 120/14/1
f 121/34/1 122/35/1 123/30/1 124/29/1
f 125/36/1 126/37/1 127/32/1 128/31/1
f 129/36/1 130/37/1 131/32/1 132/31/1
f 133/36/1 134/37/1 135/32/1 136/31/1
f 137/36/1 138/37/1 139/32/1 140/31/1
f 141/36/1 142/37/1 143/32/1 144/31/1
f 145/36/1 146/37/1 147/32/1 148/31/1
f 149/37/1 150/38/1 151/33/1 152/32/1
f 153/11/1 154/12/1 155/13/1 156/14/1
f 157/39/1 158/40/1 159/41/1 160/42/1
f 161/43/1 162/44/1 163/37/1 164/36/1
f 165/43/1 166/44/1 167/37/1 168/36/1
f 169/43/1 170/44/1 171/37/1 172/36/1
f 173/43/1 174/44/1 175/37/1 176/36/1
f 177/43/1 178/44/1 179/37/1 180/36/1
f 181/43/1 182/44/1 183/37/1 184/36/1
f 185/44/1 186/45/1 187/38/1 188/37/1
f 189/11/1 190/12/1 191/13/1 192/14/1
f 193/46/1 194/47/1 195/40/1 196/39/1
f 197/48/1 198/49/1 199/44/1 200/43/1
f 201/48/1 202/49/1 203/44/1 204/43/1
f 205/48/1 206/49/1 207/44/1 208/43/1
f 209/48/1 210/49/1 211/44/1 212/43/1
f 213/48/1 214/49/1 215/44/1 216/43/1
f 217/48/1 218/49/1 219/44/1 220/43/1
f 221/49/1 222/50/1 223/45/1 224/44/1
f 225/51/1 226/52/1 227/12/1 228/11/1
f 229/53/1 230/54/1 231/47/1 232/46/1
f 233/55/1 234/56/1 235/54/1 236/53/1
f 237/57/1 238/58/1 239/56/1 240/55/1
f 241/59/1 242/60/1 243/61/1 244/62/1
f 245/59/1 246/60/1 247/61/1 248/62/1
f 249/60/1 250/63/1 251/64/1 252/61/1
f 253/65/1 254/66/1 255/67/1 256/68/1
f 257/60/1 258/63/1 259/64/1 260/61/1
f 261/3/1 262/6/1 263/63/1 264/60/1
f 265/3/1 266/6/1 267/63/1 268/60/1
f 269/68/1 270/67/1 271/1/1 272/69/1
f 273/2/1 274/5/1 275/6/1 276/3/1
f 277/3/1 278/6/1 279/63/1 280/60/1

