# Tiled2Unity generated file. Do not modify by hand.
# Wavefront file for 'Pueblo_mesh_0112.obj'

# Vertices (Count = 148)
v 0 -1 0
v -1 -1 0
v -1 0 0
v 0 0 0
v -1 -1 0
v -2 -1 0
v -2 0 0
v -1 0 0
v -6 -1 0
v -7 -1 0
v -7 0 0
v -6 0 0
v -7 -1 0
v -8 -1 0
v -8 0 0
v -7 0 0
v 0 -2 0
v -1 -2 0
v -1 -1 0
v 0 -1 0
v -1 -2 0
v -2 -2 0
v -2 -1 0
v -1 -1 0
v 0 -3 0
v -1 -3 0
v -1 -2 0
v 0 -2 0
v -1 -3 0
v -2 -3 0
v -2 -2 0
v -1 -2 0
v 0 -5 0
v -1 -5 0
v -1 -4 0
v 0 -4 0
v -1 -5 0
v -2 -5 0
v -2 -4 0
v -1 -4 0
v -2 -5 0
v -3 -5 0
v -3 -4 0
v -2 -4 0
v -3 -5 0
v -4 -5 0
v -4 -4 0
v -3 -4 0
v -4 -5 0
v -5 -5 0
v -5 -4 0
v -4 -4 0
v -5 -5 0
v -6 -5 0
v -6 -4 0
v -5 -4 0
v -6 -5 0
v -7 -5 0
v -7 -4 0
v -6 -4 0
v -7 -5 0
v -8 -5 0
v -8 -4 0
v -7 -4 0
v -8 -5 0
v -9 -5 0
v -9 -4 0
v -8 -4 0
v -12 -5 0
v -13 -5 0
v -13 -4 0
v -12 -4 0
v -13 -5 0
v -14 -5 0
v -14 -4 0
v -13 -4 0
v -14 -5 0
v -15 -5 0
v -15 -4 0
v -14 -4 0
v -15 -5 0
v -16 -5 0
v -16 -4 0
v -15 -4 0
v 0 -16 0
v -1 -16 0
v -1 -15 0
v 0 -15 0
v -1 -16 0
v -2 -16 0
v -2 -15 0
v -1 -15 0
v -2 -16 0
v -3 -16 0
v -3 -15 0
v -2 -15 0
v -3 -16 0
v -4 -16 0
v -4 -15 0
v -3 -15 0
v -4 -16 0
v -5 -16 0
v -5 -15 0
v -4 -15 0
v -5 -16 0
v -6 -16 0
v -6 -15 0
v -5 -15 0
v -6 -16 0
v -7 -16 0
v -7 -15 0
v -6 -15 0
v -7 -16 0
v -8 -16 0
v -8 -15 0
v -7 -15 0
v -8 -16 0
v -9 -16 0
v -9 -15 0
v -8 -15 0
v -9 -16 0
v -10 -16 0
v -10 -15 0
v -9 -15 0
v -10 -16 0
v -11 -16 0
v -11 -15 0
v -10 -15 0
v -11 -16 0
v -12 -16 0
v -12 -15 0
v -11 -15 0
v -12 -16 0
v -13 -16 0
v -13 -15 0
v -12 -15 0
v -13 -16 0
v -14 -16 0
v -14 -15 0
v -13 -15 0
v -14 -16 0
v -15 -16 0
v -15 -15 0
v -14 -15 0
v -15 -16 0
v -16 -16 0
v -16 -15 0
v -15 -15 0

# Texture cooridinates (Count = 28)
vt 0.35 0.9166667
vt 0.375 0.9166667
vt 0.375 0.9444444
vt 0.35 0.9444444
vt 0.4 0.9166667
vt 0.4 0.9444444
vt 0.125 0.5
vt 0.15 0.5
vt 0.15 0.5277778
vt 0.125 0.5277778
vt 0.175 0.5
vt 0.175 0.5277778
vt 0.35 0.8888889
vt 0.375 0.8888889
vt 0.4 0.8888889
vt 0.35 0.8611111
vt 0.375 0.8611111
vt 0.4 0.8611111
vt 0.1 0.5
vt 0.1 0.5277778
vt 0.025 0.4444444
vt 0.05 0.4444444
vt 0.05 0.4722222
vt 0.025 0.4722222
vt 0 0.4444444
vt 0 0.4722222
vt 0.125 0.4722222
vt 0.15 0.4722222

# Normal
vn 0 0 -1

# Mesh description
g Pueblo_mesh_0112

# Faces
f 1/1/1 2/2/1 3/3/1 4/4/1
f 5/2/1 6/5/1 7/6/1 8/3/1
f 9/7/1 10/8/1 11/9/1 12/10/1
f 13/8/1 14/11/1 15/12/1 16/9/1
f 17/13/1 18/14/1 19/2/1 20/1/1
f 21/14/1 22/15/1 23/5/1 24/2/1
f 25/16/1 26/17/1 27/14/1 28/13/1
f 29/17/1 30/18/1 31/15/1 32/14/1
f 33/19/1 34/7/1 35/10/1 36/20/1
f 37/19/1 38/7/1 39/10/1 40/20/1
f 41/19/1 42/7/1 43/10/1 44/20/1
f 45/19/1 46/7/1 47/10/1 48/20/1
f 49/19/1 50/7/1 51/10/1 52/20/1
f 53/19/1 54/7/1 55/10/1 56/20/1
f 57/19/1 58/7/1 59/10/1 60/20/1
f 61/19/1 62/7/1 63/10/1 64/20/1
f 65/21/1 66/22/1 67/23/1 68/24/1
f 69/25/1 70/21/1 71/24/1 72/26/1
f 73/19/1 74/7/1 75/10/1 76/20/1
f 77/19/1 78/7/1 79/10/1 80/20/1
f 81/19/1 82/7/1 83/10/1 84/20/1
f 85/27/1 86/28/1 87/8/1 88/7/1
f 89/27/1 90/28/1 91/8/1 92/7/1
f 93/27/1 94/28/1 95/8/1 96/7/1
f 97/27/1 98/28/1 99/8/1 100/7/1
f 101/27/1 102/28/1 103/8/1 104/7/1
f 105/27/1 106/28/1 107/8/1 108/7/1
f 109/27/1 110/28/1 111/8/1 112/7/1
f 113/27/1 114/28/1 115/8/1 116/7/1
f 117/27/1 118/28/1 119/8/1 120/7/1
f 121/27/1 122/28/1 123/8/1 124/7/1
f 125/27/1 126/28/1 127/8/1 128/7/1
f 129/27/1 130/28/1 131/8/1 132/7/1
f 133/27/1 134/28/1 135/8/1 136/7/1
f 137/27/1 138/28/1 139/8/1 140/7/1
f 141/27/1 142/28/1 143/8/1 144/7/1
f 145/27/1 146/28/1 147/8/1 148/7/1

