# Tiled2Unity generated file. Do not modify by hand.
# Wavefront file for 'Pueblo_mesh_0108.obj'

# Vertices (Count = 96)
v -6 -1 0
v -7 -1 0
v -7 0 0
v -6 0 0
v -7 -1 0
v -8 -1 0
v -8 0 0
v -7 0 0
v -15 -1 0
v -16 -1 0
v -16 0 0
v -15 0 0
v -15 -2 0
v -16 -2 0
v -16 -1 0
v -15 -1 0
v -15 -3 0
v -16 -3 0
v -16 -2 0
v -15 -2 0
v -15 -4 0
v -16 -4 0
v -16 -3 0
v -15 -3 0
v -15 -5 0
v -16 -5 0
v -16 -4 0
v -15 -4 0
v -15 -6 0
v -16 -6 0
v -16 -5 0
v -15 -5 0
v -15 -7 0
v -16 -7 0
v -16 -6 0
v -15 -6 0
v -15 -8 0
v -16 -8 0
v -16 -7 0
v -15 -7 0
v -15 -9 0
v -16 -9 0
v -16 -8 0
v -15 -8 0
v 0 -10 0
v -1 -10 0
v -1 -9 0
v 0 -9 0
v -1 -10 0
v -2 -10 0
v -2 -9 0
v -1 -9 0
v -15 -10 0
v -16 -10 0
v -16 -9 0
v -15 -9 0
v 0 -11 0
v -1 -11 0
v -1 -10 0
v 0 -10 0
v -1 -11 0
v -2 -11 0
v -2 -10 0
v -1 -10 0
v -15 -11 0
v -16 -11 0
v -16 -10 0
v -15 -10 0
v -15 -12 0
v -16 -12 0
v -16 -11 0
v -15 -11 0
v -15 -13 0
v -16 -13 0
v -16 -12 0
v -15 -12 0
v -15 -14 0
v -16 -14 0
v -16 -13 0
v -15 -13 0
v -15 -15 0
v -16 -15 0
v -16 -14 0
v -15 -14 0
v -8 -16 0
v -9 -16 0
v -9 -15 0
v -8 -15 0
v -9 -16 0
v -10 -16 0
v -10 -15 0
v -9 -15 0
v -15 -16 0
v -16 -16 0
v -16 -15 0
v -15 -15 0

# Texture cooridinates (Count = 11)
vt 0.125 0.5
vt 0.15 0.5
vt 0.15 0.5277778
vt 0.125 0.5277778
vt 0.175 0.5
vt 0.175 0.5277778
vt 0.15 0.4722222
vt 0.175 0.4722222
vt 0.15 0.5555556
vt 0.125 0.5555556
vt 0.175 0.5555556

# Normal
vn 0 0 -1

# Mesh description
g Pueblo_mesh_0108

# Faces
f 1/1/1 2/2/1 3/3/1 4/4/1
f 5/2/1 6/5/1 7/6/1 8/3/1
f 9/7/1 10/8/1 11/5/1 12/2/1
f 13/7/1 14/8/1 15/5/1 16/2/1
f 17/7/1 18/8/1 19/5/1 20/2/1
f 21/7/1 22/8/1 23/5/1 24/2/1
f 25/7/1 26/8/1 27/5/1 28/2/1
f 29/7/1 30/8/1 31/5/1 32/2/1
f 33/7/1 34/8/1 35/5/1 36/2/1
f 37/7/1 38/8/1 39/5/1 40/2/1
f 41/7/1 42/8/1 43/5/1 44/2/1
f 45/4/1 46/3/1 47/9/1 48/10/1
f 49/3/1 50/6/1 51/11/1 52/9/1
f 53/7/1 54/8/1 55/5/1 56/2/1
f 57/1/1 58/2/1 59/3/1 60/4/1
f 61/2/1 62/5/1 63/6/1 64/3/1
f 65/7/1 66/8/1 67/5/1 68/2/1
f 69/7/1 70/8/1 71/5/1 72/2/1
f 73/7/1 74/8/1 75/5/1 76/2/1
f 77/7/1 78/8/1 79/5/1 80/2/1
f 81/7/1 82/8/1 83/5/1 84/2/1
f 85/4/1 86/3/1 87/9/1 88/10/1
f 89/3/1 90/6/1 91/11/1 92/9/1
f 93/7/1 94/8/1 95/5/1 96/2/1

