# Tiled2Unity generated file. Do not modify by hand.
# Wavefront file for 'Pueblo_mesh_0111.obj'

# Vertices (Count = 272)
v 0 -1 0
v -1 -1 0
v -1 0 0
v 0 0 0
v -1 -1 0
v -2 -1 0
v -2 0 0
v -1 0 0
v -2 -1 0
v -3 -1 0
v -3 0 0
v -2 0 0
v -3 -1 0
v -4 -1 0
v -4 0 0
v -3 0 0
v -4 -1 0
v -5 -1 0
v -5 0 0
v -4 0 0
v -13 -1 0
v -14 -1 0
v -14 0 0
v -13 0 0
v -14 -1 0
v -15 -1 0
v -15 0 0
v -14 0 0
v -15 -1 0
v -16 -1 0
v -16 0 0
v -15 0 0
v 0 -2 0
v -1 -2 0
v -1 -1 0
v 0 -1 0
v -1 -2 0
v -2 -2 0
v -2 -1 0
v -1 -1 0
v -2 -2 0
v -3 -2 0
v -3 -1 0
v -2 -1 0
v -3 -2 0
v -4 -2 0
v -4 -1 0
v -3 -1 0
v -4 -2 0
v -5 -2 0
v -5 -1 0
v -4 -1 0
v -7 -2 0
v -8 -2 0
v -8 -1 0
v -7 -1 0
v -8 -2 0
v -9 -2 0
v -9 -1 0
v -8 -1 0
v -9 -2 0
v -10 -2 0
v -10 -1 0
v -9 -1 0
v -10 -2 0
v -11 -2 0
v -11 -1 0
v -10 -1 0
v -13 -2 0
v -14 -2 0
v -14 -1 0
v -13 -1 0
v -14 -2 0
v -15 -2 0
v -15 -1 0
v -14 -1 0
v -15 -2 0
v -16 -2 0
v -16 -1 0
v -15 -1 0
v 0 -3 0
v -1 -3 0
v -1 -2 0
v 0 -2 0
v -1 -3 0
v -2 -3 0
v -2 -2 0
v -1 -2 0
v -2 -3 0
v -3 -3 0
v -3 -2 0
v -2 -2 0
v -3 -3 0
v -4 -3 0
v -4 -2 0
v -3 -2 0
v -4 -3 0
v -5 -3 0
v -5 -2 0
v -4 -2 0
v -7 -3 0
v -8 -3 0
v -8 -2 0
v -7 -2 0
v -8 -3 0
v -9 -3 0
v -9 -2 0
v -8 -2 0
v -9 -3 0
v -10 -3 0
v -10 -2 0
v -9 -2 0
v -10 -3 0
v -11 -3 0
v -11 -2 0
v -10 -2 0
v -13 -3 0
v -14 -3 0
v -14 -2 0
v -13 -2 0
v -14 -3 0
v -15 -3 0
v -15 -2 0
v -14 -2 0
v -15 -3 0
v -16 -3 0
v -16 -2 0
v -15 -2 0
v 0 -5 0
v -1 -5 0
v -1 -4 0
v 0 -4 0
v -1 -5 0
v -2 -5 0
v -2 -4 0
v -1 -4 0
v -2 -5 0
v -3 -5 0
v -3 -4 0
v -2 -4 0
v -3 -5 0
v -4 -5 0
v -4 -4 0
v -3 -4 0
v -4 -5 0
v -5 -5 0
v -5 -4 0
v -4 -4 0
v -5 -5 0
v -6 -5 0
v -6 -4 0
v -5 -4 0
v -6 -5 0
v -7 -5 0
v -7 -4 0
v -6 -4 0
v -7 -5 0
v -8 -5 0
v -8 -4 0
v -7 -4 0
v -8 -5 0
v -9 -5 0
v -9 -4 0
v -8 -4 0
v -9 -5 0
v -10 -5 0
v -10 -4 0
v -9 -4 0
v -10 -5 0
v -11 -5 0
v -11 -4 0
v -10 -4 0
v -11 -5 0
v -12 -5 0
v -12 -4 0
v -11 -4 0
v -12 -5 0
v -13 -5 0
v -13 -4 0
v -12 -4 0
v -13 -5 0
v -14 -5 0
v -14 -4 0
v -13 -4 0
v -14 -5 0
v -15 -5 0
v -15 -4 0
v -14 -4 0
v -15 -5 0
v -16 -5 0
v -16 -4 0
v -15 -4 0
v -6 -8 0
v -7 -8 0
v -7 -7 0
v -6 -7 0
v -7 -8 0
v -8 -8 0
v -8 -7 0
v -7 -7 0
v -6 -9 0
v -7 -9 0
v -7 -8 0
v -6 -8 0
v -7 -9 0
v -8 -9 0
v -8 -8 0
v -7 -8 0
v 0 -16 0
v -1 -16 0
v -1 -15 0
v 0 -15 0
v -1 -16 0
v -2 -16 0
v -2 -15 0
v -1 -15 0
v -2 -16 0
v -3 -16 0
v -3 -15 0
v -2 -15 0
v -3 -16 0
v -4 -16 0
v -4 -15 0
v -3 -15 0
v -4 -16 0
v -5 -16 0
v -5 -15 0
v -4 -15 0
v -5 -16 0
v -6 -16 0
v -6 -15 0
v -5 -15 0
v -6 -16 0
v -7 -16 0
v -7 -15 0
v -6 -15 0
v -7 -16 0
v -8 -16 0
v -8 -15 0
v -7 -15 0
v -8 -16 0
v -9 -16 0
v -9 -15 0
v -8 -15 0
v -9 -16 0
v -10 -16 0
v -10 -15 0
v -9 -15 0
v -10 -16 0
v -11 -16 0
v -11 -15 0
v -10 -15 0
v -11 -16 0
v -12 -16 0
v -12 -15 0
v -11 -15 0
v -12 -16 0
v -13 -16 0
v -13 -15 0
v -12 -15 0
v -13 -16 0
v -14 -16 0
v -14 -15 0
v -13 -15 0
v -14 -16 0
v -15 -16 0
v -15 -15 0
v -14 -15 0
v -15 -16 0
v -16 -16 0
v -16 -15 0
v -15 -15 0

# Texture cooridinates (Count = 52)
vt 0.275 0.9166667
vt 0.3 0.9166667
vt 0.3 0.9444444
vt 0.275 0.9444444
vt 0.325 0.9166667
vt 0.325 0.9444444
vt 0.35 0.9166667
vt 0.35 0.9444444
vt 0.375 0.9166667
vt 0.375 0.9444444
vt 0.4 0.9166667
vt 0.4 0.9444444
vt 0.275 0.8888889
vt 0.3 0.8888889
vt 0.325 0.8888889
vt 0.35 0.8888889
vt 0.375 0.8888889
vt 0.4 0.8888889
vt 0.65 0.4166667
vt 0.675 0.4166667
vt 0.675 0.4444444
vt 0.65 0.4444444
vt 0.7 0.4166667
vt 0.7 0.4444444
vt 0.725 0.4166667
vt 0.725 0.4444444
vt 0.75 0.4166667
vt 0.75 0.4444444
vt 0.275 0.8611111
vt 0.3 0.8611111
vt 0.325 0.8611111
vt 0.35 0.8611111
vt 0.375 0.8611111
vt 0.4 0.8611111
vt 0.65 0.3888889
vt 0.675 0.3888889
vt 0.7 0.3888889
vt 0.725 0.3888889
vt 0.75 0.3888889
vt 0.1 0.5
vt 0.125 0.5
vt 0.125 0.5277778
vt 0.1 0.5277778
vt 0.15 0.5277778
vt 0.15 0.5555556
vt 0.125 0.5555556
vt 0.175 0.5277778
vt 0.175 0.5555556
vt 0.15 0.5
vt 0.175 0.5
vt 0.125 0.4722222
vt 0.15 0.4722222

# Normal
vn 0 0 -1

# Mesh description
g Pueblo_mesh_0111

# Faces
f 1/1/1 2/2/1 3/3/1 4/4/1
f 5/2/1 6/5/1 7/6/1 8/3/1
f 9/5/1 10/7/1 11/8/1 12/6/1
f 13/7/1 14/9/1 15/10/1 16/8/1
f 17/9/1 18/11/1 19/12/1 20/10/1
f 21/1/1 22/2/1 23/3/1 24/4/1
f 25/2/1 26/5/1 27/6/1 28/3/1
f 29/5/1 30/7/1 31/8/1 32/6/1
f 33/13/1 34/14/1 35/2/1 36/1/1
f 37/14/1 38/15/1 39/5/1 40/2/1
f 41/15/1 42/16/1 43/7/1 44/5/1
f 45/16/1 46/17/1 47/9/1 48/7/1
f 49/17/1 50/18/1 51/11/1 52/9/1
f 53/19/1 54/20/1 55/21/1 56/22/1
f 57/20/1 58/23/1 59/24/1 60/21/1
f 61/23/1 62/25/1 63/26/1 64/24/1
f 65/25/1 66/27/1 67/28/1 68/26/1
f 69/13/1 70/14/1 71/2/1 72/1/1
f 73/14/1 74/15/1 75/5/1 76/2/1
f 77/15/1 78/16/1 79/7/1 80/5/1
f 81/29/1 82/30/1 83/14/1 84/13/1
f 85/30/1 86/31/1 87/15/1 88/14/1
f 89/31/1 90/32/1 91/16/1 92/15/1
f 93/32/1 94/33/1 95/17/1 96/16/1
f 97/33/1 98/34/1 99/18/1 100/17/1
f 101/35/1 102/36/1 103/20/1 104/19/1
f 105/36/1 106/37/1 107/23/1 108/20/1
f 109/37/1 110/38/1 111/25/1 112/23/1
f 113/38/1 114/39/1 115/27/1 116/25/1
f 117/29/1 118/30/1 119/14/1 120/13/1
f 121/30/1 122/31/1 123/15/1 124/14/1
f 125/31/1 126/32/1 127/16/1 128/15/1
f 129/40/1 130/41/1 131/42/1 132/43/1
f 133/40/1 134/41/1 135/42/1 136/43/1
f 137/40/1 138/41/1 139/42/1 140/43/1
f 141/40/1 142/41/1 143/42/1 144/43/1
f 145/40/1 146/41/1 147/42/1 148/43/1
f 149/40/1 150/41/1 151/42/1 152/43/1
f 153/40/1 154/41/1 155/42/1 156/43/1
f 157/40/1 158/41/1 159/42/1 160/43/1
f 161/40/1 162/41/1 163/42/1 164/43/1
f 165/40/1 166/41/1 167/42/1 168/43/1
f 169/40/1 170/41/1 171/42/1 172/43/1
f 173/40/1 174/41/1 175/42/1 176/43/1
f 177/40/1 178/41/1 179/42/1 180/43/1
f 181/40/1 182/41/1 183/42/1 184/43/1
f 185/40/1 186/41/1 187/42/1 188/43/1
f 189/40/1 190/41/1 191/42/1 192/43/1
f 193/42/1 194/44/1 195/45/1 196/46/1
f 197/44/1 198/47/1 199/48/1 200/45/1
f 201/41/1 202/49/1 203/44/1 204/42/1
f 205/49/1 206/50/1 207/47/1 208/44/1
f 209/51/1 210/52/1 211/49/1 212/41/1
f 213/51/1 214/52/1 215/49/1 216/41/1
f 217/51/1 218/52/1 219/49/1 220/41/1
f 221/51/1 222/52/1 223/49/1 224/41/1
f 225/51/1 226/52/1 227/49/1 228/41/1
f 229/51/1 230/52/1 231/49/1 232/41/1
f 233/51/1 234/52/1 235/49/1 236/41/1
f 237/51/1 238/52/1 239/49/1 240/41/1
f 241/51/1 242/52/1 243/49/1 244/41/1
f 245/51/1 246/52/1 247/49/1 248/41/1
f 249/51/1 250/52/1 251/49/1 252/41/1
f 253/51/1 254/52/1 255/49/1 256/41/1
f 257/51/1 258/52/1 259/49/1 260/41/1
f 261/51/1 262/52/1 263/49/1 264/41/1
f 265/51/1 266/52/1 267/49/1 268/41/1
f 269/51/1 270/52/1 271/49/1 272/41/1

