# Tiled2Unity generated file. Do not modify by hand.
# Wavefront file for 'Pueblo_mesh_0106.obj'

# Vertices (Count = 192)
v -6 -1 0
v -7 -1 0
v -7 0 0
v -6 0 0
v -7 -1 0
v -8 -1 0
v -8 0 0
v -7 0 0
v -8 -1 0
v -9 -1 0
v -9 0 0
v -8 0 0
v -9 -1 0
v -10 -1 0
v -10 0 0
v -9 0 0
v -10 -1 0
v -11 -1 0
v -11 0 0
v -10 0 0
v -12 -3 0
v -13 -3 0
v -13 -2 0
v -12 -2 0
v -13 -3 0
v -14 -3 0
v -14 -2 0
v -13 -2 0
v -14 -3 0
v -15 -3 0
v -15 -2 0
v -14 -2 0
v -15 -3 0
v -16 -3 0
v -16 -2 0
v -15 -2 0
v -12 -4 0
v -13 -4 0
v -13 -3 0
v -12 -3 0
v -13 -4 0
v -14 -4 0
v -14 -3 0
v -13 -3 0
v -14 -4 0
v -15 -4 0
v -15 -3 0
v -14 -3 0
v -15 -4 0
v -16 -4 0
v -16 -3 0
v -15 -3 0
v -12 -5 0
v -13 -5 0
v -13 -4 0
v -12 -4 0
v -13 -5 0
v -14 -5 0
v -14 -4 0
v -13 -4 0
v -14 -5 0
v -15 -5 0
v -15 -4 0
v -14 -4 0
v -15 -5 0
v -16 -5 0
v -16 -4 0
v -15 -4 0
v -12 -6 0
v -13 -6 0
v -13 -5 0
v -12 -5 0
v -13 -6 0
v -14 -6 0
v -14 -5 0
v -13 -5 0
v -14 -6 0
v -15 -6 0
v -15 -5 0
v -14 -5 0
v -15 -6 0
v -16 -6 0
v -16 -5 0
v -15 -5 0
v -5 -7 0
v -6 -7 0
v -6 -6 0
v -5 -6 0
v -6 -7 0
v -7 -7 0
v -7 -6 0
v -6 -6 0
v -12 -7 0
v -13 -7 0
v -13 -6 0
v -12 -6 0
v -13 -7 0
v -14 -7 0
v -14 -6 0
v -13 -6 0
v -14 -7 0
v -15 -7 0
v -15 -6 0
v -14 -6 0
v -15 -7 0
v -16 -7 0
v -16 -6 0
v -15 -6 0
v -5 -8 0
v -6 -8 0
v -6 -7 0
v -5 -7 0
v -6 -8 0
v -7 -8 0
v -7 -7 0
v -6 -7 0
v -12 -8 0
v -13 -8 0
v -13 -7 0
v -12 -7 0
v -13 -8 0
v -14 -8 0
v -14 -7 0
v -13 -7 0
v -14 -8 0
v -15 -8 0
v -15 -7 0
v -14 -7 0
v -15 -8 0
v -16 -8 0
v -16 -7 0
v -15 -7 0
v -13 -11 0
v -14 -11 0
v -14 -10 0
v -13 -10 0
v -14 -11 0
v -15 -11 0
v -15 -10 0
v -14 -10 0
v -15 -11 0
v -16 -11 0
v -16 -10 0
v -15 -10 0
v -9 -13 0
v -10 -13 0
v -10 -12 0
v -9 -12 0
v -10 -13 0
v -11 -13 0
v -11 -12 0
v -10 -12 0
v -11 -13 0
v -12 -13 0
v -12 -12 0
v -11 -12 0
v 0 -15 0
v -1 -15 0
v -1 -14 0
v 0 -14 0
v -1 -15 0
v -2 -15 0
v -2 -14 0
v -1 -14 0
v 0 -16 0
v -1 -16 0
v -1 -15 0
v 0 -15 0
v -1 -16 0
v -2 -16 0
v -2 -15 0
v -1 -15 0
v -6 -16 0
v -7 -16 0
v -7 -15 0
v -6 -15 0
v -7 -16 0
v -8 -16 0
v -8 -15 0
v -7 -15 0
v -13 -16 0
v -14 -16 0
v -14 -15 0
v -13 -15 0
v -14 -16 0
v -15 -16 0
v -15 -15 0
v -14 -15 0
v -15 -16 0
v -16 -16 0
v -16 -15 0
v -15 -15 0

# Texture cooridinates (Count = 81)
vt 0.15 0.8611111
vt 0.175 0.8611111
vt 0.175 0.8888889
vt 0.15 0.8888889
vt 0.2 0.8611111
vt 0.2 0.8888889
vt 0.225 0.8611111
vt 0.225 0.8888889
vt 0.25 0.8611111
vt 0.25 0.8888889
vt 0.275 0.8611111
vt 0.275 0.8888889
vt 0.45 0.3611111
vt 0.475 0.3611111
vt 0.475 0.3888889
vt 0.45 0.3888889
vt 0.5 0.3611111
vt 0.5 0.3888889
vt 0.525 0.3611111
vt 0.525 0.3888889
vt 0.55 0.3611111
vt 0.55 0.3888889
vt 0.45 0.3333333
vt 0.475 0.3333333
vt 0.5 0.3333333
vt 0.525 0.3333333
vt 0.55 0.3333333
vt 0.45 0.3055556
vt 0.475 0.3055556
vt 0.5 0.3055556
vt 0.525 0.3055556
vt 0.55 0.3055556
vt 0.45 0.2777778
vt 0.475 0.2777778
vt 0.575 0.4166667
vt 0.6 0.4166667
vt 0.6 0.4444444
vt 0.575 0.4444444
vt 0.625 0.4166667
vt 0.65 0.4166667
vt 0.65 0.4444444
vt 0.625 0.4444444
vt 0.125 0.5277778
vt 0.15 0.5277778
vt 0.15 0.5555556
vt 0.125 0.5555556
vt 0.175 0.5277778
vt 0.175 0.5555556
vt 0.45 0.25
vt 0.475 0.25
vt 0.575 0.3888889
vt 0.6 0.3888889
vt 0.625 0.3888889
vt 0.65 0.3888889
vt 0.125 0.5
vt 0.15 0.5
vt 0.175 0.5
vt 0.45 0.2222222
vt 0.475 0.2222222
vt 0.5 0.2222222
vt 0.5 0.25
vt 0.525 0.2222222
vt 0.525 0.25
vt 0.55 0.2222222
vt 0.55 0.25
vt 0.075 0.8333333
vt 0.1 0.8333333
vt 0.1 0.8611111
vt 0.075 0.8611111
vt 0.125 0.8333333
vt 0.125 0.8611111
vt 0.15 0.8333333
vt 0.35 0.9722222
vt 0.375 0.9722222
vt 0.375 1
vt 0.35 1
vt 0.4 0.9722222
vt 0.4 1
vt 0.35 0.9444444
vt 0.375 0.9444444
vt 0.4 0.9444444

# Normal
vn 0 0 -1

# Mesh description
g Pueblo_mesh_0106

# Faces
f 1/1/1 2/2/1 3/3/1 4/4/1
f 5/2/1 6/5/1 7/6/1 8/3/1
f 9/5/1 10/7/1 11/8/1 12/6/1
f 13/7/1 14/9/1 15/10/1 16/8/1
f 17/9/1 18/11/1 19/12/1 20/10/1
f 21/13/1 22/14/1 23/15/1 24/16/1
f 25/14/1 26/17/1 27/18/1 28/15/1
f 29/17/1 30/19/1 31/20/1 32/18/1
f 33/19/1 34/21/1 35/22/1 36/20/1
f 37/23/1 38/24/1 39/14/1 40/13/1
f 41/24/1 42/25/1 43/17/1 44/14/1
f 45/25/1 46/26/1 47/19/1 48/17/1
f 49/26/1 50/27/1 51/21/1 52/19/1
f 53/28/1 54/29/1 55/24/1 56/23/1
f 57/29/1 58/30/1 59/25/1 60/24/1
f 61/30/1 62/31/1 63/26/1 64/25/1
f 65/31/1 66/32/1 67/27/1 68/26/1
f 69/33/1 70/34/1 71/29/1 72/28/1
f 73/35/1 74/36/1 75/37/1 76/38/1
f 77/39/1 78/40/1 79/41/1 80/42/1
f 81/35/1 82/36/1 83/37/1 84/38/1
f 85/43/1 86/44/1 87/45/1 88/46/1
f 89/44/1 90/47/1 91/48/1 92/45/1
f 93/49/1 94/50/1 95/34/1 96/33/1
f 97/51/1 98/52/1 99/36/1 100/35/1
f 101/53/1 102/54/1 103/40/1 104/39/1
f 105/51/1 106/52/1 107/36/1 108/35/1
f 109/55/1 110/56/1 111/44/1 112/43/1
f 113/56/1 114/57/1 115/47/1 116/44/1
f 117/58/1 118/59/1 119/50/1 120/49/1
f 121/59/1 122/60/1 123/61/1 124/50/1
f 125/60/1 126/62/1 127/63/1 128/61/1
f 129/62/1 130/64/1 131/65/1 132/63/1
f 133/66/1 134/67/1 135/68/1 136/69/1
f 137/67/1 138/70/1 139/71/1 140/68/1
f 141/70/1 142/72/1 143/1/1 144/71/1
f 145/66/1 146/67/1 147/68/1 148/69/1
f 149/67/1 150/70/1 151/71/1 152/68/1
f 153/70/1 154/72/1 155/1/1 156/71/1
f 157/73/1 158/74/1 159/75/1 160/76/1
f 161/74/1 162/77/1 163/78/1 164/75/1
f 165/79/1 166/80/1 167/74/1 168/73/1
f 169/80/1 170/81/1 171/77/1 172/74/1
f 173/43/1 174/44/1 175/45/1 176/46/1
f 177/44/1 178/47/1 179/48/1 180/45/1
f 181/66/1 182/67/1 183/68/1 184/69/1
f 185/67/1 186/70/1 187/71/1 188/68/1
f 189/70/1 190/72/1 191/1/1 192/71/1

