# Tiled2Unity generated file. Do not modify by hand.
# Wavefront file for 'Pueblo_mesh_0065.obj'

# Vertices (Count = 380)
v 0 -1 0
v -1 -1 0
v -1 0 0
v 0 0 0
v -1 -1 0
v -2 -1 0
v -2 0 0
v -1 0 0
v -2 -1 0
v -3 -1 0
v -3 0 0
v -2 0 0
v -14 -1 0
v -15 -1 0
v -15 0 0
v -14 0 0
v -15 -1 0
v -16 -1 0
v -16 0 0
v -15 0 0
v -2 -2 0
v -3 -2 0
v -3 -1 0
v -2 -1 0
v -14 -2 0
v -15 -2 0
v -15 -1 0
v -14 -1 0
v -2 -3 0
v -3 -3 0
v -3 -2 0
v -2 -2 0
v -3 -3 0
v -4 -3 0
v -4 -2 0
v -3 -2 0
v -4 -3 0
v -5 -3 0
v -5 -2 0
v -4 -2 0
v -5 -3 0
v -6 -3 0
v -6 -2 0
v -5 -2 0
v -6 -3 0
v -7 -3 0
v -7 -2 0
v -6 -2 0
v -7 -3 0
v -8 -3 0
v -8 -2 0
v -7 -2 0
v -8 -3 0
v -9 -3 0
v -9 -2 0
v -8 -2 0
v -9 -3 0
v -10 -3 0
v -10 -2 0
v -9 -2 0
v -10 -3 0
v -11 -3 0
v -11 -2 0
v -10 -2 0
v -11 -3 0
v -12 -3 0
v -12 -2 0
v -11 -2 0
v -12 -3 0
v -13 -3 0
v -13 -2 0
v -12 -2 0
v -13 -3 0
v -14 -3 0
v -14 -2 0
v -13 -2 0
v -14 -3 0
v -15 -3 0
v -15 -2 0
v -14 -2 0
v 0 -4 0
v -1 -4 0
v -1 -3 0
v 0 -3 0
v -1 -4 0
v -2 -4 0
v -2 -3 0
v -1 -3 0
v -2 -4 0
v -3 -4 0
v -3 -3 0
v -2 -3 0
v -3 -4 0
v -4 -4 0
v -4 -3 0
v -3 -3 0
v -4 -4 0
v -5 -4 0
v -5 -3 0
v -4 -3 0
v -5 -4 0
v -6 -4 0
v -6 -3 0
v -5 -3 0
v -11 -4 0
v -12 -4 0
v -12 -3 0
v -11 -3 0
v -12 -4 0
v -13 -4 0
v -13 -3 0
v -12 -3 0
v -13 -4 0
v -14 -4 0
v -14 -3 0
v -13 -3 0
v -14 -4 0
v -15 -4 0
v -15 -3 0
v -14 -3 0
v -15 -4 0
v -16 -4 0
v -16 -3 0
v -15 -3 0
v 0 -5 0
v -1 -5 0
v -1 -4 0
v 0 -4 0
v -1 -5 0
v -2 -5 0
v -2 -4 0
v -1 -4 0
v -2 -5 0
v -3 -5 0
v -3 -4 0
v -2 -4 0
v -3 -5 0
v -4 -5 0
v -4 -4 0
v -3 -4 0
v -4 -5 0
v -5 -5 0
v -5 -4 0
v -4 -4 0
v -5 -5 0
v -6 -5 0
v -6 -4 0
v -5 -4 0
v -11 -5 0
v -12 -5 0
v -12 -4 0
v -11 -4 0
v -12 -5 0
v -13 -5 0
v -13 -4 0
v -12 -4 0
v -13 -5 0
v -14 -5 0
v -14 -4 0
v -13 -4 0
v -14 -5 0
v -15 -5 0
v -15 -4 0
v -14 -4 0
v -15 -5 0
v -16 -5 0
v -16 -4 0
v -15 -4 0
v 0 -6 0
v -1 -6 0
v -1 -5 0
v 0 -5 0
v -1 -6 0
v -2 -6 0
v -2 -5 0
v -1 -5 0
v -2 -6 0
v -3 -6 0
v -3 -5 0
v -2 -5 0
v -3 -6 0
v -4 -6 0
v -4 -5 0
v -3 -5 0
v -4 -6 0
v -5 -6 0
v -5 -5 0
v -4 -5 0
v -5 -6 0
v -6 -6 0
v -6 -5 0
v -5 -5 0
v -11 -6 0
v -12 -6 0
v -12 -5 0
v -11 -5 0
v -12 -6 0
v -13 -6 0
v -13 -5 0
v -12 -5 0
v -13 -6 0
v -14 -6 0
v -14 -5 0
v -13 -5 0
v -14 -6 0
v -15 -6 0
v -15 -5 0
v -14 -5 0
v -15 -6 0
v -16 -6 0
v -16 -5 0
v -15 -5 0
v 0 -7 0
v -1 -7 0
v -1 -6 0
v 0 -6 0
v -1 -7 0
v -2 -7 0
v -2 -6 0
v -1 -6 0
v -2 -7 0
v -3 -7 0
v -3 -6 0
v -2 -6 0
v -3 -7 0
v -4 -7 0
v -4 -6 0
v -3 -6 0
v -4 -7 0
v -5 -7 0
v -5 -6 0
v -4 -6 0
v -5 -7 0
v -6 -7 0
v -6 -6 0
v -5 -6 0
v -11 -7 0
v -12 -7 0
v -12 -6 0
v -11 -6 0
v -12 -7 0
v -13 -7 0
v -13 -6 0
v -12 -6 0
v -13 -7 0
v -14 -7 0
v -14 -6 0
v -13 -6 0
v -14 -7 0
v -15 -7 0
v -15 -6 0
v -14 -6 0
v -15 -7 0
v -16 -7 0
v -16 -6 0
v -15 -6 0
v 0 -8 0
v -1 -8 0
v -1 -7 0
v 0 -7 0
v -1 -8 0
v -2 -8 0
v -2 -7 0
v -1 -7 0
v -2 -8 0
v -3 -8 0
v -3 -7 0
v -2 -7 0
v -3 -8 0
v -4 -8 0
v -4 -7 0
v -3 -7 0
v -4 -8 0
v -5 -8 0
v -5 -7 0
v -4 -7 0
v -5 -8 0
v -6 -8 0
v -6 -7 0
v -5 -7 0
v -11 -8 0
v -12 -8 0
v -12 -7 0
v -11 -7 0
v -12 -8 0
v -13 -8 0
v -13 -7 0
v -12 -7 0
v -13 -8 0
v -14 -8 0
v -14 -7 0
v -13 -7 0
v -14 -8 0
v -15 -8 0
v -15 -7 0
v -14 -7 0
v -15 -8 0
v -16 -8 0
v -16 -7 0
v -15 -7 0
v -3 -9 0
v -4 -9 0
v -4 -8 0
v -3 -8 0
v -4 -9 0
v -5 -9 0
v -5 -8 0
v -4 -8 0
v -5 -9 0
v -6 -9 0
v -6 -8 0
v -5 -8 0
v -6 -9 0
v -7 -9 0
v -7 -8 0
v -6 -8 0
v -7 -9 0
v -8 -9 0
v -8 -8 0
v -7 -8 0
v -8 -9 0
v -9 -9 0
v -9 -8 0
v -8 -8 0
v -9 -9 0
v -10 -9 0
v -10 -8 0
v -9 -8 0
v -10 -9 0
v -11 -9 0
v -11 -8 0
v -10 -8 0
v -11 -9 0
v -12 -9 0
v -12 -8 0
v -11 -8 0
v -12 -9 0
v -13 -9 0
v -13 -8 0
v -12 -8 0
v -1 -10 0
v -2 -10 0
v -2 -9 0
v -1 -9 0
v -2 -10 0
v -3 -10 0
v -3 -9 0
v -2 -9 0
v -3 -10 0
v -4 -10 0
v -4 -9 0
v -3 -9 0
v -12 -10 0
v -13 -10 0
v -13 -9 0
v -12 -9 0
v -13 -10 0
v -14 -10 0
v -14 -9 0
v -13 -9 0
v -14 -10 0
v -15 -10 0
v -15 -9 0
v -14 -9 0
v -15 -10 0
v -16 -10 0
v -16 -9 0
v -15 -9 0
v 0 -11 0
v -1 -11 0
v -1 -10 0
v 0 -10 0
v -1 -11 0
v -2 -11 0
v -2 -10 0
v -1 -10 0
v -15 -11 0
v -16 -11 0
v -16 -10 0
v -15 -10 0

# Texture cooridinates (Count = 52)
vt 0.075 0.75
vt 0.1 0.75
vt 0.1 0.7777778
vt 0.075 0.7777778
vt 0.075 0.7222222
vt 0.1 0.7222222
vt 0.05 0.7222222
vt 0.05 0.75
vt 0.05 0.7777778
vt 0.075 0.8055556
vt 0.05 0.8055556
vt 0.125 0.7777778
vt 0.125 0.8055556
vt 0.1 0.8055556
vt 0.125 0.75
vt 0.125 0.6666666
vt 0.15 0.6666666
vt 0.15 0.6944444
vt 0.125 0.6944444
vt 0.225 0.5
vt 0.25 0.5
vt 0.25 0.5277778
vt 0.225 0.5277778
vt 0.275 0.5
vt 0.275 0.5277778
vt 0.125 0.6388889
vt 0.15 0.6388889
vt 0.225 0.4722222
vt 0.25 0.4722222
vt 0.275 0.4722222
vt 0.125 0.6111111
vt 0.15 0.6111111
vt 0.225 0.4444444
vt 0.25 0.4444444
vt 0.275 0.4444444
vt 0.125 0.5833334
vt 0.15 0.5833334
vt 0.225 0.4166667
vt 0.25 0.4166667
vt 0.275 0.4166667
vt 0.125 0.5555556
vt 0.15 0.5555556
vt 0.225 0.3888889
vt 0.25 0.3888889
vt 0.275 0.3888889
vt 0.075 0.8333333
vt 0.05 0.8333333
vt 0.1 0.8333333
vt 0.075 0.6944444
vt 0.1 0.6944444
vt 0.05 0.6944444
vt 0.125 0.8333333

# Normal
vn 0 0 -1

# Mesh description
g Pueblo_mesh_0065

# Faces
f 1/1/1 2/2/1 3/3/1 4/4/1
f 5/1/1 6/2/1 7/3/1 8/4/1
f 9/5/1 10/6/1 11/2/1 12/1/1
f 13/7/1 14/5/1 15/1/1 16/8/1
f 17/1/1 18/2/1 19/3/1 20/4/1
f 21/9/1 22/4/1 23/10/1 24/11/1
f 25/3/1 26/12/1 27/13/1 28/14/1
f 29/8/1 30/1/1 31/4/1 32/9/1
f 33/1/1 34/2/1 35/3/1 36/4/1
f 37/1/1 38/2/1 39/3/1 40/4/1
f 41/5/1 42/6/1 43/2/1 44/1/1
f 45/4/1 46/3/1 47/14/1 48/10/1
f 49/4/1 50/3/1 51/14/1 52/10/1
f 53/4/1 54/3/1 55/14/1 56/10/1
f 57/4/1 58/3/1 59/14/1 60/10/1
f 61/4/1 62/3/1 63/14/1 64/10/1
f 65/7/1 66/5/1 67/1/1 68/8/1
f 69/1/1 70/2/1 71/3/1 72/4/1
f 73/1/1 74/2/1 75/3/1 76/4/1
f 77/2/1 78/15/1 79/12/1 80/3/1
f 81/16/1 82/17/1 83/18/1 84/19/1
f 85/16/1 86/17/1 87/18/1 88/19/1
f 89/16/1 90/17/1 91/18/1 92/19/1
f 93/16/1 94/17/1 95/18/1 96/19/1
f 97/16/1 98/17/1 99/18/1 100/19/1
f 101/20/1 102/21/1 103/22/1 104/23/1
f 105/21/1 106/24/1 107/25/1 108/22/1
f 109/16/1 110/17/1 111/18/1 112/19/1
f 113/16/1 114/17/1 115/18/1 116/19/1
f 117/16/1 118/17/1 119/18/1 120/19/1
f 121/16/1 122/17/1 123/18/1 124/19/1
f 125/26/1 126/27/1 127/17/1 128/16/1
f 129/26/1 130/27/1 131/17/1 132/16/1
f 133/26/1 134/27/1 135/17/1 136/16/1
f 137/26/1 138/27/1 139/17/1 140/16/1
f 141/26/1 142/27/1 143/17/1 144/16/1
f 145/28/1 146/29/1 147/21/1 148/20/1
f 149/29/1 150/30/1 151/24/1 152/21/1
f 153/26/1 154/27/1 155/17/1 156/16/1
f 157/26/1 158/27/1 159/17/1 160/16/1
f 161/26/1 162/27/1 163/17/1 164/16/1
f 165/26/1 166/27/1 167/17/1 168/16/1
f 169/31/1 170/32/1 171/27/1 172/26/1
f 173/31/1 174/32/1 175/27/1 176/26/1
f 177/31/1 178/32/1 179/27/1 180/26/1
f 181/31/1 182/32/1 183/27/1 184/26/1
f 185/31/1 186/32/1 187/27/1 188/26/1
f 189/33/1 190/34/1 191/29/1 192/28/1
f 193/34/1 194/35/1 195/30/1 196/29/1
f 197/31/1 198/32/1 199/27/1 200/26/1
f 201/31/1 202/32/1 203/27/1 204/26/1
f 205/31/1 206/32/1 207/27/1 208/26/1
f 209/31/1 210/32/1 211/27/1 212/26/1
f 213/36/1 214/37/1 215/32/1 216/31/1
f 217/36/1 218/37/1 219/32/1 220/31/1
f 221/36/1 222/37/1 223/32/1 224/31/1
f 225/36/1 226/37/1 227/32/1 228/31/1
f 229/36/1 230/37/1 231/32/1 232/31/1
f 233/38/1 234/39/1 235/34/1 236/33/1
f 237/39/1 238/40/1 239/35/1 240/34/1
f 241/36/1 242/37/1 243/32/1 244/31/1
f 245/36/1 246/37/1 247/32/1 248/31/1
f 249/36/1 250/37/1 251/32/1 252/31/1
f 253/36/1 254/37/1 255/32/1 256/31/1
f 257/41/1 258/42/1 259/37/1 260/36/1
f 261/41/1 262/42/1 263/37/1 264/36/1
f 265/41/1 266/42/1 267/37/1 268/36/1
f 269/41/1 270/42/1 271/37/1 272/36/1
f 273/41/1 274/42/1 275/37/1 276/36/1
f 277/43/1 278/44/1 279/39/1 280/38/1
f 281/44/1 282/45/1 283/40/1 284/39/1
f 285/41/1 286/42/1 287/37/1 288/36/1
f 289/41/1 290/42/1 291/37/1 292/36/1
f 293/41/1 294/42/1 295/37/1 296/36/1
f 297/41/1 298/42/1 299/37/1 300/36/1
f 301/11/1 302/10/1 303/46/1 304/47/1
f 305/10/1 306/14/1 307/48/1 308/46/1
f 309/49/1 310/50/1 311/6/1 312/5/1
f 313/4/1 314/3/1 315/14/1 316/10/1
f 317/4/1 318/3/1 319/14/1 320/10/1
f 321/4/1 322/3/1 323/14/1 324/10/1
f 325/4/1 326/3/1 327/14/1 328/10/1
f 329/4/1 330/3/1 331/14/1 332/10/1
f 333/51/1 334/49/1 335/5/1 336/7/1
f 337/14/1 338/13/1 339/52/1 340/48/1
f 341/11/1 342/10/1 343/46/1 344/47/1
f 345/10/1 346/14/1 347/48/1 348/46/1
f 349/49/1 350/50/1 351/6/1 352/5/1
f 353/51/1 354/49/1 355/5/1 356/7/1
f 357/10/1 358/14/1 359/48/1 360/46/1
f 361/10/1 362/14/1 363/48/1 364/46/1
f 365/14/1 366/13/1 367/52/1 368/48/1
f 369/10/1 370/14/1 371/48/1 372/46/1
f 373/49/1 374/50/1 375/6/1 376/5/1
f 377/51/1 378/49/1 379/5/1 380/7/1

