# Tiled2Unity generated file. Do not modify by hand.
# Wavefront file for 'Cueva-1f_mesh_0006.obj'

# Vertices (Count = 32)
v -3 -4 0
v -4 -4 0
v -4 -3 0
v -3 -3 0
v -10 -4 0
v -11 -4 0
v -11 -3 0
v -10 -3 0
v -17 -6 0
v -18 -6 0
v -18 -5 0
v -17 -5 0
v -21 -6 0
v -22 -6 0
v -22 -5 0
v -21 -5 0
v -1 -19 0
v -2 -19 0
v -2 -18 0
v -1 -18 0
v -7 -19 0
v -8 -19 0
v -8 -18 0
v -7 -18 0
v -1 -24 0
v -2 -24 0
v -2 -23 0
v -1 -23 0
v -7 -24 0
v -8 -24 0
v -8 -23 0
v -7 -23 0

# Texture cooridinates (Count = 4)
vt 0.1818182 0.8
vt 0.2121212 0.8
vt 0.2121212 0.85
vt 0.1818182 0.85

# Normal
vn 0 0 -1

# Mesh description
g Cueva-1f_mesh_0006

# Faces
f 1/1/1 2/2/1 3/3/1 4/4/1
f 5/1/1 6/2/1 7/3/1 8/4/1
f 9/1/1 10/2/1 11/3/1 12/4/1
f 13/1/1 14/2/1 15/3/1 16/4/1
f 17/1/1 18/2/1 19/3/1 20/4/1
f 21/1/1 22/2/1 23/3/1 24/4/1
f 25/1/1 26/2/1 27/3/1 28/4/1
f 29/1/1 30/2/1 31/3/1 32/4/1

