# Tiled2Unity generated file. Do not modify by hand.
# Wavefront file for 'Cueva-1f_mesh_0002.obj'

# Vertices (Count = 452)
v -4 -1 0
v -5 -1 0
v -5 0 0
v -4 0 0
v -5 -1 0
v -6 -1 0
v -6 0 0
v -5 0 0
v -6 -1 0
v -7 -1 0
v -7 0 0
v -6 0 0
v -7 -1 0
v -8 -1 0
v -8 0 0
v -7 0 0
v -8 -1 0
v -9 -1 0
v -9 0 0
v -8 0 0
v -9 -1 0
v -10 -1 0
v -10 0 0
v -9 0 0
v -1 -2 0
v -2 -2 0
v -2 -1 0
v -1 -1 0
v -2 -2 0
v -3 -2 0
v -3 -1 0
v -2 -1 0
v -3 -2 0
v -4 -2 0
v -4 -1 0
v -3 -1 0
v -4 -2 0
v -5 -2 0
v -5 -1 0
v -4 -1 0
v -5 -2 0
v -6 -2 0
v -6 -1 0
v -5 -1 0
v -8 -2 0
v -9 -2 0
v -9 -1 0
v -8 -1 0
v -9 -2 0
v -10 -2 0
v -10 -1 0
v -9 -1 0
v -10 -2 0
v -11 -2 0
v -11 -1 0
v -10 -1 0
v -1 -3 0
v -2 -3 0
v -2 -2 0
v -1 -2 0
v -2 -3 0
v -3 -3 0
v -3 -2 0
v -2 -2 0
v -3 -3 0
v -4 -3 0
v -4 -2 0
v -3 -2 0
v -4 -3 0
v -5 -3 0
v -5 -2 0
v -4 -2 0
v -5 -3 0
v -6 -3 0
v -6 -2 0
v -5 -2 0
v -8 -3 0
v -9 -3 0
v -9 -2 0
v -8 -2 0
v -9 -3 0
v -10 -3 0
v -10 -2 0
v -9 -2 0
v -10 -3 0
v -11 -3 0
v -11 -2 0
v -10 -2 0
v -11 -3 0
v -12 -3 0
v -12 -2 0
v -11 -2 0
v -12 -3 0
v -13 -3 0
v -13 -2 0
v -12 -2 0
v -17 -3 0
v -18 -3 0
v -18 -2 0
v -17 -2 0
v -21 -3 0
v -22 -3 0
v -22 -2 0
v -21 -2 0
v -22 -3 0
v -23 -3 0
v -23 -2 0
v -22 -2 0
v -4 -4 0
v -5 -4 0
v -5 -3 0
v -4 -3 0
v -5 -4 0
v -6 -4 0
v -6 -3 0
v -5 -3 0
v -8 -4 0
v -9 -4 0
v -9 -3 0
v -8 -3 0
v -9 -4 0
v -10 -4 0
v -10 -3 0
v -9 -3 0
v -11 -4 0
v -12 -4 0
v -12 -3 0
v -11 -3 0
v -12 -4 0
v -13 -4 0
v -13 -3 0
v -12 -3 0
v -21 -4 0
v -22 -4 0
v -22 -3 0
v -21 -3 0
v -22 -4 0
v -23 -4 0
v -23 -3 0
v -22 -3 0
v -2 -5 0
v -3 -5 0
v -3 -4 0
v -2 -4 0
v -3 -5 0
v -4 -5 0
v -4 -4 0
v -3 -4 0
v -4 -5 0
v -5 -5 0
v -5 -4 0
v -4 -4 0
v -5 -5 0
v -6 -5 0
v -6 -4 0
v -5 -4 0
v -8 -5 0
v -9 -5 0
v -9 -4 0
v -8 -4 0
v -9 -5 0
v -10 -5 0
v -10 -4 0
v -9 -4 0
v -10 -5 0
v -11 -5 0
v -11 -4 0
v -10 -4 0
v -4 -6 0
v -5 -6 0
v -5 -5 0
v -4 -5 0
v -9 -6 0
v -10 -6 0
v -10 -5 0
v -9 -5 0
v -19 -6 0
v -20 -6 0
v -20 -5 0
v -19 -5 0
v -1 -7 0
v -2 -7 0
v -2 -6 0
v -1 -6 0
v -14 -7 0
v -15 -7 0
v -15 -6 0
v -14 -6 0
v -17 -7 0
v -18 -7 0
v -18 -6 0
v -17 -6 0
v -18 -7 0
v -19 -7 0
v -19 -6 0
v -18 -6 0
v -19 -7 0
v -20 -7 0
v -20 -6 0
v -19 -6 0
v -20 -7 0
v -21 -7 0
v -21 -6 0
v -20 -6 0
v -21 -7 0
v -22 -7 0
v -22 -6 0
v -21 -6 0
v -3 -8 0
v -4 -8 0
v -4 -7 0
v -3 -7 0
v -10 -8 0
v -11 -8 0
v -11 -7 0
v -10 -7 0
v -18 -8 0
v -19 -8 0
v -19 -7 0
v -18 -7 0
v -19 -8 0
v -20 -8 0
v -20 -7 0
v -19 -7 0
v -20 -8 0
v -21 -8 0
v -21 -7 0
v -20 -7 0
v -11 -9 0
v -12 -9 0
v -12 -8 0
v -11 -8 0
v -12 -9 0
v -13 -9 0
v -13 -8 0
v -12 -8 0
v -18 -9 0
v -19 -9 0
v -19 -8 0
v -18 -8 0
v -20 -9 0
v -21 -9 0
v -21 -8 0
v -20 -8 0
v -4 -10 0
v -5 -10 0
v -5 -9 0
v -4 -9 0
v -8 -10 0
v -9 -10 0
v -9 -9 0
v -8 -9 0
v -11 -10 0
v -12 -10 0
v -12 -9 0
v -11 -9 0
v -12 -10 0
v -13 -10 0
v -13 -9 0
v -12 -9 0
v -17 -10 0
v -18 -10 0
v -18 -9 0
v -17 -9 0
v -18 -10 0
v -19 -10 0
v -19 -9 0
v -18 -9 0
v -20 -10 0
v -21 -10 0
v -21 -9 0
v -20 -9 0
v -21 -10 0
v -22 -10 0
v -22 -9 0
v -21 -9 0
v -18 -11 0
v -19 -11 0
v -19 -10 0
v -18 -10 0
v -20 -11 0
v -21 -11 0
v -21 -10 0
v -20 -10 0
v -2 -12 0
v -3 -12 0
v -3 -11 0
v -2 -11 0
v -5 -12 0
v -6 -12 0
v -6 -11 0
v -5 -11 0
v -10 -12 0
v -11 -12 0
v -11 -11 0
v -10 -11 0
v -13 -13 0
v -14 -13 0
v -14 -12 0
v -13 -12 0
v -20 -13 0
v -21 -13 0
v -21 -12 0
v -20 -12 0
v -12 -14 0
v -13 -14 0
v -13 -13 0
v -12 -13 0
v -4 -15 0
v -5 -15 0
v -5 -14 0
v -4 -14 0
v -9 -15 0
v -10 -15 0
v -10 -14 0
v -9 -14 0
v -18 -15 0
v -19 -15 0
v -19 -14 0
v -18 -14 0
v -2 -16 0
v -3 -16 0
v -3 -15 0
v -2 -15 0
v -20 -17 0
v -21 -17 0
v -21 -16 0
v -20 -16 0
v -11 -18 0
v -12 -18 0
v -12 -17 0
v -11 -17 0
v -12 -18 0
v -13 -18 0
v -13 -17 0
v -12 -17 0
v -2 -19 0
v -3 -19 0
v -3 -18 0
v -2 -18 0
v -5 -19 0
v -6 -19 0
v -6 -18 0
v -5 -18 0
v -6 -19 0
v -7 -19 0
v -7 -18 0
v -6 -18 0
v -11 -19 0
v -12 -19 0
v -12 -18 0
v -11 -18 0
v -12 -19 0
v -13 -19 0
v -13 -18 0
v -12 -18 0
v -18 -19 0
v -19 -19 0
v -19 -18 0
v -18 -18 0
v -2 -20 0
v -3 -20 0
v -3 -19 0
v -2 -19 0
v -3 -20 0
v -4 -20 0
v -4 -19 0
v -3 -19 0
v -6 -20 0
v -7 -20 0
v -7 -19 0
v -6 -19 0
v -2 -21 0
v -3 -21 0
v -3 -20 0
v -2 -20 0
v -5 -21 0
v -6 -21 0
v -6 -20 0
v -5 -20 0
v -6 -21 0
v -7 -21 0
v -7 -20 0
v -6 -20 0
v -2 -22 0
v -3 -22 0
v -3 -21 0
v -2 -21 0
v -3 -22 0
v -4 -22 0
v -4 -21 0
v -3 -21 0
v -6 -22 0
v -7 -22 0
v -7 -21 0
v -6 -21 0
v -18 -22 0
v -19 -22 0
v -19 -21 0
v -18 -21 0
v -20 -22 0
v -21 -22 0
v -21 -21 0
v -20 -21 0
v -2 -23 0
v -3 -23 0
v -3 -22 0
v -2 -22 0
v -5 -23 0
v -6 -23 0
v -6 -22 0
v -5 -22 0
v -6 -23 0
v -7 -23 0
v -7 -22 0
v -6 -22 0
v -9 -23 0
v -10 -23 0
v -10 -22 0
v -9 -22 0
v -10 -23 0
v -11 -23 0
v -11 -22 0
v -10 -22 0
v -23 -23 0
v -24 -23 0
v -24 -22 0
v -23 -22 0
v -2 -24 0
v -3 -24 0
v -3 -23 0
v -2 -23 0
v -3 -24 0
v -4 -24 0
v -4 -23 0
v -3 -23 0
v -6 -24 0
v -7 -24 0
v -7 -23 0
v -6 -23 0
v -9 -24 0
v -10 -24 0
v -10 -23 0
v -9 -23 0
v -10 -24 0
v -11 -24 0
v -11 -23 0
v -10 -23 0
v -22 -24 0
v -23 -24 0
v -23 -23 0
v -22 -23 0

# Texture cooridinates (Count = 58)
vt 0.025 0.88
vt 0.05 0.88
vt 0.05 0.92
vt 0.025 0.92
vt 0.075 0.88
vt 0.075 0.92
vt 0.075 0.96
vt 0.05 0.96
vt 0.1 0.88
vt 0.1 0.92
vt 0.175 0.76
vt 0.2 0.76
vt 0.2 0.8
vt 0.175 0.8
vt 0.225 0.76
vt 0.225 0.8
vt 0.125 0.76
vt 0.1 0.76
vt 0.1 0.8
vt 0.125 0.8
vt 0.025 0.84
vt 0.05 0.84
vt 0.075 0.84
vt 0.1 0.84
vt 0.175 0.72
vt 0.2 0.72
vt 0.225 0.72
vt 0.025 0.8
vt 0.05 0.8
vt 0.075 0.8
vt 0.15 0.8
vt 0.175 0.84
vt 0.15 0.84
vt 0.025 0.76
vt 0.05 0.76
vt 0.075 0.76
vt 0.175 0.88
vt 0.15 0.88
vt 0.125 0.72
vt 0.1 0.72
vt 0 0.76
vt 0 0.8
vt 0.025 0.72
vt 0.05 0.72
vt 0.075 0.72
vt 0 0.72
vt 0.2 0.96
vt 0.225 0.96
vt 0.225 1
vt 0.2 1
vt 0.125 0.84
vt 0.15 0.72
vt 0.15 0.76
vt 0.2 0.92
vt 0.225 0.92
vt 0.125 0.88
vt 0.2 0.88
vt 0.225 0.88

# Normal
vn 0 0 -1

# Mesh description
g Cueva-1f_mesh_0002

# Faces
f 1/1/1 2/2/1 3/3/1 4/4/1
f 5/2/1 6/5/1 7/6/1 8/3/1
f 9/3/1 10/6/1 11/7/1 12/8/1
f 13/3/1 14/6/1 15/7/1 16/8/1
f 17/2/1 18/5/1 19/6/1 20/3/1
f 21/5/1 22/9/1 23/10/1 24/6/1
f 25/11/1 26/12/1 27/13/1 28/14/1
f 29/12/1 30/15/1 31/16/1 32/13/1
f 33/17/1 34/18/1 35/19/1 36/20/1
f 37/21/1 38/22/1 39/2/1 40/1/1
f 41/23/1 42/24/1 43/9/1 44/5/1
f 45/21/1 46/22/1 47/2/1 48/1/1
f 49/23/1 50/24/1 51/9/1 52/5/1
f 53/18/1 54/17/1 55/20/1 56/19/1
f 57/25/1 58/26/1 59/12/1 60/11/1
f 61/26/1 62/27/1 63/15/1 64/12/1
f 65/17/1 66/18/1 67/19/1 68/20/1
f 69/28/1 70/29/1 71/22/1 72/21/1
f 73/30/1 74/19/1 75/24/1 76/23/1
f 77/28/1 78/29/1 79/22/1 80/21/1
f 81/30/1 82/19/1 83/24/1 84/23/1
f 85/18/1 86/17/1 87/20/1 88/19/1
f 89/11/1 90/12/1 91/13/1 92/14/1
f 93/12/1 94/15/1 95/16/1 96/13/1
f 97/31/1 98/14/1 99/32/1 100/33/1
f 101/11/1 102/12/1 103/13/1 104/14/1
f 105/12/1 106/15/1 107/16/1 108/13/1
f 109/34/1 110/35/1 111/29/1 112/28/1
f 113/36/1 114/18/1 115/19/1 116/30/1
f 117/34/1 118/35/1 119/29/1 120/28/1
f 121/36/1 122/18/1 123/19/1 124/30/1
f 125/25/1 126/26/1 127/12/1 128/11/1
f 129/26/1 130/27/1 131/15/1 132/12/1
f 133/25/1 134/26/1 135/12/1 136/11/1
f 137/26/1 138/27/1 139/15/1 140/12/1
f 141/33/1 142/32/1 143/37/1 144/38/1
f 145/39/1 146/40/1 147/18/1 148/17/1
f 149/41/1 150/34/1 151/28/1 152/42/1
f 153/43/1 154/44/1 155/35/1 156/34/1
f 157/45/1 158/40/1 159/18/1 160/36/1
f 161/41/1 162/34/1 163/28/1 164/42/1
f 165/40/1 166/39/1 167/17/1 168/18/1
f 169/46/1 170/43/1 171/34/1 172/41/1
f 173/46/1 174/43/1 175/34/1 176/41/1
f 177/47/1 178/48/1 179/49/1 180/50/1
f 181/20/1 182/31/1 183/33/1 184/51/1
f 185/39/1 186/52/1 187/53/1 188/17/1
f 189/31/1 190/14/1 191/32/1 192/33/1
f 193/41/1 194/34/1 195/28/1 196/42/1
f 197/54/1 198/55/1 199/48/1 200/47/1
f 201/41/1 202/34/1 203/28/1 204/42/1
f 205/33/1 206/32/1 207/37/1 208/38/1
f 209/51/1 210/33/1 211/38/1 212/56/1
f 213/33/1 214/32/1 215/37/1 216/38/1
f 217/46/1 218/43/1 219/34/1 220/41/1
f 221/57/1 222/58/1 223/55/1 224/54/1
f 225/46/1 226/43/1 227/34/1 228/41/1
f 229/11/1 230/12/1 231/13/1 232/14/1
f 233/12/1 234/15/1 235/16/1 236/13/1
f 237/41/1 238/34/1 239/28/1 240/42/1
f 241/41/1 242/34/1 243/28/1 244/42/1
f 245/33/1 246/32/1 247/37/1 248/38/1
f 249/51/1 250/33/1 251/38/1 252/56/1
f 253/25/1 254/26/1 255/12/1 256/11/1
f 257/26/1 258/27/1 259/15/1 260/12/1
f 261/51/1 262/33/1 263/38/1 264/56/1
f 265/46/1 266/43/1 267/34/1 268/41/1
f 269/46/1 270/43/1 271/34/1 272/41/1
f 273/20/1 274/31/1 275/33/1 276/51/1
f 277/39/1 278/52/1 279/53/1 280/17/1
f 281/39/1 282/52/1 283/53/1 284/17/1
f 285/31/1 286/14/1 287/32/1 288/33/1
f 289/39/1 290/52/1 291/53/1 292/17/1
f 293/39/1 294/52/1 295/53/1 296/17/1
f 297/31/1 298/14/1 299/32/1 300/33/1
f 301/33/1 302/32/1 303/37/1 304/38/1
f 305/31/1 306/14/1 307/32/1 308/33/1
f 309/39/1 310/52/1 311/53/1 312/17/1
f 313/20/1 314/31/1 315/33/1 316/51/1
f 317/33/1 318/32/1 319/37/1 320/38/1
f 321/20/1 322/31/1 323/33/1 324/51/1
f 325/33/1 326/32/1 327/37/1 328/38/1
f 329/11/1 330/12/1 331/13/1 332/14/1
f 333/12/1 334/15/1 335/16/1 336/13/1
f 337/41/1 338/34/1 339/28/1 340/42/1
f 341/39/1 342/52/1 343/53/1 344/17/1
f 345/41/1 346/34/1 347/28/1 348/42/1
f 349/25/1 350/26/1 351/12/1 352/11/1
f 353/26/1 354/27/1 355/15/1 356/12/1
f 357/33/1 358/32/1 359/37/1 360/38/1
f 361/46/1 362/43/1 363/34/1 364/41/1
f 365/39/1 366/52/1 367/53/1 368/17/1
f 369/46/1 370/43/1 371/34/1 372/41/1
f 373/41/1 374/34/1 375/28/1 376/42/1
f 377/39/1 378/52/1 379/53/1 380/17/1
f 381/41/1 382/34/1 383/28/1 384/42/1
f 385/46/1 386/43/1 387/34/1 388/41/1
f 389/39/1 390/52/1 391/53/1 392/17/1
f 393/46/1 394/43/1 395/34/1 396/41/1
f 397/39/1 398/52/1 399/53/1 400/17/1
f 401/33/1 402/32/1 403/37/1 404/38/1
f 405/41/1 406/34/1 407/28/1 408/42/1
f 409/39/1 410/52/1 411/53/1 412/17/1
f 413/41/1 414/34/1 415/28/1 416/42/1
f 417/11/1 418/12/1 419/13/1 420/14/1
f 421/12/1 422/15/1 423/16/1 424/13/1
f 425/31/1 426/14/1 427/32/1 428/33/1
f 429/46/1 430/43/1 431/34/1 432/41/1
f 433/39/1 434/52/1 435/53/1 436/17/1
f 437/46/1 438/43/1 439/34/1 440/41/1
f 441/25/1 442/26/1 443/12/1 444/11/1
f 445/26/1 446/27/1 447/15/1 448/12/1
f 449/39/1 450/52/1 451/53/1 452/17/1

