# Tiled2Unity generated file. Do not modify by hand.
# Wavefront file for 'Cueva-1f_mesh_0012.obj'

# Vertices (Count = 24)
v -22 -12 0
v -23 -12 0
v -23 -11 0
v -22 -11 0
v -16 -13 0
v -17 -13 0
v -17 -12 0
v -16 -12 0
v -22 -15 0
v -23 -15 0
v -23 -14 0
v -22 -14 0
v -16 -17 0
v -17 -17 0
v -17 -16 0
v -16 -16 0
v -22 -19 0
v -23 -19 0
v -23 -18 0
v -22 -18 0
v -16 -20 0
v -17 -20 0
v -17 -19 0
v -16 -19 0

# Texture cooridinates (Count = 4)
vt 0.175 0.72
vt 0.15 0.72
vt 0.15 0.68
vt 0.175 0.68

# Normal
vn 0 0 -1

# Mesh description
g Cueva-1f_mesh_0012

# Faces
f 1/1/1 2/2/1 3/3/1 4/4/1
f 5/1/1 6/2/1 7/3/1 8/4/1
f 9/1/1 10/2/1 11/3/1 12/4/1
f 13/1/1 14/2/1 15/3/1 16/4/1
f 17/1/1 18/2/1 19/3/1 20/4/1
f 21/1/1 22/2/1 23/3/1 24/4/1

